<svg width="32" height="32" viewBox="0 0 32 32" fill="none" xmlns="http://www.w3.org/2000/svg">
<path fill-rule="evenodd" clip-rule="evenodd" d="M32 26.5744C32 26.2574 31.7256 26 31.3879 26H0.6122C0.274451 26 0 26.2574 0 26.5744V31.4256C0 31.7426 0.274451 32 0.6122 32H31.3879C31.7256 32 32 31.7426 32 31.4256V26.5744Z" fill="#0E5A8A"/>
<path fill-rule="evenodd" clip-rule="evenodd" d="M32 18.5482C32 18.2456 31.725 18 31.3867 18H0.613179C0.27489 18 0 18.2456 0 18.5482V23.4519C0 23.7545 0.27489 24 0.613179 24H31.3867C31.725 24 32 23.7545 32 23.4519V18.5482Z" fill="#137CBD"/>
<path fill-rule="evenodd" clip-rule="evenodd" d="M32 0.625882C32 0.280363 31.7247 0 31.386 0H0.613855C0.275195 0 0 0.280363 0 0.625882V15.3741C0 15.7196 0.275195 16 0.613855 16H31.386C31.7247 16 32 15.7196 32 15.3741V0.625882Z" fill="#48AFF0"/>
</svg>
