<svg width="176" height="56" viewBox="0 0 176 56" fill="none" xmlns="http://www.w3.org/2000/svg">
<path d="M17 17H18V21H17V17Z" fill="#666666"/>
<path d="M17 36H18V40H17V36Z" fill="#666666"/>
<path d="M11 25L11 24L15 24L15 25L11 25Z" fill="#666666"/>
<path d="M20.5 15C20.5 16.6569 19.1569 18 17.5 18C15.8431 18 14.5 16.6569 14.5 15C14.5 13.3431 15.8431 12 17.5 12C19.1569 12 20.5 13.3431 20.5 15Z" fill="#666666"/>
<path d="M11 33L11 32L15 32L15 33L11 33Z" fill="#666666"/>
<path d="M20.5 43C20.5 44.6569 19.1569 46 17.5 46C15.8431 46 14.5 44.6569 14.5 43C14.5 41.3431 15.8431 40 17.5 40C19.1569 40 20.5 41.3431 20.5 43Z" fill="#666666"/>
<path d="M27.5 15C27.5 16.6569 26.1569 18 24.5 18C22.8431 18 21.5 16.6569 21.5 15C21.5 13.3431 22.8431 12 24.5 12C26.1569 12 27.5 13.3431 27.5 15Z" fill="#666666"/>
<path d="M24 17H25V21H24V17Z" fill="#666666"/>
<path d="M12 24.5C12 26.1569 10.6569 27.5 9 27.5C7.34315 27.5 6 26.1569 6 24.5C6 22.8431 7.34315 21.5 9 21.5C10.6569 21.5 12 22.8431 12 24.5Z" fill="#666666"/>
<path d="M12 32.5C12 34.1569 10.6569 35.5 9 35.5C7.34315 35.5 6 34.1569 6 32.5C6 30.8431 7.34315 29.5 9 29.5C10.6569 29.5 12 30.8431 12 32.5Z" fill="#666666"/>
<path d="M27.5 43C27.5 44.6569 26.1569 46 24.5 46C22.8431 46 21.5 44.6569 21.5 43C21.5 41.3431 22.8431 40 24.5 40C26.1569 40 27.5 41.3431 27.5 43Z" fill="#666666"/>
<path d="M24 36H25V40H24V36Z" fill="#666666"/>
<path d="M161.459 38.2422C160.275 38.2422 159.091 38.073 157.906 37.7346C156.746 37.372 155.659 36.8645 154.644 36.2119V32.3327C155.78 33.2028 156.867 33.8433 157.906 34.2542C158.97 34.6651 160.082 34.8705 161.242 34.8705C162.474 34.8705 163.441 34.653 164.142 34.2179C164.843 33.7829 165.194 33.1907 165.194 32.4415C165.194 31.668 164.867 31.1 164.215 30.7375C163.586 30.375 162.583 30.0124 161.206 29.6499C159.876 29.3115 158.789 28.961 157.943 28.5985C157.121 28.2359 156.408 27.6921 155.804 26.967C155.199 26.242 154.897 25.2631 154.897 24.0304C154.897 22.3386 155.562 20.9851 156.891 19.9699C158.245 18.9548 160.021 18.4473 162.221 18.4473C164.348 18.4473 166.293 18.9911 168.058 20.0787V23.8492C167.091 23.1241 166.16 22.6044 165.266 22.2902C164.396 21.976 163.453 21.8189 162.438 21.8189C161.278 21.8189 160.372 22.0002 159.719 22.3627C159.067 22.7253 158.74 23.2449 158.74 23.9217C158.74 24.5984 159.042 25.106 159.647 25.4444C160.251 25.7586 161.23 26.0969 162.583 26.4595C163.937 26.822 165.036 27.1846 165.882 27.5471C166.728 27.8855 167.453 28.4414 168.058 29.2148C168.686 29.9882 169 31.0154 169 32.2964C169 33.4566 168.674 34.4838 168.021 35.3781C167.393 36.2723 166.499 36.9732 165.339 37.4808C164.203 37.9884 162.91 38.2422 161.459 38.2422Z" fill="#666666"/>
<path d="M143.745 38.2424C141.86 38.2424 140.216 37.8315 138.814 37.0097C137.437 36.188 136.373 35.0399 135.624 33.5656C134.875 32.0671 134.5 30.351 134.5 28.4175C134.5 26.4597 134.875 24.7316 135.624 23.2331C136.397 21.7346 137.473 20.5623 138.851 19.7164C140.252 18.8705 141.884 18.4475 143.745 18.4475C146.138 18.4475 148.059 18.9913 149.509 20.079V23.6681H149.364C147.769 22.4838 145.92 21.8917 143.817 21.8917C142.126 21.8917 140.832 22.4838 139.938 23.6681C139.044 24.8524 138.597 26.4476 138.597 28.4537C138.597 30.4115 139.032 31.9583 139.902 33.0943C140.796 34.2302 142.089 34.7982 143.781 34.7982C145.884 34.7982 147.817 34.0973 149.582 32.6955H149.727V36.3209C148.18 37.6019 146.186 38.2424 143.745 38.2424Z" fill="#666666"/>
<path d="M128.61 17.2566C127.885 17.2566 127.269 17.0149 126.761 16.5316C126.254 16.024 126 15.3956 126 14.6463C126 13.8729 126.254 13.2445 126.761 12.7611C127.269 12.2535 127.885 11.9998 128.61 11.9998C129.335 11.9998 129.952 12.2535 130.459 12.7611C130.967 13.2445 131.221 13.8729 131.221 14.6463C131.221 15.3956 130.967 16.024 130.459 16.5316C129.952 17.0149 129.335 17.2566 128.61 17.2566ZM130.568 18.8821V37.8069H126.653V18.8821H130.568Z" fill="#666666"/>
<path d="M119.142 18.8825H123.964V22.0003H119.142V32.0791C119.142 32.9733 119.323 33.6743 119.686 34.1818C120.072 34.6894 120.64 34.9432 121.39 34.9432C122.163 34.9432 123.033 34.7135 124 34.2543V37.5897C122.985 38.0248 121.837 38.2423 120.556 38.2423C118.84 38.2423 117.523 37.7227 116.604 36.6834C115.686 35.6441 115.226 34.1697 115.226 32.2603V22.0003H112V18.8825H115.226V13.8069L119.142 12.1392V18.8825Z" fill="#666666"/>
<path d="M111.524 18.8818L100.684 46.2176H96.8409L100.031 38.2054L92.4541 18.8818H96.4421L102.062 33.6374L107.5 18.8818H111.524Z" fill="#666666"/>
<path d="M87 10.4712H90.9155V37.807H87V10.4712Z" fill="#666666"/>
<path d="M75.7125 18.4836C77.1385 18.4836 78.3953 18.8945 79.483 19.7163C80.5948 20.5139 81.4528 21.6499 82.057 23.1242C82.6854 24.5744 82.9996 26.2542 82.9996 28.1636C82.9996 30.0488 82.6371 31.7648 81.912 33.3117C81.1869 34.8344 80.1839 36.0428 78.9029 36.9371C77.6461 37.8072 76.2201 38.2423 74.6249 38.2423C72.6913 38.2423 70.9753 37.8435 69.4768 37.0459V46.2182H64.6912V23.0879L64.6904 18.8824H69.0417V21.5653C69.9118 20.5743 70.9269 19.813 72.0871 19.2812C73.2472 18.7495 74.4557 18.4836 75.7125 18.4836ZM73.646 34.2905C76.5222 34.2905 77.9603 32.2724 77.9603 28.2361C77.9603 26.375 77.6703 24.9369 77.0902 23.9218C76.5343 22.9067 75.7125 22.3991 74.6249 22.3991C72.8847 22.3991 71.1686 23.2451 69.4768 24.9369V33.7105C71.0236 34.0972 72.4134 34.2905 73.646 34.2905Z" fill="#666666"/>
<path d="M57.7775 17.0544C56.9558 17.0544 56.2549 16.7764 55.6748 16.2205C55.0947 15.6646 54.8047 14.9395 54.8047 14.0452C54.8047 13.151 55.0947 12.4259 55.6748 11.87C56.2549 11.3141 56.9558 11.0361 57.7775 11.0361C58.5993 11.0361 59.3002 11.3141 59.8803 11.87C60.4604 12.4259 60.7504 13.151 60.7504 14.0452C60.7504 14.9395 60.4604 15.6646 59.8803 16.2205C59.3002 16.7764 58.5993 17.0544 57.7775 17.0544ZM60.1703 18.8822V37.807H55.3848V18.9185L60.1703 18.8822Z" fill="#666666"/>
<path d="M43.107 18.4472C45.0164 18.4472 46.5512 19.0151 47.7113 20.1511C48.8956 21.2629 49.4878 22.7373 49.4878 24.5741V37.807H44.7022V27.2932C44.7022 25.6497 44.4484 24.4775 43.9409 23.7765C43.4575 23.0515 42.6478 22.6889 41.5118 22.6889C40.2309 22.6889 38.9015 23.4019 37.5239 24.8279V37.807H32.7383V10.4712H37.5239V20.8399C38.4665 19.994 39.3728 19.3898 40.2429 19.0272C41.1372 18.6405 42.0919 18.4472 43.107 18.4472Z" fill="#666666"/>
<path d="M22.8249 38.7949C20.843 38.7949 19.1028 38.3961 17.6043 37.5985C16.13 36.7767 14.994 35.6287 14.1964 34.1543C13.3988 32.68 13 30.9519 13 28.97C13 26.988 13.4109 25.2478 14.2326 23.7493C15.0544 22.2266 16.2025 21.0544 17.6768 20.2326C19.1753 19.4109 20.8914 19 22.8249 19C25.0002 19 26.8371 19.4471 28.3356 20.3414V24.5469H28.1906C27.393 24.0635 26.5229 23.701 25.5803 23.4593C24.6618 23.2176 23.8038 23.0967 23.0062 23.0967C21.3385 23.0967 20.0817 23.5922 19.2358 24.5832C18.3898 25.5741 17.9668 27.0364 17.9668 28.97C17.9668 32.7887 19.6225 34.6981 22.9337 34.6981C23.8038 34.6981 24.686 34.5652 25.5803 34.2993C26.4987 34.0093 27.3688 33.6105 28.1906 33.103H28.3356V37.381C26.7887 38.3236 24.9519 38.7949 22.8249 38.7949Z" fill="#666666"/>
</svg>
