<svg width="364" height="350" viewBox="0 0 364 350" fill="none" xmlns="http://www.w3.org/2000/svg">
<rect y="2" width="362" height="347" rx="12" fill="white"/>
<path d="M4 12H332C343.046 12 352 20.9543 352 32V297C352 308.046 343.046 317 332 317H43.6207C32.575 317 23.6206 308.046 23.6206 297V107C23.6206 95.9543 32.5749 87 43.6206 87H254C265.046 87 274 95.9543 274 107V213.5C274 224.546 265.046 233.5 254 233.5H123" stroke="#E5E8EB"/>
<g filter="url(#filter0_d_4660_48653)">
<circle cx="5" cy="12" r="3" fill="white"/>
</g>
<g filter="url(#filter1_d_4660_48653)">
<circle cx="126" cy="233" r="3" fill="white"/>
</g>
<path d="M0.793 22.266V21.239H3.51V29H2.444V22.266H0.793ZM10.4632 22.045C10.6105 22.2703 10.6842 22.5303 10.6842 22.825V27.427C10.6842 27.713 10.6105 27.9687 10.4632 28.194C10.4025 28.2807 10.2985 28.3977 10.1512 28.545C10.0125 28.6837 9.89984 28.7833 9.81317 28.844C9.58784 28.9913 9.33217 29.065 9.04617 29.065H7.47317C7.02251 29.065 6.57184 28.8007 6.12117 28.272C5.90451 28.0207 5.75284 27.7867 5.66617 27.57L6.71917 27.297C6.82317 27.479 6.95751 27.6523 7.12217 27.817C7.28684 27.973 7.41251 28.051 7.49917 28.051H8.92917C9.05917 28.051 9.20651 27.9687 9.37117 27.804C9.53584 27.6393 9.61817 27.492 9.61817 27.362V25.62C9.27151 25.9667 8.96817 26.14 8.70817 26.14H7.29117C6.99651 26.14 6.73651 26.0663 6.51117 25.919C6.42451 25.8583 6.31184 25.7587 6.17317 25.62C6.03451 25.4727 5.93484 25.3557 5.87417 25.269C5.71817 25.061 5.64017 24.8053 5.64017 24.502V22.825C5.64017 22.5217 5.71817 22.2617 5.87417 22.045C5.93484 21.9583 6.03451 21.8457 6.17317 21.707C6.31184 21.5683 6.42451 21.4687 6.51117 21.408C6.72784 21.252 6.98784 21.174 7.29117 21.174H9.04617C9.34084 21.174 9.59651 21.252 9.81317 21.408C9.89984 21.4687 10.0125 21.5683 10.1512 21.707C10.2985 21.8457 10.4025 21.9583 10.4632 22.045ZM7.40817 25.139H8.70817C8.95951 25.139 9.26284 24.8963 9.61817 24.411V22.877C9.61817 22.7557 9.53584 22.6083 9.37117 22.435C9.21517 22.279 9.06784 22.201 8.92917 22.201H7.40817C7.26951 22.201 7.12217 22.2833 6.96617 22.448C6.80151 22.604 6.71917 22.747 6.71917 22.877V24.463C6.71917 24.5843 6.80151 24.7317 6.96617 24.905C7.12217 25.061 7.26951 25.139 7.40817 25.139ZM19.4241 21.239V27.232C19.4241 27.5787 19.3201 27.869 19.1121 28.103C18.9215 28.3283 18.7395 28.519 18.5661 28.675C18.2801 28.935 17.9508 29.065 17.5781 29.065H16.6421C16.1828 29.065 15.7365 28.8007 15.3031 28.272C15.1038 28.038 14.9478 27.804 14.8351 27.57L15.8881 27.297C16.0095 27.4877 16.1481 27.661 16.3041 27.817C16.4601 27.973 16.5815 28.051 16.6681 28.051H17.5651C17.6518 28.051 17.8078 27.9383 18.0331 27.713C18.2498 27.4963 18.3581 27.3403 18.3581 27.245V21.239H19.4241ZM25.8886 29H24.9006L24.8226 28.532C24.4153 28.8873 24.0903 29.065 23.8476 29.065H22.7946C22.4999 29.065 22.2443 28.9913 22.0276 28.844C21.9409 28.7833 21.8239 28.6837 21.6766 28.545C21.5379 28.3977 21.4383 28.2807 21.3776 28.194C21.2303 27.9687 21.1566 27.713 21.1566 27.427V23.397H22.1706V27.414C22.1706 27.544 22.2529 27.6913 22.4176 27.856C22.5823 28.0207 22.7296 28.103 22.8596 28.103H23.8086C23.9473 28.103 24.1206 28.0207 24.3286 27.856C24.5366 27.6827 24.6796 27.531 24.7576 27.401V23.397H25.7716V27.947L25.8886 29ZM28.5848 29H27.5578C27.5404 28.9047 27.5144 28.753 27.4798 28.545C27.4538 28.3283 27.4321 28.1723 27.4148 28.077V21.239H28.4288V27.934C28.4461 28.0727 28.4981 28.428 28.5848 29ZM31.4978 28.012L31.0428 30.092H29.9248L30.4058 27.856L31.4978 28.012ZM39.6721 29.065H37.8391C37.5358 29.065 37.2801 28.9913 37.0721 28.844C36.9855 28.7833 36.8685 28.6837 36.7211 28.545C36.5825 28.3977 36.4828 28.2807 36.4221 28.194C36.2748 27.986 36.2011 27.7303 36.2011 27.427V22.825C36.2011 22.5303 36.2748 22.2703 36.4221 22.045C36.4828 21.9583 36.5825 21.8457 36.7211 21.707C36.8685 21.5683 36.9855 21.4687 37.0721 21.408C37.2801 21.252 37.5358 21.174 37.8391 21.174H39.6721C39.9755 21.174 40.2355 21.252 40.4521 21.408C40.5388 21.4687 40.6515 21.5683 40.7901 21.707C40.9288 21.8457 41.0285 21.9583 41.0891 22.045C41.2451 22.2617 41.3231 22.5217 41.3231 22.825V27.427C41.3231 27.7303 41.2451 27.986 41.0891 28.194C41.0285 28.2807 40.9288 28.3977 40.7901 28.545C40.6515 28.6837 40.5388 28.7833 40.4521 28.844C40.2268 28.9913 39.9668 29.065 39.6721 29.065ZM37.2671 22.877V27.362C37.2671 27.5007 37.3495 27.648 37.5141 27.804C37.6701 27.9687 37.8131 28.051 37.9431 28.051H39.5681C39.6981 28.051 39.8455 27.9687 40.0101 27.804C40.1748 27.6393 40.2571 27.492 40.2571 27.362V22.877C40.2571 22.7557 40.1748 22.6083 40.0101 22.435C39.8455 22.279 39.6981 22.201 39.5681 22.201H37.9431C37.8131 22.201 37.6658 22.2833 37.5011 22.448C37.3451 22.604 37.2671 22.747 37.2671 22.877ZM47.3614 25.074C47.5434 25.2473 47.6691 25.3773 47.7384 25.464C47.8164 25.5507 47.8858 25.6633 47.9464 25.802C48.0158 25.9407 48.0504 26.0923 48.0504 26.257V27.427C48.0504 27.7303 47.9768 27.986 47.8294 28.194C47.7688 28.2807 47.6648 28.3977 47.5174 28.545C47.3788 28.6837 47.2661 28.7833 47.1794 28.844C46.9714 28.9913 46.7158 29.065 46.4124 29.065H44.6184C44.3151 29.065 44.0594 28.9913 43.8514 28.844C43.7648 28.7833 43.6478 28.6837 43.5004 28.545C43.3618 28.3977 43.2621 28.2807 43.2014 28.194C43.0541 27.986 42.9804 27.7303 42.9804 27.427V26.257C42.9804 26.023 43.0324 25.8237 43.1364 25.659C43.2491 25.4943 43.4268 25.2993 43.6694 25.074C43.2534 24.684 43.0454 24.3027 43.0454 23.93V22.825C43.0454 22.5303 43.1191 22.2703 43.2664 22.045C43.3271 21.9583 43.4268 21.8457 43.5654 21.707C43.7128 21.5683 43.8298 21.4687 43.9164 21.408C44.1244 21.252 44.3801 21.174 44.6834 21.174H46.3474C46.6508 21.174 46.9064 21.252 47.1144 21.408C47.2011 21.4687 47.3138 21.5683 47.4524 21.707C47.5998 21.8457 47.7038 21.9583 47.7644 22.045C47.9118 22.2703 47.9854 22.5303 47.9854 22.825V23.93C47.9854 24.294 47.7774 24.6753 47.3614 25.074ZM44.1114 22.877V23.917C44.1114 24.0557 44.1938 24.203 44.3584 24.359C44.5144 24.5237 44.6574 24.606 44.7874 24.606H46.2434C46.3648 24.606 46.5121 24.5237 46.6854 24.359C46.8414 24.203 46.9194 24.0557 46.9194 23.917V22.877C46.9194 22.747 46.8371 22.5997 46.6724 22.435C46.5164 22.279 46.3734 22.201 46.2434 22.201H44.7874C44.6574 22.201 44.5101 22.2833 44.3454 22.448C44.1894 22.604 44.1114 22.747 44.1114 22.877ZM46.9844 27.362V26.296C46.9844 26.1573 46.9021 26.01 46.7374 25.854C46.5814 25.6893 46.4384 25.607 46.3084 25.607H44.7224C44.6011 25.607 44.4538 25.6893 44.2804 25.854C44.1244 26.01 44.0464 26.1573 44.0464 26.296V27.362C44.0464 27.5007 44.1288 27.648 44.2934 27.804C44.4494 27.9687 44.5924 28.051 44.7224 28.051H46.3084C46.4298 28.051 46.5771 27.9687 46.7504 27.804C46.9064 27.648 46.9844 27.5007 46.9844 27.362ZM51.1 25.542H49.787V24.177H51.1V25.542ZM51.1 29H49.787V27.622H51.1V29ZM52.8057 22.266V21.239H55.5227V29H54.4567V22.266H52.8057ZM62.0469 25.061C62.2115 25.217 62.3329 25.3383 62.4109 25.425C62.4889 25.5117 62.5625 25.6287 62.6319 25.776C62.7012 25.9147 62.7359 26.0663 62.7359 26.231V27.427C62.7359 27.7217 62.6579 27.9773 62.5019 28.194C62.4412 28.2807 62.3415 28.3977 62.2029 28.545C62.0642 28.6837 61.9515 28.7833 61.8649 28.844C61.6482 28.9913 61.3882 29.065 61.0849 29.065H59.4079C58.9485 29.065 58.5022 28.8007 58.0689 28.272C57.8695 28.038 57.7135 27.804 57.6009 27.57L58.6539 27.297C58.7752 27.4877 58.9139 27.661 59.0699 27.817C59.2259 27.973 59.3472 28.051 59.4339 28.051H60.9809C61.1109 28.051 61.2582 27.9687 61.4229 27.804C61.5875 27.6307 61.6699 27.4833 61.6699 27.362V26.27C61.6699 26.14 61.5875 25.9927 61.4229 25.828C61.2582 25.6633 61.1109 25.581 60.9809 25.581H59.3299V24.567H60.9549C61.0849 24.567 61.2322 24.4847 61.3969 24.32C61.5529 24.164 61.6309 24.021 61.6309 23.891V22.877C61.6309 22.7557 61.5485 22.6083 61.3839 22.435C61.2279 22.279 61.0805 22.201 60.9419 22.201H59.4339C59.3472 22.201 59.2215 22.279 59.0569 22.435C58.9009 22.591 58.7665 22.7643 58.6539 22.955L57.6009 22.669C57.7309 22.409 57.8869 22.175 58.0689 21.967C58.5282 21.4383 58.9745 21.174 59.4079 21.174H61.0589C61.3535 21.174 61.6092 21.252 61.8259 21.408C61.9125 21.4687 62.0252 21.5683 62.1639 21.707C62.3112 21.8457 62.4152 21.9583 62.4759 22.045C62.6232 22.2703 62.6969 22.5303 62.6969 22.825V23.917C62.6969 24.151 62.6405 24.3503 62.5279 24.515C62.4239 24.6797 62.2635 24.8617 62.0469 25.061ZM68.4335 31.119H67.4195V24.45L67.3025 23.397H68.3035L68.3815 23.865C68.7715 23.5097 69.1009 23.332 69.3695 23.332H70.4745C70.7605 23.332 71.0162 23.4057 71.2415 23.553C71.3282 23.6137 71.4409 23.7177 71.5795 23.865C71.7269 24.0037 71.8309 24.1163 71.8915 24.203C72.0389 24.411 72.1125 24.6667 72.1125 24.97V27.427C72.1125 27.713 72.0389 27.9687 71.8915 28.194C71.8309 28.2807 71.7269 28.3977 71.5795 28.545C71.4409 28.6837 71.3282 28.7833 71.2415 28.844C71.0162 28.9913 70.7605 29.065 70.4745 29.065H69.3695C69.0922 29.065 68.7802 28.9003 68.4335 28.571V31.119ZM69.3955 28.103H70.4095C70.5395 28.103 70.6869 28.0207 70.8515 27.856C71.0162 27.6913 71.0985 27.544 71.0985 27.414V24.983C71.0985 24.853 71.0162 24.7057 70.8515 24.541C70.6955 24.3763 70.5482 24.294 70.4095 24.294H69.4085C69.2959 24.294 69.1269 24.3807 68.9015 24.554C68.6762 24.7273 68.5202 24.8833 68.4335 25.022V27.362C68.5289 27.5007 68.6892 27.661 68.9145 27.843C69.1399 28.0163 69.3002 28.103 69.3955 28.103ZM80.9843 24.203C81.1316 24.411 81.2053 24.6667 81.2053 24.97V29H80.1913V24.983C80.1913 24.853 80.109 24.7057 79.9443 24.541C79.7883 24.3763 79.641 24.294 79.5023 24.294H78.8913C78.6226 24.294 78.3106 24.515 77.9553 24.957V29H76.9413V24.983C76.9413 24.8443 76.859 24.697 76.6943 24.541C76.5383 24.3763 76.3953 24.294 76.2653 24.294H75.6413C75.494 24.294 75.3293 24.3677 75.1473 24.515C74.9653 24.6537 74.8136 24.801 74.6923 24.957V29H73.6783V24.437L73.5613 23.397H74.5493L74.6403 23.852C75.0476 23.5053 75.3683 23.332 75.6023 23.332H76.3173C76.6206 23.332 76.8763 23.4057 77.0843 23.553C77.171 23.6137 77.3443 23.774 77.6043 24.034C78.1416 23.566 78.5576 23.332 78.8523 23.332H79.5673C79.8533 23.332 80.109 23.4057 80.3343 23.553C80.421 23.6137 80.5336 23.7177 80.6723 23.865C80.8196 24.0037 80.9236 24.1163 80.9843 24.203Z" fill="#16181C"/>
<path d="M3.62 42.05H1.92C1.52667 42.05 1.14667 41.83 0.78 41.39C0.613333 41.1967 0.496667 41.0133 0.43 40.84L1.46 40.57C1.55333 40.71 1.64667 40.8267 1.74 40.92C1.84 41.0067 1.91333 41.05 1.96 41.05H3.6C3.64 41.05 3.73 40.98 3.87 40.84C4.01 40.7 4.08 40.61 4.08 40.57V39.98C4.08 39.88 4.04 39.8233 3.96 39.81L1.36 39.07C1.11333 39.0033 0.92 38.8667 0.78 38.66C0.646667 38.4533 0.58 38.2267 0.58 37.98V37.48C0.58 37.1933 0.66 36.9567 0.82 36.77C0.98 36.5833 1.13 36.4267 1.27 36.3C1.51 36.08 1.78333 35.97 2.09 35.97H3.55C3.94333 35.97 4.32333 36.19 4.69 36.63C4.85667 36.8233 4.97333 37.0067 5.04 37.18L4.01 37.45C3.92333 37.31 3.83 37.1967 3.73 37.11C3.63 37.0167 3.56 36.97 3.52 36.97H2.11C2.07 36.97 1.98 37.04 1.84 37.18C1.7 37.32 1.63 37.41 1.63 37.45V37.92C1.63 38.02 1.66667 38.0767 1.74 38.09L4.35 38.85C4.59667 38.9233 4.78667 39.0633 4.92 39.27C5.06 39.4767 5.13 39.7 5.13 39.94V40.54C5.13 40.8267 5.05 41.0633 4.89 41.25C4.73 41.4367 4.58 41.5933 4.44 41.72C4.2 41.94 3.92667 42.05 3.62 42.05ZM8.7343 37.68V38.63H7.4943V40.65C7.4943 40.7167 7.5443 40.8 7.6443 40.9C7.7443 41 7.82763 41.05 7.8943 41.05H8.5743V42H7.8043C7.5643 42 7.3543 41.9333 7.1743 41.8C6.9943 41.66 6.8343 41.5 6.6943 41.32C6.56096 41.14 6.4943 40.93 6.4943 40.69V38.63H5.8243V37.68H6.4943V36.07H7.4943V37.68H8.7343ZM13.2932 38.94V40.31H10.5332V40.71C10.5332 40.7767 10.5832 40.86 10.6832 40.96C10.7832 41.06 10.8665 41.11 10.9332 41.11H11.9832C12.0032 41.11 12.0265 41.1033 12.0532 41.09C12.0799 41.07 12.1065 41.0433 12.1332 41.01C12.1665 40.9767 12.1932 40.9467 12.2132 40.92C12.2332 40.8933 12.2599 40.86 12.2932 40.82C12.3265 40.7733 12.3499 40.74 12.3632 40.72L13.2932 41C13.1465 41.2867 12.9565 41.5333 12.7232 41.74C12.4899 41.9467 12.2365 42.05 11.9632 42.05H10.8432C10.6032 42.05 10.3932 41.9833 10.2132 41.85C10.0332 41.71 9.8732 41.55 9.7332 41.37C9.59987 41.19 9.5332 40.98 9.5332 40.74V38.94C9.5332 38.7 9.59987 38.49 9.7332 38.31C9.8732 38.13 10.0332 37.97 10.2132 37.83C10.3932 37.6967 10.6032 37.63 10.8432 37.63H11.9832C12.2232 37.63 12.4332 37.6967 12.6132 37.83C12.7932 37.97 12.9532 38.13 13.0932 38.31C13.2265 38.49 13.2932 38.7 13.2932 38.94ZM10.9332 38.57C10.8665 38.57 10.7832 38.62 10.6832 38.72C10.5832 38.82 10.5332 38.9033 10.5332 38.97V39.44H12.2932V38.97C12.2932 38.9033 12.2432 38.82 12.1432 38.72C12.0432 38.62 11.9599 38.57 11.8932 38.57H10.9332ZM15.8791 40.6L16.8991 37.68H17.9691L16.4091 42H15.3491L13.7791 37.68H14.8791L15.8791 40.6ZM22.219 38.94V40.31H19.459V40.71C19.459 40.7767 19.509 40.86 19.609 40.96C19.709 41.06 19.7923 41.11 19.859 41.11H20.909C20.929 41.11 20.9523 41.1033 20.979 41.09C21.0057 41.07 21.0323 41.0433 21.059 41.01C21.0923 40.9767 21.119 40.9467 21.139 40.92C21.159 40.8933 21.1857 40.86 21.219 40.82C21.2523 40.7733 21.2757 40.74 21.289 40.72L22.219 41C22.0723 41.2867 21.8823 41.5333 21.649 41.74C21.4157 41.9467 21.1623 42.05 20.889 42.05H19.769C19.529 42.05 19.319 41.9833 19.139 41.85C18.959 41.71 18.799 41.55 18.659 41.37C18.5257 41.19 18.459 40.98 18.459 40.74V38.94C18.459 38.7 18.5257 38.49 18.659 38.31C18.799 38.13 18.959 37.97 19.139 37.83C19.319 37.6967 19.529 37.63 19.769 37.63H20.909C21.149 37.63 21.359 37.6967 21.539 37.83C21.719 37.97 21.879 38.13 22.019 38.31C22.1523 38.49 22.219 38.7 22.219 38.94ZM19.859 38.57C19.7923 38.57 19.709 38.62 19.609 38.72C19.509 38.82 19.459 38.9033 19.459 38.97V39.44H21.219V38.97C21.219 38.9033 21.169 38.82 21.069 38.72C20.969 38.62 20.8857 38.57 20.819 38.57H19.859ZM26.8248 38.31C26.9582 38.49 27.0248 38.7 27.0248 38.94V42H26.0248V38.98C26.0248 38.9133 25.9748 38.83 25.8748 38.73C25.7748 38.63 25.6915 38.58 25.6248 38.58H24.9248C24.7848 38.58 24.5882 38.7167 24.3348 38.99V42H23.3348V38.57L23.2348 37.68H24.2048L24.2648 37.94C24.5515 37.7333 24.7615 37.63 24.8948 37.63H25.7148C25.9548 37.63 26.1648 37.6967 26.3448 37.83C26.5248 37.97 26.6848 38.13 26.8248 38.31ZM33.5712 42.05H31.8712C31.4778 42.05 31.0978 41.83 30.7312 41.39C30.5645 41.1967 30.4478 41.0133 30.3812 40.84L31.4112 40.57C31.5045 40.71 31.5978 40.8267 31.6912 40.92C31.7912 41.0067 31.8645 41.05 31.9112 41.05H33.5512C33.5912 41.05 33.6812 40.98 33.8212 40.84C33.9612 40.7 34.0312 40.61 34.0312 40.57V39.98C34.0312 39.88 33.9912 39.8233 33.9112 39.81L31.3112 39.07C31.0645 39.0033 30.8712 38.8667 30.7312 38.66C30.5978 38.4533 30.5312 38.2267 30.5312 37.98V37.48C30.5312 37.1933 30.6112 36.9567 30.7712 36.77C30.9312 36.5833 31.0812 36.4267 31.2212 36.3C31.4612 36.08 31.7345 35.97 32.0412 35.97H33.5012C33.8945 35.97 34.2745 36.19 34.6412 36.63C34.8078 36.8233 34.9245 37.0067 34.9912 37.18L33.9612 37.45C33.8745 37.31 33.7812 37.1967 33.6812 37.11C33.5812 37.0167 33.5112 36.97 33.4712 36.97H32.0612C32.0212 36.97 31.9312 37.04 31.7912 37.18C31.6512 37.32 31.5812 37.41 31.5812 37.45V37.92C31.5812 38.02 31.6178 38.0767 31.6912 38.09L34.3012 38.85C34.5478 38.9233 34.7378 39.0633 34.8712 39.27C35.0112 39.4767 35.0812 39.7 35.0812 39.94V40.54C35.0812 40.8267 35.0012 41.0633 34.8412 41.25C34.6812 41.4367 34.5312 41.5933 34.3912 41.72C34.1512 41.94 33.8778 42.05 33.5712 42.05ZM41.9355 38.31C42.0688 38.49 42.1355 38.7 42.1355 38.94V42H41.1355V38.98C41.1355 38.9133 41.0855 38.83 40.9855 38.73C40.8855 38.63 40.8021 38.58 40.7355 38.58H40.2755C40.1155 38.58 39.9221 38.71 39.6955 38.97V42H38.6955V38.98C38.6955 38.9133 38.6455 38.83 38.5455 38.73C38.4455 38.63 38.3621 38.58 38.2955 38.58H37.8155C37.6488 38.58 37.4521 38.71 37.2255 38.97V42H36.2255V38.57L36.1255 37.68H37.0955L37.1555 37.94C37.4288 37.7333 37.6388 37.63 37.7855 37.63H38.3855C38.6255 37.63 38.8355 37.6967 39.0155 37.83C39.0621 37.8633 39.1621 37.9567 39.3155 38.11C39.7288 37.79 40.0388 37.63 40.2455 37.63H40.8255C41.0655 37.63 41.2755 37.6967 41.4555 37.83C41.6355 37.97 41.7955 38.13 41.9355 38.31ZM44.3151 37.07H43.2451V36H44.3151V37.07ZM44.2851 42H43.2851V37.68H44.2851V42ZM47.9433 37.68V38.63H46.7033V40.65C46.7033 40.7167 46.7533 40.8 46.8533 40.9C46.9533 41 47.0366 41.05 47.1033 41.05H47.7833V42H47.0133C46.7733 42 46.5633 41.9333 46.3833 41.8C46.2033 41.66 46.0433 41.5 45.9033 41.32C45.7699 41.14 45.7033 40.93 45.7033 40.69V38.63H45.0333V37.68H45.7033V36.07H46.7033V37.68H47.9433ZM49.8222 42H48.8222V36.02H49.8222V37.9C50.0755 37.72 50.2722 37.63 50.4122 37.63H51.2022C51.4422 37.63 51.6522 37.6967 51.8322 37.83C52.0122 37.97 52.1722 38.13 52.3122 38.31C52.4455 38.49 52.5122 38.7 52.5122 38.94V42H51.5122V38.98C51.5122 38.9133 51.4622 38.83 51.3622 38.73C51.2622 38.63 51.1789 38.58 51.1122 38.58H50.4322C50.3722 38.58 50.2722 38.6333 50.1322 38.74C49.9922 38.8467 49.8889 38.94 49.8222 39.02V42Z" fill="#5F6B7C"/>
<path d="M121.793 244.266V243.239H124.51V251H123.444V244.266H121.793ZM133.666 251.065H131.417C130.975 251.065 130.528 250.801 130.078 250.272C129.878 250.038 129.722 249.804 129.61 249.57L130.663 249.297C131.001 249.8 131.265 250.051 131.456 250.051H133.64C133.726 250.051 133.882 249.938 134.108 249.713C134.333 249.496 134.446 249.34 134.446 249.245V248.439C134.446 248.222 134.35 248.088 134.16 248.036L130.702 247.061C130.416 246.983 130.19 246.823 130.026 246.58C129.861 246.329 129.779 246.051 129.779 245.748V245.02C129.779 244.673 129.883 244.383 130.091 244.149C130.281 243.924 130.463 243.733 130.637 243.577C130.94 243.308 131.269 243.174 131.625 243.174H133.562C134.012 243.174 134.459 243.438 134.901 243.967C135.1 244.201 135.256 244.435 135.369 244.669L134.316 244.955C134.203 244.764 134.064 244.591 133.9 244.435C133.744 244.279 133.622 244.201 133.536 244.201H131.638C131.542 244.201 131.386 244.309 131.17 244.526C130.953 244.743 130.845 244.899 130.845 244.994V245.683C130.845 245.9 130.931 246.034 131.105 246.086L134.589 247.074C134.875 247.152 135.1 247.317 135.265 247.568C135.429 247.811 135.512 248.079 135.512 248.374V249.219C135.512 249.566 135.408 249.856 135.2 250.09C134.948 250.359 134.762 250.549 134.641 250.662C134.346 250.931 134.021 251.065 133.666 251.065ZM141.63 246.97V248.686H137.938V249.414C137.938 249.544 138.02 249.691 138.185 249.856C138.358 250.021 138.505 250.103 138.627 250.103H140.018C140.061 250.103 140.104 250.094 140.148 250.077C140.2 250.051 140.252 250.012 140.304 249.96C140.356 249.899 140.395 249.856 140.421 249.83C140.447 249.804 140.49 249.748 140.551 249.661C140.62 249.574 140.659 249.527 140.668 249.518L141.604 249.817C141.162 250.649 140.629 251.065 140.005 251.065H138.575C138.271 251.065 138.011 250.991 137.795 250.844C137.708 250.783 137.595 250.684 137.457 250.545C137.318 250.398 137.218 250.281 137.158 250.194C137.002 249.977 136.924 249.722 136.924 249.427V246.97C136.924 246.667 137.002 246.411 137.158 246.203C137.218 246.116 137.318 246.004 137.457 245.865C137.595 245.718 137.708 245.614 137.795 245.553C138.011 245.406 138.271 245.332 138.575 245.332H139.992C140.286 245.332 140.542 245.406 140.759 245.553C140.845 245.614 140.958 245.718 141.097 245.865C141.244 246.004 141.348 246.116 141.409 246.203C141.556 246.411 141.63 246.667 141.63 246.97ZM138.627 246.294C138.497 246.294 138.349 246.376 138.185 246.541C138.02 246.706 137.938 246.853 137.938 246.983V247.763H140.616V246.983C140.616 246.853 140.533 246.706 140.369 246.541C140.213 246.376 140.065 246.294 139.927 246.294H138.627ZM144.2 253.119H143.186V246.45L143.069 245.397H144.07L144.148 245.865C144.538 245.51 144.867 245.332 145.136 245.332H146.241C146.527 245.332 146.783 245.406 147.008 245.553C147.095 245.614 147.207 245.718 147.346 245.865C147.493 246.004 147.597 246.116 147.658 246.203C147.805 246.411 147.879 246.667 147.879 246.97V249.427C147.879 249.713 147.805 249.969 147.658 250.194C147.597 250.281 147.493 250.398 147.346 250.545C147.207 250.684 147.095 250.783 147.008 250.844C146.783 250.991 146.527 251.065 146.241 251.065H145.136C144.859 251.065 144.547 250.9 144.2 250.571V253.119ZM145.162 250.103H146.176C146.306 250.103 146.453 250.021 146.618 249.856C146.783 249.691 146.865 249.544 146.865 249.414V246.983C146.865 246.853 146.783 246.706 146.618 246.541C146.462 246.376 146.315 246.294 146.176 246.294H145.175C145.062 246.294 144.893 246.381 144.668 246.554C144.443 246.727 144.287 246.883 144.2 247.022V249.362C144.295 249.501 144.456 249.661 144.681 249.843C144.906 250.016 145.067 250.103 145.162 250.103ZM150.784 250.012L150.329 252.092H149.211L149.692 249.856L150.784 250.012ZM155.448 244.266V243.239H158.165V251H157.099V244.266H155.448ZM160.399 244.266V243.239H163.116V251H162.05V244.266H160.399ZM166.781 247.542H165.468V246.177H166.781V247.542ZM166.781 251H165.468V249.622H166.781V251ZM173.14 247.126C173.296 247.334 173.374 247.59 173.374 247.893V249.427C173.374 249.722 173.296 249.977 173.14 250.194C173.08 250.281 172.98 250.398 172.841 250.545C172.703 250.684 172.59 250.783 172.503 250.844C172.278 250.991 172.018 251.065 171.723 251.065H170.098C169.639 251.065 169.193 250.801 168.759 250.272C168.543 250.029 168.387 249.795 168.291 249.57L169.344 249.297C169.466 249.488 169.604 249.661 169.76 249.817C169.916 249.973 170.038 250.051 170.124 250.051H171.619C171.749 250.051 171.897 249.969 172.061 249.804C172.226 249.631 172.308 249.483 172.308 249.362V247.958C172.308 247.828 172.226 247.681 172.061 247.516C171.897 247.351 171.749 247.269 171.619 247.269H168.629V243.239H173.023V244.266H169.695V246.255H171.723C172.018 246.255 172.278 246.329 172.503 246.476C172.59 246.537 172.703 246.641 172.841 246.788C172.98 246.927 173.08 247.039 173.14 247.126ZM179.526 247.126C179.682 247.334 179.76 247.59 179.76 247.893V249.427C179.76 249.722 179.682 249.977 179.526 250.194C179.465 250.281 179.366 250.398 179.227 250.545C179.088 250.684 178.976 250.783 178.889 250.844C178.664 250.991 178.404 251.065 178.109 251.065H176.484C176.025 251.065 175.578 250.801 175.145 250.272C174.928 250.029 174.772 249.795 174.677 249.57L175.73 249.297C175.851 249.488 175.99 249.661 176.146 249.817C176.302 249.973 176.423 250.051 176.51 250.051H178.005C178.135 250.051 178.282 249.969 178.447 249.804C178.612 249.631 178.694 249.483 178.694 249.362V247.958C178.694 247.828 178.612 247.681 178.447 247.516C178.282 247.351 178.135 247.269 178.005 247.269H175.015V243.239H179.409V244.266H176.081V246.255H178.109C178.404 246.255 178.664 246.329 178.889 246.476C178.976 246.537 179.088 246.641 179.227 246.788C179.366 246.927 179.465 247.039 179.526 247.126ZM188.738 246.97V249.947L188.855 251H187.854L187.776 250.558C187.378 250.896 187.061 251.065 186.827 251.065H185.631C185.328 251.065 185.072 250.991 184.864 250.844C184.778 250.783 184.661 250.684 184.513 250.545C184.375 250.398 184.275 250.281 184.214 250.194C184.067 249.969 183.993 249.713 183.993 249.427V249.284C183.993 248.989 184.067 248.729 184.214 248.504C184.275 248.417 184.375 248.305 184.513 248.166C184.661 248.027 184.778 247.928 184.864 247.867C185.072 247.711 185.328 247.633 185.631 247.633H187.724V246.983C187.724 246.853 187.642 246.706 187.477 246.541C187.321 246.376 187.174 246.294 187.035 246.294H185.774C185.618 246.294 185.393 246.485 185.098 246.866L184.149 246.567C184.609 245.744 185.155 245.332 185.787 245.332H187.1C187.395 245.332 187.651 245.406 187.867 245.553C187.954 245.614 188.067 245.718 188.205 245.865C188.353 246.004 188.457 246.116 188.517 246.203C188.665 246.411 188.738 246.667 188.738 246.97ZM185.683 250.129H186.762C186.858 250.129 187.022 250.047 187.256 249.882C187.49 249.709 187.646 249.561 187.724 249.44V248.556H185.683C185.553 248.556 185.406 248.638 185.241 248.803C185.085 248.959 185.007 249.102 185.007 249.232V249.44C185.007 249.579 185.09 249.726 185.254 249.882C185.419 250.047 185.562 250.129 185.683 250.129ZM197.757 246.203C197.904 246.411 197.978 246.667 197.978 246.97V251H196.964V246.983C196.964 246.853 196.881 246.706 196.717 246.541C196.561 246.376 196.413 246.294 196.275 246.294H195.664C195.395 246.294 195.083 246.515 194.728 246.957V251H193.714V246.983C193.714 246.844 193.631 246.697 193.467 246.541C193.311 246.376 193.168 246.294 193.038 246.294H192.414C192.266 246.294 192.102 246.368 191.92 246.515C191.738 246.654 191.586 246.801 191.465 246.957V251H190.451V246.437L190.334 245.397H191.322L191.413 245.852C191.82 245.505 192.141 245.332 192.375 245.332H193.09C193.393 245.332 193.649 245.406 193.857 245.553C193.943 245.614 194.117 245.774 194.377 246.034C194.914 245.566 195.33 245.332 195.625 245.332H196.34C196.626 245.332 196.881 245.406 197.107 245.553C197.193 245.614 197.306 245.718 197.445 245.865C197.592 246.004 197.696 246.116 197.757 246.203Z" fill="#16181C"/>
<path d="M124.62 264.05H122.92C122.527 264.05 122.147 263.83 121.78 263.39C121.613 263.197 121.497 263.013 121.43 262.84L122.46 262.57C122.553 262.71 122.647 262.827 122.74 262.92C122.84 263.007 122.913 263.05 122.96 263.05H124.6C124.64 263.05 124.73 262.98 124.87 262.84C125.01 262.7 125.08 262.61 125.08 262.57V261.98C125.08 261.88 125.04 261.823 124.96 261.81L122.36 261.07C122.113 261.003 121.92 260.867 121.78 260.66C121.647 260.453 121.58 260.227 121.58 259.98V259.48C121.58 259.193 121.66 258.957 121.82 258.77C121.98 258.583 122.13 258.427 122.27 258.3C122.51 258.08 122.783 257.97 123.09 257.97H124.55C124.943 257.97 125.323 258.19 125.69 258.63C125.857 258.823 125.973 259.007 126.04 259.18L125.01 259.45C124.923 259.31 124.83 259.197 124.73 259.11C124.63 259.017 124.56 258.97 124.52 258.97H123.11C123.07 258.97 122.98 259.04 122.84 259.18C122.7 259.32 122.63 259.41 122.63 259.45V259.92C122.63 260.02 122.667 260.077 122.74 260.09L125.35 260.85C125.597 260.923 125.787 261.063 125.92 261.27C126.06 261.477 126.13 261.7 126.13 261.94V262.54C126.13 262.827 126.05 263.063 125.89 263.25C125.73 263.437 125.58 263.593 125.44 263.72C125.2 263.94 124.927 264.05 124.62 264.05ZM129.734 259.68V260.63H128.494V262.65C128.494 262.717 128.544 262.8 128.644 262.9C128.744 263 128.828 263.05 128.894 263.05H129.574V264H128.804C128.564 264 128.354 263.933 128.174 263.8C127.994 263.66 127.834 263.5 127.694 263.32C127.561 263.14 127.494 262.93 127.494 262.69V260.63H126.824V259.68H127.494V258.07H128.494V259.68H129.734ZM134.293 260.94V262.31H131.533V262.71C131.533 262.777 131.583 262.86 131.683 262.96C131.783 263.06 131.867 263.11 131.933 263.11H132.983C133.003 263.11 133.027 263.103 133.053 263.09C133.08 263.07 133.107 263.043 133.133 263.01C133.167 262.977 133.193 262.947 133.213 262.92C133.233 262.893 133.26 262.86 133.293 262.82C133.327 262.773 133.35 262.74 133.363 262.72L134.293 263C134.147 263.287 133.957 263.533 133.723 263.74C133.49 263.947 133.237 264.05 132.963 264.05H131.843C131.603 264.05 131.393 263.983 131.213 263.85C131.033 263.71 130.873 263.55 130.733 263.37C130.6 263.19 130.533 262.98 130.533 262.74V260.94C130.533 260.7 130.6 260.49 130.733 260.31C130.873 260.13 131.033 259.97 131.213 259.83C131.393 259.697 131.603 259.63 131.843 259.63H132.983C133.223 259.63 133.433 259.697 133.613 259.83C133.793 259.97 133.953 260.13 134.093 260.31C134.227 260.49 134.293 260.7 134.293 260.94ZM131.933 260.57C131.867 260.57 131.783 260.62 131.683 260.72C131.583 260.82 131.533 260.903 131.533 260.97V261.44H133.293V260.97C133.293 260.903 133.243 260.82 133.143 260.72C133.043 260.62 132.96 260.57 132.893 260.57H131.933ZM136.879 262.6L137.899 259.68H138.969L137.409 264H136.349L134.779 259.68H135.879L136.879 262.6ZM143.219 260.94V262.31H140.459V262.71C140.459 262.777 140.509 262.86 140.609 262.96C140.709 263.06 140.792 263.11 140.859 263.11H141.909C141.929 263.11 141.952 263.103 141.979 263.09C142.006 263.07 142.032 263.043 142.059 263.01C142.092 262.977 142.119 262.947 142.139 262.92C142.159 262.893 142.186 262.86 142.219 262.82C142.252 262.773 142.276 262.74 142.289 262.72L143.219 263C143.072 263.287 142.882 263.533 142.649 263.74C142.416 263.947 142.162 264.05 141.889 264.05H140.769C140.529 264.05 140.319 263.983 140.139 263.85C139.959 263.71 139.799 263.55 139.659 263.37C139.526 263.19 139.459 262.98 139.459 262.74V260.94C139.459 260.7 139.526 260.49 139.659 260.31C139.799 260.13 139.959 259.97 140.139 259.83C140.319 259.697 140.529 259.63 140.769 259.63H141.909C142.149 259.63 142.359 259.697 142.539 259.83C142.719 259.97 142.879 260.13 143.019 260.31C143.152 260.49 143.219 260.7 143.219 260.94ZM140.859 260.57C140.792 260.57 140.709 260.62 140.609 260.72C140.509 260.82 140.459 260.903 140.459 260.97V261.44H142.219V260.97C142.219 260.903 142.169 260.82 142.069 260.72C141.969 260.62 141.886 260.57 141.819 260.57H140.859ZM147.825 260.31C147.958 260.49 148.025 260.7 148.025 260.94V264H147.025V260.98C147.025 260.913 146.975 260.83 146.875 260.73C146.775 260.63 146.692 260.58 146.625 260.58H145.925C145.785 260.58 145.588 260.717 145.335 260.99V264H144.335V260.57L144.235 259.68H145.205L145.265 259.94C145.552 259.733 145.762 259.63 145.895 259.63H146.715C146.955 259.63 147.165 259.697 147.345 259.83C147.525 259.97 147.685 260.13 147.825 260.31ZM154.571 264.05H152.871C152.478 264.05 152.098 263.83 151.731 263.39C151.565 263.197 151.448 263.013 151.381 262.84L152.411 262.57C152.505 262.71 152.598 262.827 152.691 262.92C152.791 263.007 152.865 263.05 152.911 263.05H154.551C154.591 263.05 154.681 262.98 154.821 262.84C154.961 262.7 155.031 262.61 155.031 262.57V261.98C155.031 261.88 154.991 261.823 154.911 261.81L152.311 261.07C152.065 261.003 151.871 260.867 151.731 260.66C151.598 260.453 151.531 260.227 151.531 259.98V259.48C151.531 259.193 151.611 258.957 151.771 258.77C151.931 258.583 152.081 258.427 152.221 258.3C152.461 258.08 152.735 257.97 153.041 257.97H154.501C154.895 257.97 155.275 258.19 155.641 258.63C155.808 258.823 155.925 259.007 155.991 259.18L154.961 259.45C154.875 259.31 154.781 259.197 154.681 259.11C154.581 259.017 154.511 258.97 154.471 258.97H153.061C153.021 258.97 152.931 259.04 152.791 259.18C152.651 259.32 152.581 259.41 152.581 259.45V259.92C152.581 260.02 152.618 260.077 152.691 260.09L155.301 260.85C155.548 260.923 155.738 261.063 155.871 261.27C156.011 261.477 156.081 261.7 156.081 261.94V262.54C156.081 262.827 156.001 263.063 155.841 263.25C155.681 263.437 155.531 263.593 155.391 263.72C155.151 263.94 154.878 264.05 154.571 264.05ZM162.935 260.31C163.069 260.49 163.135 260.7 163.135 260.94V264H162.135V260.98C162.135 260.913 162.085 260.83 161.985 260.73C161.885 260.63 161.802 260.58 161.735 260.58H161.275C161.115 260.58 160.922 260.71 160.695 260.97V264H159.695V260.98C159.695 260.913 159.645 260.83 159.545 260.73C159.445 260.63 159.362 260.58 159.295 260.58H158.815C158.649 260.58 158.452 260.71 158.225 260.97V264H157.225V260.57L157.125 259.68H158.095L158.155 259.94C158.429 259.733 158.639 259.63 158.785 259.63H159.385C159.625 259.63 159.835 259.697 160.015 259.83C160.062 259.863 160.162 259.957 160.315 260.11C160.729 259.79 161.039 259.63 161.245 259.63H161.825C162.065 259.63 162.275 259.697 162.455 259.83C162.635 259.97 162.795 260.13 162.935 260.31ZM165.315 259.07H164.245V258H165.315V259.07ZM165.285 264H164.285V259.68H165.285V264ZM168.943 259.68V260.63H167.703V262.65C167.703 262.717 167.753 262.8 167.853 262.9C167.953 263 168.037 263.05 168.103 263.05H168.783V264H168.013C167.773 264 167.563 263.933 167.383 263.8C167.203 263.66 167.043 263.5 166.903 263.32C166.77 263.14 166.703 262.93 166.703 262.69V260.63H166.033V259.68H166.703V258.07H167.703V259.68H168.943ZM170.822 264H169.822V258.02H170.822V259.9C171.076 259.72 171.272 259.63 171.412 259.63H172.202C172.442 259.63 172.652 259.697 172.832 259.83C173.012 259.97 173.172 260.13 173.312 260.31C173.446 260.49 173.512 260.7 173.512 260.94V264H172.512V260.98C172.512 260.913 172.462 260.83 172.362 260.73C172.262 260.63 172.179 260.58 172.112 260.58H171.432C171.372 260.58 171.272 260.633 171.132 260.74C170.992 260.847 170.889 260.94 170.822 261.02V264Z" fill="#5F6B7C"/>
<g filter="url(#filter2_d_4660_48653)">
<circle cx="352" cy="67" r="3" fill="white"/>
</g>
<g filter="url(#filter3_d_4660_48653)">
<circle cx="246" cy="317" r="3" fill="white"/>
</g>
<g filter="url(#filter4_d_4660_48653)">
<circle cx="78" cy="87" r="3" fill="white"/>
</g>
<path d="M262.059 60.074L259.446 61.452C259.246 61.556 259.147 61.7033 259.147 61.894V62.986H262.891V64H258.081V61.829C258.081 61.283 258.38 60.854 258.978 60.542L261.617 59.151C261.79 59.073 261.877 58.9343 261.877 58.735V57.877C261.877 57.747 261.794 57.5997 261.63 57.435C261.474 57.279 261.331 57.201 261.201 57.201H259.745C259.667 57.201 259.545 57.279 259.381 57.435C259.225 57.591 259.09 57.7643 258.978 57.955L257.925 57.669C258.029 57.4523 258.18 57.2183 258.38 56.967C258.83 56.4383 259.281 56.174 259.732 56.174H261.305C261.608 56.174 261.864 56.252 262.072 56.408C262.158 56.4687 262.271 56.5683 262.41 56.707C262.557 56.8457 262.661 56.9583 262.722 57.045C262.869 57.2703 262.943 57.5303 262.943 57.825V58.761C262.943 59.3417 262.648 59.7793 262.059 60.074ZM267.989 64.065H266.156C265.852 64.065 265.597 63.9913 265.389 63.844C265.302 63.7833 265.185 63.6837 265.038 63.545C264.899 63.3977 264.799 63.2807 264.739 63.194C264.591 62.986 264.518 62.7303 264.518 62.427V57.825C264.518 57.5303 264.591 57.2703 264.739 57.045C264.799 56.9583 264.899 56.8457 265.038 56.707C265.185 56.5683 265.302 56.4687 265.389 56.408C265.597 56.252 265.852 56.174 266.156 56.174H267.989C268.292 56.174 268.552 56.252 268.769 56.408C268.855 56.4687 268.968 56.5683 269.107 56.707C269.245 56.8457 269.345 56.9583 269.406 57.045C269.562 57.2617 269.64 57.5217 269.64 57.825V62.427C269.64 62.7303 269.562 62.986 269.406 63.194C269.345 63.2807 269.245 63.3977 269.107 63.545C268.968 63.6837 268.855 63.7833 268.769 63.844C268.543 63.9913 268.283 64.065 267.989 64.065ZM265.584 57.877V62.362C265.584 62.5007 265.666 62.648 265.831 62.804C265.987 62.9687 266.13 63.051 266.26 63.051H267.885C268.015 63.051 268.162 62.9687 268.327 62.804C268.491 62.6393 268.574 62.492 268.574 62.362V57.877C268.574 57.7557 268.491 57.6083 268.327 57.435C268.162 57.279 268.015 57.201 267.885 57.201H266.26C266.13 57.201 265.982 57.2833 265.818 57.448C265.662 57.604 265.584 57.747 265.584 57.877ZM278.374 56.239V62.232C278.374 62.5787 278.27 62.869 278.062 63.103C277.872 63.3283 277.69 63.519 277.516 63.675C277.23 63.935 276.901 64.065 276.528 64.065H275.592C275.133 64.065 274.687 63.8007 274.253 63.272C274.054 63.038 273.898 62.804 273.785 62.57L274.838 62.297C274.96 62.4877 275.098 62.661 275.254 62.817C275.41 62.973 275.532 63.051 275.618 63.051H276.515C276.602 63.051 276.758 62.9383 276.983 62.713C277.2 62.4963 277.308 62.3403 277.308 62.245V56.239H278.374ZM284.839 64H283.851L283.773 63.532C283.365 63.8873 283.04 64.065 282.798 64.065H281.745C281.45 64.065 281.194 63.9913 280.978 63.844C280.891 63.7833 280.774 63.6837 280.627 63.545C280.488 63.3977 280.388 63.2807 280.328 63.194C280.18 62.9687 280.107 62.713 280.107 62.427V58.397H281.121V62.414C281.121 62.544 281.203 62.6913 281.368 62.856C281.532 63.0207 281.68 63.103 281.81 63.103H282.759C282.897 63.103 283.071 63.0207 283.279 62.856C283.487 62.6827 283.63 62.531 283.708 62.401V58.397H284.722V62.947L284.839 64ZM287.535 64H286.508C286.491 63.9047 286.465 63.753 286.43 63.545C286.404 63.3283 286.382 63.1723 286.365 63.077V56.239H287.379V62.934C287.396 63.0727 287.448 63.428 287.535 64ZM290.448 63.012L289.993 65.092H288.875L289.356 62.856L290.448 63.012ZM298.622 64.065H296.789C296.486 64.065 296.23 63.9913 296.022 63.844C295.936 63.7833 295.819 63.6837 295.671 63.545C295.533 63.3977 295.433 63.2807 295.372 63.194C295.225 62.986 295.151 62.7303 295.151 62.427V57.825C295.151 57.5303 295.225 57.2703 295.372 57.045C295.433 56.9583 295.533 56.8457 295.671 56.707C295.819 56.5683 295.936 56.4687 296.022 56.408C296.23 56.252 296.486 56.174 296.789 56.174H298.622C298.926 56.174 299.186 56.252 299.402 56.408C299.489 56.4687 299.602 56.5683 299.74 56.707C299.879 56.8457 299.979 56.9583 300.039 57.045C300.195 57.2617 300.273 57.5217 300.273 57.825V62.427C300.273 62.7303 300.195 62.986 300.039 63.194C299.979 63.2807 299.879 63.3977 299.74 63.545C299.602 63.6837 299.489 63.7833 299.402 63.844C299.177 63.9913 298.917 64.065 298.622 64.065ZM296.217 57.877V62.362C296.217 62.5007 296.3 62.648 296.464 62.804C296.62 62.9687 296.763 63.051 296.893 63.051H298.518C298.648 63.051 298.796 62.9687 298.96 62.804C299.125 62.6393 299.207 62.492 299.207 62.362V57.877C299.207 57.7557 299.125 57.6083 298.96 57.435C298.796 57.279 298.648 57.201 298.518 57.201H296.893C296.763 57.201 296.616 57.2833 296.451 57.448C296.295 57.604 296.217 57.747 296.217 57.877ZM301.892 57.266V56.239H304.609V64H303.543V57.266H301.892ZM308.273 60.542H306.96V59.177H308.273V60.542ZM308.273 64H306.96V62.622H308.273V64ZM313.489 64.065H311.656C311.352 64.065 311.097 63.9913 310.889 63.844C310.802 63.7833 310.685 63.6837 310.538 63.545C310.399 63.3977 310.299 63.2807 310.239 63.194C310.091 62.986 310.018 62.7303 310.018 62.427V57.825C310.018 57.5303 310.091 57.2703 310.239 57.045C310.299 56.9583 310.399 56.8457 310.538 56.707C310.685 56.5683 310.802 56.4687 310.889 56.408C311.097 56.252 311.352 56.174 311.656 56.174H313.489C313.792 56.174 314.052 56.252 314.269 56.408C314.355 56.4687 314.468 56.5683 314.607 56.707C314.745 56.8457 314.845 56.9583 314.906 57.045C315.062 57.2617 315.14 57.5217 315.14 57.825V62.427C315.14 62.7303 315.062 62.986 314.906 63.194C314.845 63.2807 314.745 63.3977 314.607 63.545C314.468 63.6837 314.355 63.7833 314.269 63.844C314.043 63.9913 313.783 64.065 313.489 64.065ZM311.084 57.877V62.362C311.084 62.5007 311.166 62.648 311.331 62.804C311.487 62.9687 311.63 63.051 311.76 63.051H313.385C313.515 63.051 313.662 62.9687 313.827 62.804C313.991 62.6393 314.074 62.492 314.074 62.362V57.877C314.074 57.7557 313.991 57.6083 313.827 57.435C313.662 57.279 313.515 57.201 313.385 57.201H311.76C311.63 57.201 311.482 57.2833 311.318 57.448C311.162 57.604 311.084 57.747 311.084 57.877ZM321.477 57.045C321.624 57.2703 321.698 57.5303 321.698 57.825V62.427C321.698 62.713 321.624 62.9687 321.477 63.194C321.416 63.2807 321.312 63.3977 321.165 63.545C321.026 63.6837 320.914 63.7833 320.827 63.844C320.602 63.9913 320.346 64.065 320.06 64.065H318.487C318.036 64.065 317.586 63.8007 317.135 63.272C316.918 63.0207 316.767 62.7867 316.68 62.57L317.733 62.297C317.837 62.479 317.971 62.6523 318.136 62.817C318.301 62.973 318.426 63.051 318.513 63.051H319.943C320.073 63.051 320.22 62.9687 320.385 62.804C320.55 62.6393 320.632 62.492 320.632 62.362V60.62C320.285 60.9667 319.982 61.14 319.722 61.14H318.305C318.01 61.14 317.75 61.0663 317.525 60.919C317.438 60.8583 317.326 60.7587 317.187 60.62C317.048 60.4727 316.949 60.3557 316.888 60.269C316.732 60.061 316.654 59.8053 316.654 59.502V57.825C316.654 57.5217 316.732 57.2617 316.888 57.045C316.949 56.9583 317.048 56.8457 317.187 56.707C317.326 56.5683 317.438 56.4687 317.525 56.408C317.742 56.252 318.002 56.174 318.305 56.174H320.06C320.355 56.174 320.61 56.252 320.827 56.408C320.914 56.4687 321.026 56.5683 321.165 56.707C321.312 56.8457 321.416 56.9583 321.477 57.045ZM318.422 60.139H319.722C319.973 60.139 320.277 59.8963 320.632 59.411V57.877C320.632 57.7557 320.55 57.6083 320.385 57.435C320.229 57.279 320.082 57.201 319.943 57.201H318.422C318.283 57.201 318.136 57.2833 317.98 57.448C317.815 57.604 317.733 57.747 317.733 57.877V59.463C317.733 59.5843 317.815 59.7317 317.98 59.905C318.136 60.061 318.283 60.139 318.422 60.139ZM327.422 66.119H326.408V59.45L326.291 58.397H327.292L327.37 58.865C327.76 58.5097 328.089 58.332 328.358 58.332H329.463C329.749 58.332 330.004 58.4057 330.23 58.553C330.316 58.6137 330.429 58.7177 330.568 58.865C330.715 59.0037 330.819 59.1163 330.88 59.203C331.027 59.411 331.101 59.6667 331.101 59.97V62.427C331.101 62.713 331.027 62.9687 330.88 63.194C330.819 63.2807 330.715 63.3977 330.568 63.545C330.429 63.6837 330.316 63.7833 330.23 63.844C330.004 63.9913 329.749 64.065 329.463 64.065H328.358C328.08 64.065 327.768 63.9003 327.422 63.571V66.119ZM328.384 63.103H329.398C329.528 63.103 329.675 63.0207 329.84 62.856C330.004 62.6913 330.087 62.544 330.087 62.414V59.983C330.087 59.853 330.004 59.7057 329.84 59.541C329.684 59.3763 329.536 59.294 329.398 59.294H328.397C328.284 59.294 328.115 59.3807 327.89 59.554C327.664 59.7273 327.508 59.8833 327.422 60.022V62.362C327.517 62.5007 327.677 62.661 327.903 62.843C328.128 63.0163 328.288 63.103 328.384 63.103ZM339.973 59.203C340.12 59.411 340.194 59.6667 340.194 59.97V64H339.18V59.983C339.18 59.853 339.097 59.7057 338.933 59.541C338.777 59.3763 338.629 59.294 338.491 59.294H337.88C337.611 59.294 337.299 59.515 336.944 59.957V64H335.93V59.983C335.93 59.8443 335.847 59.697 335.683 59.541C335.527 59.3763 335.384 59.294 335.254 59.294H334.63C334.482 59.294 334.318 59.3677 334.136 59.515C333.954 59.6537 333.802 59.801 333.681 59.957V64H332.667V59.437L332.55 58.397H333.538L333.629 58.852C334.036 58.5053 334.357 58.332 334.591 58.332H335.306C335.609 58.332 335.865 58.4057 336.073 58.553C336.159 58.6137 336.333 58.774 336.593 59.034C337.13 58.566 337.546 58.332 337.841 58.332H338.556C338.842 58.332 339.097 58.4057 339.323 58.553C339.409 58.6137 339.522 58.7177 339.661 58.865C339.808 59.0037 339.912 59.1163 339.973 59.203Z" fill="#16181C"/>
<path d="M288.909 77H287.789L287.369 75.73H285.059L284.639 77H283.519L285.579 71.02H286.859L288.909 77ZM286.219 72.23L285.389 74.73H287.039L286.219 72.23ZM295.23 73.31C295.364 73.49 295.43 73.7 295.43 73.94V77H294.43V73.98C294.43 73.9133 294.38 73.83 294.28 73.73C294.18 73.63 294.097 73.58 294.03 73.58H293.57C293.41 73.58 293.217 73.71 292.99 73.97V77H291.99V73.98C291.99 73.9133 291.94 73.83 291.84 73.73C291.74 73.63 291.657 73.58 291.59 73.58H291.11C290.944 73.58 290.747 73.71 290.52 73.97V77H289.52V73.57L289.42 72.68H290.39L290.45 72.94C290.724 72.7333 290.934 72.63 291.08 72.63H291.68C291.92 72.63 292.13 72.6967 292.31 72.83C292.357 72.8633 292.457 72.9567 292.61 73.11C293.024 72.79 293.334 72.63 293.54 72.63H294.12C294.36 72.63 294.57 72.6967 294.75 72.83C294.93 72.97 295.09 73.13 295.23 73.31ZM300.11 73.94V76.12L300.19 77H299.2L299.16 76.77C298.9 76.9567 298.697 77.05 298.55 77.05H297.63C297.39 77.05 297.18 76.9833 297 76.85C296.82 76.71 296.66 76.55 296.52 76.37C296.387 76.19 296.32 75.98 296.32 75.74V75.66C296.32 75.42 296.387 75.21 296.52 75.03C296.66 74.85 296.82 74.69 297 74.55C297.18 74.4167 297.39 74.35 297.63 74.35H299.11V73.98C299.11 73.9133 299.06 73.83 298.96 73.73C298.86 73.63 298.777 73.58 298.71 73.58H297.77C297.71 73.58 297.58 73.7067 297.38 73.96L296.45 73.68C296.597 73.3933 296.787 73.1467 297.02 72.94C297.253 72.7333 297.507 72.63 297.78 72.63H298.8C299.04 72.63 299.25 72.6967 299.43 72.83C299.61 72.97 299.77 73.13 299.91 73.31C300.043 73.49 300.11 73.7 300.11 73.94ZM297.72 76.14H298.52C298.567 76.14 298.663 76.0867 298.81 75.98C298.963 75.8733 299.063 75.7933 299.11 75.74V75.2H297.72C297.653 75.2 297.57 75.25 297.47 75.35C297.37 75.45 297.32 75.5333 297.32 75.6V75.74C297.32 75.8067 297.37 75.89 297.47 75.99C297.57 76.09 297.653 76.14 297.72 76.14ZM304.817 73.31C304.95 73.49 305.017 73.7 305.017 73.94V77H304.017V73.98C304.017 73.9133 303.967 73.83 303.867 73.73C303.767 73.63 303.684 73.58 303.617 73.58H302.917C302.777 73.58 302.58 73.7167 302.327 73.99V77H301.327V73.57L301.227 72.68H302.197L302.257 72.94C302.544 72.7333 302.754 72.63 302.887 72.63H303.707C303.947 72.63 304.157 72.6967 304.337 72.83C304.517 72.97 304.677 73.13 304.817 73.31ZM308.26 77.05H307.4C307.16 77.05 306.95 76.9833 306.77 76.85C306.59 76.71 306.43 76.55 306.29 76.37C306.157 76.19 306.09 75.98 306.09 75.74V73.94C306.09 73.7 306.157 73.49 306.29 73.31C306.43 73.13 306.59 72.97 306.77 72.83C306.95 72.6967 307.16 72.63 307.4 72.63H308.26C308.4 72.63 308.597 72.72 308.85 72.9V71.02H309.85V76.11L309.93 77H308.95L308.9 76.74C308.633 76.9467 308.42 77.05 308.26 77.05ZM307.09 73.98V75.7C307.09 75.7667 307.14 75.85 307.24 75.95C307.34 76.05 307.423 76.1 307.49 76.1H308.23C308.283 76.1 308.38 76.05 308.52 75.95C308.66 75.8433 308.77 75.7467 308.85 75.66V74.02C308.77 73.9267 308.66 73.83 308.52 73.73C308.387 73.63 308.29 73.58 308.23 73.58H307.49C307.423 73.58 307.34 73.63 307.24 73.73C307.14 73.83 307.09 73.9133 307.09 73.98ZM314.563 73.94V76.12L314.643 77H313.653L313.613 76.77C313.353 76.9567 313.15 77.05 313.003 77.05H312.083C311.843 77.05 311.633 76.9833 311.453 76.85C311.273 76.71 311.113 76.55 310.973 76.37C310.84 76.19 310.773 75.98 310.773 75.74V75.66C310.773 75.42 310.84 75.21 310.973 75.03C311.113 74.85 311.273 74.69 311.453 74.55C311.633 74.4167 311.843 74.35 312.083 74.35H313.563V73.98C313.563 73.9133 313.513 73.83 313.413 73.73C313.313 73.63 313.23 73.58 313.163 73.58H312.223C312.163 73.58 312.033 73.7067 311.833 73.96L310.903 73.68C311.05 73.3933 311.24 73.1467 311.473 72.94C311.706 72.7333 311.96 72.63 312.233 72.63H313.253C313.493 72.63 313.703 72.6967 313.883 72.83C314.063 72.97 314.223 73.13 314.363 73.31C314.496 73.49 314.563 73.7 314.563 73.94ZM312.173 76.14H312.973C313.02 76.14 313.116 76.0867 313.263 75.98C313.416 75.8733 313.516 75.7933 313.563 75.74V75.2H312.173C312.106 75.2 312.023 75.25 311.923 75.35C311.823 75.45 311.773 75.5333 311.773 75.6V75.74C311.773 75.8067 311.823 75.89 311.923 75.99C312.023 76.09 312.106 76.14 312.173 76.14ZM322.404 72.33V73.15C322.404 73.4233 322.25 73.7133 321.944 74.02C322.057 74.1333 322.134 74.2167 322.174 74.27C322.22 74.3167 322.27 74.3967 322.324 74.51C322.377 74.6233 322.404 74.7467 322.404 74.88V75.69C322.404 75.93 322.337 76.14 322.204 76.32C322.064 76.5 321.904 76.66 321.724 76.8C321.544 76.9333 321.334 77 321.094 77H318.174V71.02H321.094C321.334 71.02 321.544 71.0867 321.724 71.22C321.904 71.36 322.064 71.52 322.204 71.7C322.337 71.88 322.404 72.09 322.404 72.33ZM321.354 73.13V72.42C321.354 72.3533 321.304 72.27 321.204 72.17C321.104 72.07 321.02 72.02 320.954 72.02H319.224V73.53H320.954C321.02 73.53 321.104 73.48 321.204 73.38C321.304 73.28 321.354 73.1967 321.354 73.13ZM321.354 75.6V74.9C321.354 74.8333 321.304 74.75 321.204 74.65C321.104 74.55 321.02 74.5 320.954 74.5H319.224V76H320.954C321.02 76 321.104 75.95 321.204 75.85C321.304 75.75 321.354 75.6667 321.354 75.6ZM326.433 72.79L326.123 73.63C326.057 73.5967 325.98 73.58 325.893 73.58H325.153C324.98 73.58 324.783 73.7167 324.563 73.99V77H323.563V73.57L323.463 72.68H324.423L324.483 72.94C324.75 72.7333 324.963 72.63 325.123 72.63H325.883C326.07 72.63 326.253 72.6833 326.433 72.79ZM330.637 73.94V76.12L330.717 77H329.727L329.687 76.77C329.427 76.9567 329.224 77.05 329.077 77.05H328.157C327.917 77.05 327.707 76.9833 327.527 76.85C327.347 76.71 327.187 76.55 327.047 76.37C326.914 76.19 326.847 75.98 326.847 75.74V75.66C326.847 75.42 326.914 75.21 327.047 75.03C327.187 74.85 327.347 74.69 327.527 74.55C327.707 74.4167 327.917 74.35 328.157 74.35H329.637V73.98C329.637 73.9133 329.587 73.83 329.487 73.73C329.387 73.63 329.304 73.58 329.237 73.58H328.297C328.237 73.58 328.107 73.7067 327.907 73.96L326.977 73.68C327.124 73.3933 327.314 73.1467 327.547 72.94C327.781 72.7333 328.034 72.63 328.307 72.63H329.327C329.567 72.63 329.777 72.6967 329.957 72.83C330.137 72.97 330.297 73.13 330.437 73.31C330.571 73.49 330.637 73.7 330.637 73.94ZM328.247 76.14H329.047C329.094 76.14 329.191 76.0867 329.337 75.98C329.491 75.8733 329.591 75.7933 329.637 75.74V75.2H328.247C328.181 75.2 328.097 75.25 327.997 75.35C327.897 75.45 327.847 75.5333 327.847 75.6V75.74C327.847 75.8067 327.897 75.89 327.997 75.99C328.097 76.09 328.181 76.14 328.247 76.14ZM335.594 77H334.624L334.574 76.74C334.288 76.9467 334.078 77.05 333.944 77.05H333.114C332.874 77.05 332.664 76.9833 332.484 76.85C332.304 76.71 332.144 76.55 332.004 76.37C331.871 76.19 331.804 75.98 331.804 75.74V72.68H332.804V75.7C332.804 75.7667 332.854 75.85 332.954 75.95C333.054 76.05 333.138 76.1 333.204 76.1H333.914C334.054 76.1 334.251 75.9633 334.504 75.69V72.68H335.504V76.11L335.594 77ZM340.227 73.31C340.361 73.49 340.427 73.7 340.427 73.94V77H339.427V73.98C339.427 73.9133 339.377 73.83 339.277 73.73C339.177 73.63 339.094 73.58 339.027 73.58H338.327C338.187 73.58 337.991 73.7167 337.737 73.99V77H336.737V73.57L336.637 72.68H337.607L337.667 72.94C337.954 72.7333 338.164 72.63 338.297 72.63H339.117C339.357 72.63 339.567 72.6967 339.747 72.83C339.927 72.97 340.087 73.13 340.227 73.31Z" fill="#5F6B7C"/>
<path d="M241.793 327.266V326.239H244.51V334H243.444V327.266H241.793ZM250.254 334.065H248.421C248.118 334.065 247.862 333.991 247.654 333.844C247.568 333.783 247.451 333.684 247.303 333.545C247.165 333.398 247.065 333.281 247.004 333.194C246.857 332.986 246.783 332.73 246.783 332.427V327.825C246.783 327.53 246.857 327.27 247.004 327.045C247.065 326.958 247.165 326.846 247.303 326.707C247.451 326.568 247.568 326.469 247.654 326.408C247.862 326.252 248.118 326.174 248.421 326.174H250.254C250.558 326.174 250.818 326.252 251.034 326.408C251.121 326.469 251.234 326.568 251.372 326.707C251.511 326.846 251.611 326.958 251.671 327.045C251.827 327.262 251.905 327.522 251.905 327.825V332.427C251.905 332.73 251.827 332.986 251.671 333.194C251.611 333.281 251.511 333.398 251.372 333.545C251.234 333.684 251.121 333.783 251.034 333.844C250.809 333.991 250.549 334.065 250.254 334.065ZM247.849 327.877V332.362C247.849 332.501 247.932 332.648 248.096 332.804C248.252 332.969 248.395 333.051 248.525 333.051H250.15C250.28 333.051 250.428 332.969 250.592 332.804C250.757 332.639 250.839 332.492 250.839 332.362V327.877C250.839 327.756 250.757 327.608 250.592 327.435C250.428 327.279 250.28 327.201 250.15 327.201H248.525C248.395 327.201 248.248 327.283 248.083 327.448C247.927 327.604 247.849 327.747 247.849 327.877ZM262.512 334H261.381L260.822 332.284H257.559L257 334H255.869L258.482 326.239H259.899L262.512 334ZM259.197 327.279L257.897 331.27H260.497L259.197 327.279ZM268.171 334H267.183L267.105 333.532C266.697 333.887 266.372 334.065 266.13 334.065H265.077C264.782 334.065 264.526 333.991 264.31 333.844C264.223 333.783 264.106 333.684 263.959 333.545C263.82 333.398 263.72 333.281 263.66 333.194C263.512 332.969 263.439 332.713 263.439 332.427V328.397H264.453V332.414C264.453 332.544 264.535 332.691 264.7 332.856C264.864 333.021 265.012 333.103 265.142 333.103H266.091C266.229 333.103 266.403 333.021 266.611 332.856C266.819 332.683 266.962 332.531 267.04 332.401V328.397H268.054V332.947L268.171 334ZM272.674 336.158H271.374C270.759 336.158 270.221 335.755 269.762 334.949L270.711 334.65C270.962 335.014 271.17 335.196 271.335 335.196H272.622C272.752 335.196 272.899 335.114 273.064 334.949C273.229 334.784 273.311 334.637 273.311 334.507V333.532C272.956 333.887 272.639 334.065 272.362 334.065H271.27C270.967 334.065 270.707 333.991 270.49 333.844C270.403 333.783 270.291 333.684 270.152 333.545C270.013 333.398 269.914 333.281 269.853 333.194C269.697 332.977 269.619 332.722 269.619 332.427V329.97C269.619 329.667 269.697 329.411 269.853 329.203C269.914 329.116 270.013 329.004 270.152 328.865C270.291 328.718 270.403 328.614 270.49 328.553C270.707 328.406 270.967 328.332 271.27 328.332H272.375C272.618 328.332 272.943 328.51 273.35 328.865L273.415 328.397H274.416L274.325 329.437V334.52C274.325 334.823 274.247 335.079 274.091 335.287C274.03 335.374 273.931 335.486 273.792 335.625C273.653 335.772 273.541 335.876 273.454 335.937C273.229 336.084 272.969 336.158 272.674 336.158ZM270.633 329.983V332.414C270.633 332.544 270.715 332.691 270.88 332.856C271.053 333.021 271.201 333.103 271.322 333.103H272.349C272.444 333.103 272.605 333.012 272.83 332.83C273.064 332.648 273.224 332.492 273.311 332.362V330.009C273.233 329.888 273.077 329.74 272.843 329.567C272.609 329.385 272.44 329.294 272.336 329.294H271.322C271.192 329.294 271.045 329.376 270.88 329.541C270.715 329.706 270.633 329.853 270.633 329.983ZM277.36 333.012L276.905 335.092H275.787L276.268 332.856L277.36 333.012ZM285.534 334.065H283.701C283.398 334.065 283.142 333.991 282.934 333.844C282.848 333.783 282.731 333.684 282.583 333.545C282.445 333.398 282.345 333.281 282.284 333.194C282.137 332.986 282.063 332.73 282.063 332.427V327.825C282.063 327.53 282.137 327.27 282.284 327.045C282.345 326.958 282.445 326.846 282.583 326.707C282.731 326.568 282.848 326.469 282.934 326.408C283.142 326.252 283.398 326.174 283.701 326.174H285.534C285.838 326.174 286.098 326.252 286.314 326.408C286.401 326.469 286.514 326.568 286.652 326.707C286.791 326.846 286.891 326.958 286.951 327.045C287.107 327.262 287.185 327.522 287.185 327.825V332.427C287.185 332.73 287.107 332.986 286.951 333.194C286.891 333.281 286.791 333.398 286.652 333.545C286.514 333.684 286.401 333.783 286.314 333.844C286.089 333.991 285.829 334.065 285.534 334.065ZM283.129 327.877V332.362C283.129 332.501 283.212 332.648 283.376 332.804C283.532 332.969 283.675 333.051 283.805 333.051H285.43C285.56 333.051 285.708 332.969 285.872 332.804C286.037 332.639 286.119 332.492 286.119 332.362V327.877C286.119 327.756 286.037 327.608 285.872 327.435C285.708 327.279 285.56 327.201 285.43 327.201H283.805C283.675 327.201 283.528 327.283 283.363 327.448C283.207 327.604 283.129 327.747 283.129 327.877ZM293.458 330.126C293.614 330.334 293.692 330.59 293.692 330.893V332.427C293.692 332.722 293.614 332.977 293.458 333.194C293.397 333.281 293.297 333.398 293.159 333.545C293.02 333.684 292.907 333.783 292.821 333.844C292.595 333.991 292.335 334.065 292.041 334.065H290.416C289.956 334.065 289.51 333.801 289.077 333.272C288.86 333.029 288.704 332.795 288.609 332.57L289.662 332.297C289.783 332.488 289.922 332.661 290.078 332.817C290.234 332.973 290.355 333.051 290.442 333.051H291.937C292.067 333.051 292.214 332.969 292.379 332.804C292.543 332.631 292.626 332.483 292.626 332.362V330.958C292.626 330.828 292.543 330.681 292.379 330.516C292.214 330.351 292.067 330.269 291.937 330.269H288.947V326.239H293.341V327.266H290.013V329.255H292.041C292.335 329.255 292.595 329.329 292.821 329.476C292.907 329.537 293.02 329.641 293.159 329.788C293.297 329.927 293.397 330.039 293.458 330.126ZM296.619 330.542H295.306V329.177H296.619V330.542ZM296.619 334H295.306V332.622H296.619V334ZM302.615 330.061C302.78 330.217 302.901 330.338 302.979 330.425C303.057 330.512 303.131 330.629 303.2 330.776C303.27 330.915 303.304 331.066 303.304 331.231V332.427C303.304 332.722 303.226 332.977 303.07 333.194C303.01 333.281 302.91 333.398 302.771 333.545C302.633 333.684 302.52 333.783 302.433 333.844C302.217 333.991 301.957 334.065 301.653 334.065H299.976C299.517 334.065 299.071 333.801 298.637 333.272C298.438 333.038 298.282 332.804 298.169 332.57L299.222 332.297C299.344 332.488 299.482 332.661 299.638 332.817C299.794 332.973 299.916 333.051 300.002 333.051H301.549C301.679 333.051 301.827 332.969 301.991 332.804C302.156 332.631 302.238 332.483 302.238 332.362V331.27C302.238 331.14 302.156 330.993 301.991 330.828C301.827 330.663 301.679 330.581 301.549 330.581H299.898V329.567H301.523C301.653 329.567 301.801 329.485 301.965 329.32C302.121 329.164 302.199 329.021 302.199 328.891V327.877C302.199 327.756 302.117 327.608 301.952 327.435C301.796 327.279 301.649 327.201 301.51 327.201H300.002C299.916 327.201 299.79 327.279 299.625 327.435C299.469 327.591 299.335 327.764 299.222 327.955L298.169 327.669C298.299 327.409 298.455 327.175 298.637 326.967C299.097 326.438 299.543 326.174 299.976 326.174H301.627C301.922 326.174 302.178 326.252 302.394 326.408C302.481 326.469 302.594 326.568 302.732 326.707C302.88 326.846 302.984 326.958 303.044 327.045C303.192 327.27 303.265 327.53 303.265 327.825V328.917C303.265 329.151 303.209 329.35 303.096 329.515C302.992 329.68 302.832 329.862 302.615 330.061ZM308.411 334.065H306.578C306.275 334.065 306.019 333.991 305.811 333.844C305.725 333.783 305.608 333.684 305.46 333.545C305.322 333.398 305.222 333.281 305.161 333.194C305.014 332.986 304.94 332.73 304.94 332.427V327.825C304.94 327.53 305.014 327.27 305.161 327.045C305.222 326.958 305.322 326.846 305.46 326.707C305.608 326.568 305.725 326.469 305.811 326.408C306.019 326.252 306.275 326.174 306.578 326.174H308.411C308.715 326.174 308.975 326.252 309.191 326.408C309.278 326.469 309.391 326.568 309.529 326.707C309.668 326.846 309.768 326.958 309.828 327.045C309.984 327.262 310.062 327.522 310.062 327.825V332.427C310.062 332.73 309.984 332.986 309.828 333.194C309.768 333.281 309.668 333.398 309.529 333.545C309.391 333.684 309.278 333.783 309.191 333.844C308.966 333.991 308.706 334.065 308.411 334.065ZM306.006 327.877V332.362C306.006 332.501 306.089 332.648 306.253 332.804C306.409 332.969 306.552 333.051 306.682 333.051H308.307C308.437 333.051 308.585 332.969 308.749 332.804C308.914 332.639 308.996 332.492 308.996 332.362V327.877C308.996 327.756 308.914 327.608 308.749 327.435C308.585 327.279 308.437 327.201 308.307 327.201H306.682C306.552 327.201 306.405 327.283 306.24 327.448C306.084 327.604 306.006 327.747 306.006 327.877ZM315.781 336.119H314.767V329.45L314.65 328.397H315.651L315.729 328.865C316.119 328.51 316.449 328.332 316.717 328.332H317.822C318.108 328.332 318.364 328.406 318.589 328.553C318.676 328.614 318.789 328.718 318.927 328.865C319.075 329.004 319.179 329.116 319.239 329.203C319.387 329.411 319.46 329.667 319.46 329.97V332.427C319.46 332.713 319.387 332.969 319.239 333.194C319.179 333.281 319.075 333.398 318.927 333.545C318.789 333.684 318.676 333.783 318.589 333.844C318.364 333.991 318.108 334.065 317.822 334.065H316.717C316.44 334.065 316.128 333.9 315.781 333.571V336.119ZM316.743 333.103H317.757C317.887 333.103 318.035 333.021 318.199 332.856C318.364 332.691 318.446 332.544 318.446 332.414V329.983C318.446 329.853 318.364 329.706 318.199 329.541C318.043 329.376 317.896 329.294 317.757 329.294H316.756C316.644 329.294 316.475 329.381 316.249 329.554C316.024 329.727 315.868 329.883 315.781 330.022V332.362C315.877 332.501 316.037 332.661 316.262 332.843C316.488 333.016 316.648 333.103 316.743 333.103ZM328.332 329.203C328.479 329.411 328.553 329.667 328.553 329.97V334H327.539V329.983C327.539 329.853 327.457 329.706 327.292 329.541C327.136 329.376 326.989 329.294 326.85 329.294H326.239C325.97 329.294 325.658 329.515 325.303 329.957V334H324.289V329.983C324.289 329.844 324.207 329.697 324.042 329.541C323.886 329.376 323.743 329.294 323.613 329.294H322.989C322.842 329.294 322.677 329.368 322.495 329.515C322.313 329.654 322.161 329.801 322.04 329.957V334H321.026V329.437L320.909 328.397H321.897L321.988 328.852C322.395 328.505 322.716 328.332 322.95 328.332H323.665C323.968 328.332 324.224 328.406 324.432 328.553C324.519 328.614 324.692 328.774 324.952 329.034C325.489 328.566 325.905 328.332 326.2 328.332H326.915C327.201 328.332 327.457 328.406 327.682 328.553C327.769 328.614 327.881 328.718 328.02 328.865C328.167 329.004 328.271 329.116 328.332 329.203Z" fill="#16181C"/>
<path d="M244.91 341.02V345.55C244.91 345.837 244.83 346.073 244.67 346.26C244.51 346.447 244.36 346.603 244.22 346.73C243.987 346.943 243.713 347.05 243.4 347.05H242.68C242.287 347.05 241.907 346.83 241.54 346.39C241.373 346.197 241.257 346.013 241.19 345.84L242.22 345.57C242.313 345.71 242.407 345.827 242.5 345.92C242.6 346.007 242.673 346.05 242.72 346.05H243.38C243.42 346.05 243.51 345.98 243.65 345.84C243.79 345.7 243.86 345.61 243.86 345.57V341.02H244.91ZM248.53 347.05H247.38C247.14 347.05 246.93 346.983 246.75 346.85C246.57 346.71 246.41 346.55 246.27 346.37C246.137 346.19 246.07 345.98 246.07 345.74V343.94C246.07 343.7 246.137 343.49 246.27 343.31C246.41 343.13 246.57 342.97 246.75 342.83C246.93 342.697 247.14 342.63 247.38 342.63H248.53C248.77 342.63 248.98 342.697 249.16 342.83C249.34 342.97 249.5 343.13 249.64 343.31C249.774 343.49 249.84 343.7 249.84 343.94V345.74C249.84 345.98 249.774 346.19 249.64 346.37C249.5 346.55 249.34 346.71 249.16 346.85C248.98 346.983 248.77 347.05 248.53 347.05ZM247.07 343.98V345.7C247.07 345.767 247.12 345.85 247.22 345.95C247.32 346.05 247.404 346.1 247.47 346.1H248.44C248.507 346.1 248.59 346.05 248.69 345.95C248.79 345.85 248.84 345.767 248.84 345.7V343.98C248.84 343.913 248.79 343.83 248.69 343.73C248.59 343.63 248.507 343.58 248.44 343.58H247.47C247.404 343.58 247.32 343.63 247.22 343.73C247.12 343.83 247.07 343.913 247.07 343.98ZM251.916 347H250.916V341.02H251.916V342.9C252.169 342.72 252.366 342.63 252.506 342.63H253.296C253.536 342.63 253.746 342.697 253.926 342.83C254.106 342.97 254.266 343.13 254.406 343.31C254.539 343.49 254.606 343.7 254.606 343.94V347H253.606V343.98C253.606 343.913 253.556 343.83 253.456 343.73C253.356 343.63 253.273 343.58 253.206 343.58H252.526C252.466 343.58 252.366 343.633 252.226 343.74C252.086 343.847 251.983 343.94 251.916 344.02V347ZM259.29 343.31C259.423 343.49 259.49 343.7 259.49 343.94V347H258.49V343.98C258.49 343.913 258.44 343.83 258.34 343.73C258.24 343.63 258.156 343.58 258.09 343.58H257.39C257.25 343.58 257.053 343.717 256.8 343.99V347H255.8V343.57L255.7 342.68H256.67L256.73 342.94C257.016 342.733 257.226 342.63 257.36 342.63H258.18C258.42 342.63 258.63 342.697 258.81 342.83C258.99 342.97 259.15 343.13 259.29 343.31ZM266.826 341.02V342.02H264.126V343.53H266.646V344.53H264.126V347H263.076V341.02H266.826ZM270.21 347.05H269.06C268.82 347.05 268.61 346.983 268.43 346.85C268.25 346.71 268.09 346.55 267.95 346.37C267.817 346.19 267.75 345.98 267.75 345.74V343.94C267.75 343.7 267.817 343.49 267.95 343.31C268.09 343.13 268.25 342.97 268.43 342.83C268.61 342.697 268.82 342.63 269.06 342.63H270.21C270.45 342.63 270.66 342.697 270.84 342.83C271.02 342.97 271.18 343.13 271.32 343.31C271.453 343.49 271.52 343.7 271.52 343.94V345.74C271.52 345.98 271.453 346.19 271.32 346.37C271.18 346.55 271.02 346.71 270.84 346.85C270.66 346.983 270.45 347.05 270.21 347.05ZM268.75 343.98V345.7C268.75 345.767 268.8 345.85 268.9 345.95C269 346.05 269.083 346.1 269.15 346.1H270.12C270.187 346.1 270.27 346.05 270.37 345.95C270.47 345.85 270.52 345.767 270.52 345.7V343.98C270.52 343.913 270.47 343.83 270.37 343.73C270.27 343.63 270.187 343.58 270.12 343.58H269.15C269.083 343.58 269 343.63 268.9 343.73C268.8 343.83 268.75 343.913 268.75 343.98ZM274.786 344.8L276.286 347H275.106L274.196 345.66L273.286 347H272.096L273.596 344.79L272.146 342.68H273.336L274.196 343.95L275.026 342.68H276.216L274.786 344.8Z" fill="#5F6B7C"/>
<path d="M77.797 100.074L75.184 101.452C74.9847 101.556 74.885 101.703 74.885 101.894V102.986H78.629V104H73.819V101.829C73.819 101.283 74.118 100.854 74.716 100.542L77.355 99.151C77.5283 99.073 77.615 98.9343 77.615 98.735V97.877C77.615 97.747 77.5327 97.5997 77.368 97.435C77.212 97.279 77.069 97.201 76.939 97.201H75.483C75.405 97.201 75.2837 97.279 75.119 97.435C74.963 97.591 74.8287 97.7643 74.716 97.955L73.663 97.669C73.767 97.4523 73.9187 97.2183 74.118 96.967C74.5687 96.4383 75.0193 96.174 75.47 96.174H77.043C77.3463 96.174 77.602 96.252 77.81 96.408C77.8967 96.4687 78.0093 96.5683 78.148 96.707C78.2953 96.8457 78.3993 96.9583 78.46 97.045C78.6073 97.2703 78.681 97.5303 78.681 97.825V98.761C78.681 99.3417 78.3863 99.7793 77.797 100.074ZM83.7268 104.065H81.8938C81.5905 104.065 81.3348 103.991 81.1268 103.844C81.0402 103.783 80.9232 103.684 80.7758 103.545C80.6372 103.398 80.5375 103.281 80.4768 103.194C80.3295 102.986 80.2558 102.73 80.2558 102.427V97.825C80.2558 97.5303 80.3295 97.2703 80.4768 97.045C80.5375 96.9583 80.6372 96.8457 80.7758 96.707C80.9232 96.5683 81.0402 96.4687 81.1268 96.408C81.3348 96.252 81.5905 96.174 81.8938 96.174H83.7268C84.0302 96.174 84.2902 96.252 84.5068 96.408C84.5935 96.4687 84.7062 96.5683 84.8448 96.707C84.9835 96.8457 85.0832 96.9583 85.1438 97.045C85.2998 97.2617 85.3778 97.5217 85.3778 97.825V102.427C85.3778 102.73 85.2998 102.986 85.1438 103.194C85.0832 103.281 84.9835 103.398 84.8448 103.545C84.7062 103.684 84.5935 103.783 84.5068 103.844C84.2815 103.991 84.0215 104.065 83.7268 104.065ZM81.3218 97.877V102.362C81.3218 102.501 81.4042 102.648 81.5688 102.804C81.7248 102.969 81.8678 103.051 81.9978 103.051H83.6228C83.7528 103.051 83.9002 102.969 84.0648 102.804C84.2295 102.639 84.3118 102.492 84.3118 102.362V97.877C84.3118 97.7557 84.2295 97.6083 84.0648 97.435C83.9002 97.279 83.7528 97.201 83.6228 97.201H81.9978C81.8678 97.201 81.7205 97.2833 81.5558 97.448C81.3998 97.604 81.3218 97.747 81.3218 97.877ZM95.9846 104H94.8536L94.2946 102.284H91.0316L90.4726 104H89.3416L91.9546 96.239H93.3716L95.9846 104ZM92.6696 97.279L91.3696 101.27H93.9696L92.6696 97.279ZM101.643 104H100.655L100.577 103.532C100.17 103.887 99.8451 104.065 99.6025 104.065H98.5495C98.2548 104.065 97.9991 103.991 97.7825 103.844C97.6958 103.783 97.5788 103.684 97.4315 103.545C97.2928 103.398 97.1931 103.281 97.1325 103.194C96.9851 102.969 96.9115 102.713 96.9115 102.427V98.397H97.9255V102.414C97.9255 102.544 98.0078 102.691 98.1725 102.856C98.3371 103.021 98.4845 103.103 98.6145 103.103H99.5635C99.7021 103.103 99.8755 103.021 100.083 102.856C100.291 102.683 100.434 102.531 100.512 102.401V98.397H101.526V102.947L101.643 104ZM106.147 106.158H104.847C104.231 106.158 103.694 105.755 103.235 104.949L104.184 104.65C104.435 105.014 104.643 105.196 104.808 105.196H106.095C106.225 105.196 106.372 105.114 106.537 104.949C106.701 104.784 106.784 104.637 106.784 104.507V103.532C106.428 103.887 106.112 104.065 105.835 104.065H104.743C104.439 104.065 104.179 103.991 103.963 103.844C103.876 103.783 103.763 103.684 103.625 103.545C103.486 103.398 103.386 103.281 103.326 103.194C103.17 102.977 103.092 102.722 103.092 102.427V99.97C103.092 99.6667 103.17 99.411 103.326 99.203C103.386 99.1163 103.486 99.0037 103.625 98.865C103.763 98.7177 103.876 98.6137 103.963 98.553C104.179 98.4057 104.439 98.332 104.743 98.332H105.848C106.09 98.332 106.415 98.5097 106.823 98.865L106.888 98.397H107.889L107.798 99.437V104.52C107.798 104.823 107.72 105.079 107.564 105.287C107.503 105.374 107.403 105.486 107.265 105.625C107.126 105.772 107.013 105.876 106.927 105.937C106.701 106.084 106.441 106.158 106.147 106.158ZM104.106 99.983V102.414C104.106 102.544 104.188 102.691 104.353 102.856C104.526 103.021 104.673 103.103 104.795 103.103H105.822C105.917 103.103 106.077 103.012 106.303 102.83C106.537 102.648 106.697 102.492 106.784 102.362V100.009C106.706 99.8877 106.55 99.7403 106.316 99.567C106.082 99.385 105.913 99.294 105.809 99.294H104.795C104.665 99.294 104.517 99.3763 104.353 99.541C104.188 99.7057 104.106 99.853 104.106 99.983ZM110.833 103.012L110.378 105.092H109.26L109.741 102.856L110.833 103.012ZM115.497 97.266V96.239H118.214V104H117.148V97.266H115.497ZM123.958 104.065H122.125C121.822 104.065 121.566 103.991 121.358 103.844C121.272 103.783 121.155 103.684 121.007 103.545C120.869 103.398 120.769 103.281 120.708 103.194C120.561 102.986 120.487 102.73 120.487 102.427V97.825C120.487 97.5303 120.561 97.2703 120.708 97.045C120.769 96.9583 120.869 96.8457 121.007 96.707C121.155 96.5683 121.272 96.4687 121.358 96.408C121.566 96.252 121.822 96.174 122.125 96.174H123.958C124.262 96.174 124.522 96.252 124.738 96.408C124.825 96.4687 124.938 96.5683 125.076 96.707C125.215 96.8457 125.315 96.9583 125.375 97.045C125.531 97.2617 125.609 97.5217 125.609 97.825V102.427C125.609 102.73 125.531 102.986 125.375 103.194C125.315 103.281 125.215 103.398 125.076 103.545C124.938 103.684 124.825 103.783 124.738 103.844C124.513 103.991 124.253 104.065 123.958 104.065ZM121.553 97.877V102.362C121.553 102.501 121.636 102.648 121.8 102.804C121.956 102.969 122.099 103.051 122.229 103.051H123.854C123.984 103.051 124.132 102.969 124.296 102.804C124.461 102.639 124.543 102.492 124.543 102.362V97.877C124.543 97.7557 124.461 97.6083 124.296 97.435C124.132 97.279 123.984 97.201 123.854 97.201H122.229C122.099 97.201 121.952 97.2833 121.787 97.448C121.631 97.604 121.553 97.747 121.553 97.877ZM128.658 100.542H127.345V99.177H128.658V100.542ZM128.658 104H127.345V102.622H128.658V104ZM134.653 100.061C134.818 100.217 134.939 100.338 135.017 100.425C135.095 100.512 135.169 100.629 135.238 100.776C135.308 100.915 135.342 101.066 135.342 101.231V102.427C135.342 102.722 135.264 102.977 135.108 103.194C135.048 103.281 134.948 103.398 134.809 103.545C134.671 103.684 134.558 103.783 134.471 103.844C134.255 103.991 133.995 104.065 133.691 104.065H132.014C131.555 104.065 131.109 103.801 130.675 103.272C130.476 103.038 130.32 102.804 130.207 102.57L131.26 102.297C131.382 102.488 131.52 102.661 131.676 102.817C131.832 102.973 131.954 103.051 132.04 103.051H133.587C133.717 103.051 133.865 102.969 134.029 102.804C134.194 102.631 134.276 102.483 134.276 102.362V101.27C134.276 101.14 134.194 100.993 134.029 100.828C133.865 100.663 133.717 100.581 133.587 100.581H131.936V99.567H133.561C133.691 99.567 133.839 99.4847 134.003 99.32C134.159 99.164 134.237 99.021 134.237 98.891V97.877C134.237 97.7557 134.155 97.6083 133.99 97.435C133.834 97.279 133.687 97.201 133.548 97.201H132.04C131.954 97.201 131.828 97.279 131.663 97.435C131.507 97.591 131.373 97.7643 131.26 97.955L130.207 97.669C130.337 97.409 130.493 97.175 130.675 96.967C131.135 96.4383 131.581 96.174 132.014 96.174H133.665C133.96 96.174 134.216 96.252 134.432 96.408C134.519 96.4687 134.632 96.5683 134.77 96.707C134.918 96.8457 135.022 96.9583 135.082 97.045C135.23 97.2703 135.303 97.5303 135.303 97.825V98.917C135.303 99.151 135.247 99.3503 135.134 99.515C135.03 99.6797 134.87 99.8617 134.653 100.061ZM140.449 104.065H138.616C138.313 104.065 138.057 103.991 137.849 103.844C137.763 103.783 137.646 103.684 137.498 103.545C137.36 103.398 137.26 103.281 137.199 103.194C137.052 102.986 136.978 102.73 136.978 102.427V97.825C136.978 97.5303 137.052 97.2703 137.199 97.045C137.26 96.9583 137.36 96.8457 137.498 96.707C137.646 96.5683 137.763 96.4687 137.849 96.408C138.057 96.252 138.313 96.174 138.616 96.174H140.449C140.753 96.174 141.013 96.252 141.229 96.408C141.316 96.4687 141.429 96.5683 141.567 96.707C141.706 96.8457 141.806 96.9583 141.866 97.045C142.022 97.2617 142.1 97.5217 142.1 97.825V102.427C142.1 102.73 142.022 102.986 141.866 103.194C141.806 103.281 141.706 103.398 141.567 103.545C141.429 103.684 141.316 103.783 141.229 103.844C141.004 103.991 140.744 104.065 140.449 104.065ZM138.044 97.877V102.362C138.044 102.501 138.127 102.648 138.291 102.804C138.447 102.969 138.59 103.051 138.72 103.051H140.345C140.475 103.051 140.623 102.969 140.787 102.804C140.952 102.639 141.034 102.492 141.034 102.362V97.877C141.034 97.7557 140.952 97.6083 140.787 97.435C140.623 97.279 140.475 97.201 140.345 97.201H138.72C138.59 97.201 138.443 97.2833 138.278 97.448C138.122 97.604 138.044 97.747 138.044 97.877ZM151.199 99.97V102.947L151.316 104H150.315L150.237 103.558C149.839 103.896 149.522 104.065 149.288 104.065H148.092C147.789 104.065 147.533 103.991 147.325 103.844C147.239 103.783 147.122 103.684 146.974 103.545C146.836 103.398 146.736 103.281 146.675 103.194C146.528 102.969 146.454 102.713 146.454 102.427V102.284C146.454 101.989 146.528 101.729 146.675 101.504C146.736 101.417 146.836 101.305 146.974 101.166C147.122 101.027 147.239 100.928 147.325 100.867C147.533 100.711 147.789 100.633 148.092 100.633H150.185V99.983C150.185 99.853 150.103 99.7057 149.938 99.541C149.782 99.3763 149.635 99.294 149.496 99.294H148.235C148.079 99.294 147.854 99.4847 147.559 99.866L146.61 99.567C147.07 98.7437 147.616 98.332 148.248 98.332H149.561C149.856 98.332 150.112 98.4057 150.328 98.553C150.415 98.6137 150.528 98.7177 150.666 98.865C150.814 99.0037 150.918 99.1163 150.978 99.203C151.126 99.411 151.199 99.6667 151.199 99.97ZM148.144 103.129H149.223C149.319 103.129 149.483 103.047 149.717 102.882C149.951 102.709 150.107 102.561 150.185 102.44V101.556H148.144C148.014 101.556 147.867 101.638 147.702 101.803C147.546 101.959 147.468 102.102 147.468 102.232V102.44C147.468 102.579 147.551 102.726 147.715 102.882C147.88 103.047 148.023 103.129 148.144 103.129ZM160.218 99.203C160.365 99.411 160.439 99.6667 160.439 99.97V104H159.425V99.983C159.425 99.853 159.342 99.7057 159.178 99.541C159.022 99.3763 158.874 99.294 158.736 99.294H158.125C157.856 99.294 157.544 99.515 157.189 99.957V104H156.175V99.983C156.175 99.8443 156.092 99.697 155.928 99.541C155.772 99.3763 155.629 99.294 155.499 99.294H154.875C154.727 99.294 154.563 99.3677 154.381 99.515C154.199 99.6537 154.047 99.801 153.926 99.957V104H152.912V99.437L152.795 98.397H153.783L153.874 98.852C154.281 98.5053 154.602 98.332 154.836 98.332H155.551C155.854 98.332 156.11 98.4057 156.318 98.553C156.404 98.6137 156.578 98.774 156.838 99.034C157.375 98.566 157.791 98.332 158.086 98.332H158.801C159.087 98.332 159.342 98.4057 159.568 98.553C159.654 98.6137 159.767 98.7177 159.906 98.865C160.053 99.0037 160.157 99.1163 160.218 99.203Z" fill="#16181C"/>
<path d="M76.91 111.02V115.55C76.91 115.837 76.83 116.073 76.67 116.26C76.51 116.447 76.36 116.603 76.22 116.73C75.9867 116.943 75.7133 117.05 75.4 117.05H74.68C74.2867 117.05 73.9067 116.83 73.54 116.39C73.3733 116.197 73.2567 116.013 73.19 115.84L74.22 115.57C74.3133 115.71 74.4067 115.827 74.5 115.92C74.6 116.007 74.6733 116.05 74.72 116.05H75.38C75.42 116.05 75.51 115.98 75.65 115.84C75.79 115.7 75.86 115.61 75.86 115.57V111.02H76.91ZM80.5303 117.05H79.3803C79.1403 117.05 78.9303 116.983 78.7503 116.85C78.5703 116.71 78.4103 116.55 78.2703 116.37C78.137 116.19 78.0703 115.98 78.0703 115.74V113.94C78.0703 113.7 78.137 113.49 78.2703 113.31C78.4103 113.13 78.5703 112.97 78.7503 112.83C78.9303 112.697 79.1403 112.63 79.3803 112.63H80.5303C80.7703 112.63 80.9803 112.697 81.1603 112.83C81.3403 112.97 81.5003 113.13 81.6403 113.31C81.7736 113.49 81.8403 113.7 81.8403 113.94V115.74C81.8403 115.98 81.7736 116.19 81.6403 116.37C81.5003 116.55 81.3403 116.71 81.1603 116.85C80.9803 116.983 80.7703 117.05 80.5303 117.05ZM79.0703 113.98V115.7C79.0703 115.767 79.1203 115.85 79.2203 115.95C79.3203 116.05 79.4036 116.1 79.4703 116.1H80.4403C80.507 116.1 80.5903 116.05 80.6903 115.95C80.7903 115.85 80.8403 115.767 80.8403 115.7V113.98C80.8403 113.913 80.7903 113.83 80.6903 113.73C80.5903 113.63 80.507 113.58 80.4403 113.58H79.4703C79.4036 113.58 79.3203 113.63 79.2203 113.73C79.1203 113.83 79.0703 113.913 79.0703 113.98ZM83.9159 117H82.9159V111.02H83.9159V112.9C84.1693 112.72 84.3659 112.63 84.5059 112.63H85.2959C85.5359 112.63 85.7459 112.697 85.9259 112.83C86.1059 112.97 86.2659 113.13 86.4059 113.31C86.5393 113.49 86.6059 113.7 86.6059 113.94V117H85.6059V113.98C85.6059 113.913 85.5559 113.83 85.4559 113.73C85.3559 113.63 85.2726 113.58 85.2059 113.58H84.5259C84.4659 113.58 84.3659 113.633 84.2259 113.74C84.0859 113.847 83.9826 113.94 83.9159 114.02V117ZM91.2897 113.31C91.423 113.49 91.4897 113.7 91.4897 113.94V117H90.4897V113.98C90.4897 113.913 90.4397 113.83 90.3397 113.73C90.2397 113.63 90.1564 113.58 90.0897 113.58H89.3897C89.2497 113.58 89.053 113.717 88.7997 113.99V117H87.7997V113.57L87.6997 112.68H88.6697L88.7297 112.94C89.0164 112.733 89.2264 112.63 89.3597 112.63H90.1797C90.4197 112.63 90.6297 112.697 90.8097 112.83C90.9897 112.97 91.1497 113.13 91.2897 113.31ZM98.826 111.02V112.02H96.126V113.53H98.646V114.53H96.126V117H95.076V111.02H98.826ZM102.21 117.05H101.06C100.82 117.05 100.61 116.983 100.43 116.85C100.25 116.71 100.09 116.55 99.95 116.37C99.8167 116.19 99.75 115.98 99.75 115.74V113.94C99.75 113.7 99.8167 113.49 99.95 113.31C100.09 113.13 100.25 112.97 100.43 112.83C100.61 112.697 100.82 112.63 101.06 112.63H102.21C102.45 112.63 102.66 112.697 102.84 112.83C103.02 112.97 103.18 113.13 103.32 113.31C103.453 113.49 103.52 113.7 103.52 113.94V115.74C103.52 115.98 103.453 116.19 103.32 116.37C103.18 116.55 103.02 116.71 102.84 116.85C102.66 116.983 102.45 117.05 102.21 117.05ZM100.75 113.98V115.7C100.75 115.767 100.8 115.85 100.9 115.95C101 116.05 101.083 116.1 101.15 116.1H102.12C102.187 116.1 102.27 116.05 102.37 115.95C102.47 115.85 102.52 115.767 102.52 115.7V113.98C102.52 113.913 102.47 113.83 102.37 113.73C102.27 113.63 102.187 113.58 102.12 113.58H101.15C101.083 113.58 101 113.63 100.9 113.73C100.8 113.83 100.75 113.913 100.75 113.98ZM106.786 114.8L108.286 117H107.106L106.196 115.66L105.286 117H104.096L105.596 114.79L104.146 112.68H105.336L106.196 113.95L107.026 112.68H108.216L106.786 114.8Z" fill="#5F6B7C"/>
<path d="M128.949 7L133.899 11.9497L128.949 16.8995" stroke="#E5E8EB"/>
<path d="M219.95 82L224.9 86.9497L219.95 91.8995" stroke="#E5E8EB"/>
<path d="M18.6005 248.95L23.5503 244L28.5 248.95" stroke="#E5E8EB"/>
<path d="M356.899 248.95L351.95 253.899L347 248.95" stroke="#E5E8EB"/>
<g filter="url(#filter5_d_4660_48653)">
<rect x="217" y="2" width="20" height="20" rx="1" fill="white"/>
<rect x="217.5" y="2.5" width="19" height="19" rx="0.5" stroke="#E5E8EB"/>
</g>
<g clip-path="url(#clip0_4660_48653)">
<path fill-rule="evenodd" clip-rule="evenodd" d="M226.586 14.1642C226.691 14.2692 226.837 14.3334 227.001 14.3334C227.164 14.3334 227.31 14.2692 227.415 14.1642L229.748 11.8309C229.853 11.7259 229.917 11.58 229.917 11.4167C229.917 11.0959 229.655 10.8334 229.334 10.8334C229.171 10.8334 229.025 10.8975 228.92 11.0025L227.584 12.3442V7.91671C227.584 7.59587 227.321 7.33337 227.001 7.33337C226.68 7.33337 226.417 7.59587 226.417 7.91671V12.3442L225.081 11.0025C224.976 10.8975 224.831 10.8334 224.667 10.8334C224.346 10.8334 224.084 11.0959 224.084 11.4167C224.084 11.58 224.148 11.7259 224.253 11.8309L226.586 14.1642ZM231.084 13.75C230.763 13.75 230.501 14.0125 230.501 14.3334V15.5H223.501V14.3334C223.501 14.0125 223.238 13.75 222.917 13.75C222.596 13.75 222.334 14.0125 222.334 14.3334V16.0834C222.334 16.4042 222.596 16.6667 222.917 16.6667H231.084C231.405 16.6667 231.667 16.4042 231.667 16.0834V14.3334C231.667 14.0125 231.405 13.75 231.084 13.75Z" fill="#404854"/>
</g>
<g filter="url(#filter6_d_4660_48653)">
<rect x="109" y="307" width="20" height="20" rx="1" fill="white"/>
<rect x="109.5" y="307.5" width="19" height="19" rx="0.5" stroke="#E5E8EB"/>
</g>
<path fill-rule="evenodd" clip-rule="evenodd" d="M116.666 315.833C116.83 315.833 116.976 315.769 117.081 315.664L118.416 314.322V318.75C118.416 319.071 118.679 319.333 119 319.333C119.321 319.333 119.583 319.071 119.583 318.75V314.322L120.919 315.658C121.024 315.769 121.17 315.833 121.333 315.833C121.654 315.833 121.916 315.571 121.916 315.25C121.916 315.087 121.852 314.941 121.747 314.836L119.414 312.502C119.309 312.397 119.163 312.333 119 312.333C118.836 312.333 118.691 312.397 118.586 312.502L116.252 314.836C116.147 314.941 116.083 315.087 116.083 315.25C116.083 315.571 116.346 315.833 116.666 315.833ZM123.083 318.75C122.762 318.75 122.5 319.012 122.5 319.333V320.5H115.5V319.333C115.5 319.012 115.237 318.75 114.916 318.75C114.596 318.75 114.333 319.012 114.333 319.333V321.083C114.333 321.404 114.596 321.667 114.916 321.667H123.083C123.404 321.667 123.666 321.404 123.666 321.083V319.333C123.666 319.012 123.404 318.75 123.083 318.75Z" fill="#404854"/>
<g filter="url(#filter7_d_4660_48653)">
<rect x="265" y="146" width="20" height="20" rx="1" fill="white"/>
<rect x="265.5" y="146.5" width="19" height="19" rx="0.5" stroke="#E5E8EB"/>
</g>
<path d="M275.001 155.418C274.681 155.418 274.419 155.682 274.419 156.003C274.419 156.325 274.681 156.588 275.001 156.588C275.321 156.588 275.584 156.325 275.584 156.003C275.584 155.682 275.321 155.418 275.001 155.418ZM279.661 155.986C279.661 155.98 279.661 155.98 279.661 155.974V155.968C279.661 155.962 279.661 155.962 279.661 155.956C279.661 155.951 279.661 155.951 279.661 155.945C279.649 155.863 279.614 155.793 279.562 155.734C279.264 155.342 278.909 154.997 278.548 154.681C277.773 153.997 276.888 153.424 275.91 153.196C275.339 153.056 274.774 153.05 274.203 153.161C273.685 153.266 273.19 153.477 272.718 153.74C271.99 154.155 271.32 154.722 270.738 155.36C270.633 155.483 270.528 155.6 270.429 155.728C270.301 155.898 270.301 156.103 270.429 156.272C270.726 156.664 271.081 157.009 271.443 157.325C272.217 158.009 273.102 158.582 274.081 158.81C274.646 158.945 275.217 158.951 275.787 158.834C276.306 158.729 276.801 158.518 277.273 158.255C278.001 157.84 278.67 157.272 279.253 156.635C279.358 156.518 279.468 156.395 279.567 156.266C279.62 156.208 279.655 156.132 279.666 156.056C279.666 156.05 279.666 156.05 279.666 156.044C279.666 156.038 279.666 156.038 279.666 156.032V156.027C279.666 156.021 279.666 156.021 279.666 156.015C279.666 156.009 279.666 156.003 279.666 155.997C279.666 155.991 279.661 155.991 279.661 155.986ZM275.001 157.758C274.034 157.758 273.254 156.974 273.254 156.003C273.254 155.032 274.034 154.249 275.001 154.249C275.968 154.249 276.748 155.032 276.748 156.003C276.748 156.974 275.968 157.758 275.001 157.758Z" fill="#404854"/>
<g filter="url(#filter8_d_4660_48653)">
<rect x="342" y="166" width="20" height="20" rx="1" fill="white"/>
<rect x="342.5" y="166.5" width="19" height="19" rx="0.5" stroke="#E5E8EB"/>
</g>
<path fill-rule="evenodd" clip-rule="evenodd" d="M352 171.625C350.688 171.625 349.517 172.21 348.719 173.123V172.172C348.719 171.871 348.473 171.625 348.172 171.625C347.871 171.625 347.625 171.871 347.625 172.172V174.359C347.625 174.66 347.871 174.906 348.172 174.906H350.359C350.66 174.906 350.906 174.66 350.906 174.359C350.906 174.059 350.66 173.813 350.359 173.813H349.561C350.163 173.145 351.032 172.719 352 172.719C353.81 172.719 355.281 174.19 355.281 176C355.281 177.427 354.368 178.63 353.094 179.079V179.073C352.749 179.199 352.388 179.281 352 179.281C350.19 179.281 348.719 177.81 348.719 176C348.719 175.699 348.473 175.453 348.172 175.453C347.871 175.453 347.625 175.699 347.625 176C347.625 178.417 349.583 180.375 352 180.375C352.186 180.375 352.366 180.359 352.547 180.337C352.558 180.337 352.569 180.331 352.58 180.331C354.723 180.047 356.375 178.22 356.375 176C356.375 173.583 354.417 171.625 352 171.625Z" fill="#404854"/>
<g filter="url(#filter9_d_4660_48653)">
<rect x="14" y="162" width="20" height="20" rx="1" fill="white"/>
<rect x="14.5" y="162.5" width="19" height="19" rx="0.5" stroke="#E5E8EB"/>
</g>
<path fill-rule="evenodd" clip-rule="evenodd" d="M24 167.625C22.6875 167.625 21.5172 168.21 20.7188 169.123V168.172C20.7188 167.871 20.4727 167.625 20.1719 167.625C19.8711 167.625 19.625 167.871 19.625 168.172V170.359C19.625 170.66 19.8711 170.906 20.1719 170.906H22.3594C22.6602 170.906 22.9063 170.66 22.9063 170.359C22.9063 170.059 22.6602 169.813 22.3594 169.813H21.5609C22.1625 169.145 23.032 168.719 24 168.719C25.8102 168.719 27.2813 170.19 27.2813 172C27.2813 173.427 26.368 174.63 25.0938 175.079V175.073C24.7492 175.199 24.3883 175.281 24 175.281C22.1898 175.281 20.7188 173.81 20.7188 172C20.7188 171.699 20.4727 171.453 20.1719 171.453C19.8711 171.453 19.625 171.699 19.625 172C19.625 174.417 21.5828 176.375 24 176.375C24.1859 176.375 24.3664 176.359 24.5469 176.337C24.5578 176.337 24.5688 176.331 24.5797 176.331C26.7234 176.047 28.375 174.22 28.375 172C28.375 169.583 26.4172 167.625 24 167.625Z" fill="#404854"/>
<defs>
<filter id="filter0_d_4660_48653" x="0" y="7" width="10" height="10" filterUnits="userSpaceOnUse" color-interpolation-filters="sRGB">
<feFlood flood-opacity="0" result="BackgroundImageFix"/>
<feColorMatrix in="SourceAlpha" type="matrix" values="0 0 0 0 0 0 0 0 0 0 0 0 0 0 0 0 0 0 127 0" result="hardAlpha"/>
<feMorphology radius="2" operator="dilate" in="SourceAlpha" result="effect1_dropShadow_4660_48653"/>
<feOffset/>
<feComposite in2="hardAlpha" operator="out"/>
<feColorMatrix type="matrix" values="0 0 0 0 0.0862745 0 0 0 0 0.0941176 0 0 0 0 0.109804 0 0 0 0.4 0"/>
<feBlend mode="normal" in2="BackgroundImageFix" result="effect1_dropShadow_4660_48653"/>
<feBlend mode="normal" in="SourceGraphic" in2="effect1_dropShadow_4660_48653" result="shape"/>
</filter>
<filter id="filter1_d_4660_48653" x="121" y="228" width="10" height="10" filterUnits="userSpaceOnUse" color-interpolation-filters="sRGB">
<feFlood flood-opacity="0" result="BackgroundImageFix"/>
<feColorMatrix in="SourceAlpha" type="matrix" values="0 0 0 0 0 0 0 0 0 0 0 0 0 0 0 0 0 0 127 0" result="hardAlpha"/>
<feMorphology radius="2" operator="dilate" in="SourceAlpha" result="effect1_dropShadow_4660_48653"/>
<feOffset/>
<feComposite in2="hardAlpha" operator="out"/>
<feColorMatrix type="matrix" values="0 0 0 0 0.0862745 0 0 0 0 0.0941176 0 0 0 0 0.109804 0 0 0 0.4 0"/>
<feBlend mode="normal" in2="BackgroundImageFix" result="effect1_dropShadow_4660_48653"/>
<feBlend mode="normal" in="SourceGraphic" in2="effect1_dropShadow_4660_48653" result="shape"/>
</filter>
<filter id="filter2_d_4660_48653" x="347" y="62" width="10" height="10" filterUnits="userSpaceOnUse" color-interpolation-filters="sRGB">
<feFlood flood-opacity="0" result="BackgroundImageFix"/>
<feColorMatrix in="SourceAlpha" type="matrix" values="0 0 0 0 0 0 0 0 0 0 0 0 0 0 0 0 0 0 127 0" result="hardAlpha"/>
<feMorphology radius="2" operator="dilate" in="SourceAlpha" result="effect1_dropShadow_4660_48653"/>
<feOffset/>
<feComposite in2="hardAlpha" operator="out"/>
<feColorMatrix type="matrix" values="0 0 0 0 0.0862745 0 0 0 0 0.0941176 0 0 0 0 0.109804 0 0 0 0.4 0"/>
<feBlend mode="normal" in2="BackgroundImageFix" result="effect1_dropShadow_4660_48653"/>
<feBlend mode="normal" in="SourceGraphic" in2="effect1_dropShadow_4660_48653" result="shape"/>
</filter>
<filter id="filter3_d_4660_48653" x="241" y="312" width="10" height="10" filterUnits="userSpaceOnUse" color-interpolation-filters="sRGB">
<feFlood flood-opacity="0" result="BackgroundImageFix"/>
<feColorMatrix in="SourceAlpha" type="matrix" values="0 0 0 0 0 0 0 0 0 0 0 0 0 0 0 0 0 0 127 0" result="hardAlpha"/>
<feMorphology radius="2" operator="dilate" in="SourceAlpha" result="effect1_dropShadow_4660_48653"/>
<feOffset/>
<feComposite in2="hardAlpha" operator="out"/>
<feColorMatrix type="matrix" values="0 0 0 0 0.0862745 0 0 0 0 0.0941176 0 0 0 0 0.109804 0 0 0 0.4 0"/>
<feBlend mode="normal" in2="BackgroundImageFix" result="effect1_dropShadow_4660_48653"/>
<feBlend mode="normal" in="SourceGraphic" in2="effect1_dropShadow_4660_48653" result="shape"/>
</filter>
<filter id="filter4_d_4660_48653" x="73" y="82" width="10" height="10" filterUnits="userSpaceOnUse" color-interpolation-filters="sRGB">
<feFlood flood-opacity="0" result="BackgroundImageFix"/>
<feColorMatrix in="SourceAlpha" type="matrix" values="0 0 0 0 0 0 0 0 0 0 0 0 0 0 0 0 0 0 127 0" result="hardAlpha"/>
<feMorphology radius="2" operator="dilate" in="SourceAlpha" result="effect1_dropShadow_4660_48653"/>
<feOffset/>
<feComposite in2="hardAlpha" operator="out"/>
<feColorMatrix type="matrix" values="0 0 0 0 0.0862745 0 0 0 0 0.0941176 0 0 0 0 0.109804 0 0 0 0.4 0"/>
<feBlend mode="normal" in2="BackgroundImageFix" result="effect1_dropShadow_4660_48653"/>
<feBlend mode="normal" in="SourceGraphic" in2="effect1_dropShadow_4660_48653" result="shape"/>
</filter>
<filter id="filter5_d_4660_48653" x="215" y="0" width="24" height="24" filterUnits="userSpaceOnUse" color-interpolation-filters="sRGB">
<feFlood flood-opacity="0" result="BackgroundImageFix"/>
<feColorMatrix in="SourceAlpha" type="matrix" values="0 0 0 0 0 0 0 0 0 0 0 0 0 0 0 0 0 0 127 0" result="hardAlpha"/>
<feMorphology radius="2" operator="dilate" in="SourceAlpha" result="effect1_dropShadow_4660_48653"/>
<feOffset/>
<feComposite in2="hardAlpha" operator="out"/>
<feColorMatrix type="matrix" values="0 0 0 0 0.96193 0 0 0 0 0.96193 0 0 0 0 0.96193 0 0 0 1 0"/>
<feBlend mode="normal" in2="BackgroundImageFix" result="effect1_dropShadow_4660_48653"/>
<feBlend mode="normal" in="SourceGraphic" in2="effect1_dropShadow_4660_48653" result="shape"/>
</filter>
<filter id="filter6_d_4660_48653" x="107" y="305" width="24" height="24" filterUnits="userSpaceOnUse" color-interpolation-filters="sRGB">
<feFlood flood-opacity="0" result="BackgroundImageFix"/>
<feColorMatrix in="SourceAlpha" type="matrix" values="0 0 0 0 0 0 0 0 0 0 0 0 0 0 0 0 0 0 127 0" result="hardAlpha"/>
<feMorphology radius="2" operator="dilate" in="SourceAlpha" result="effect1_dropShadow_4660_48653"/>
<feOffset/>
<feComposite in2="hardAlpha" operator="out"/>
<feColorMatrix type="matrix" values="0 0 0 0 0.96193 0 0 0 0 0.96193 0 0 0 0 0.96193 0 0 0 1 0"/>
<feBlend mode="normal" in2="BackgroundImageFix" result="effect1_dropShadow_4660_48653"/>
<feBlend mode="normal" in="SourceGraphic" in2="effect1_dropShadow_4660_48653" result="shape"/>
</filter>
<filter id="filter7_d_4660_48653" x="263" y="144" width="24" height="24" filterUnits="userSpaceOnUse" color-interpolation-filters="sRGB">
<feFlood flood-opacity="0" result="BackgroundImageFix"/>
<feColorMatrix in="SourceAlpha" type="matrix" values="0 0 0 0 0 0 0 0 0 0 0 0 0 0 0 0 0 0 127 0" result="hardAlpha"/>
<feMorphology radius="2" operator="dilate" in="SourceAlpha" result="effect1_dropShadow_4660_48653"/>
<feOffset/>
<feComposite in2="hardAlpha" operator="out"/>
<feColorMatrix type="matrix" values="0 0 0 0 0.96193 0 0 0 0 0.96193 0 0 0 0 0.96193 0 0 0 1 0"/>
<feBlend mode="normal" in2="BackgroundImageFix" result="effect1_dropShadow_4660_48653"/>
<feBlend mode="normal" in="SourceGraphic" in2="effect1_dropShadow_4660_48653" result="shape"/>
</filter>
<filter id="filter8_d_4660_48653" x="340" y="164" width="24" height="24" filterUnits="userSpaceOnUse" color-interpolation-filters="sRGB">
<feFlood flood-opacity="0" result="BackgroundImageFix"/>
<feColorMatrix in="SourceAlpha" type="matrix" values="0 0 0 0 0 0 0 0 0 0 0 0 0 0 0 0 0 0 127 0" result="hardAlpha"/>
<feMorphology radius="2" operator="dilate" in="SourceAlpha" result="effect1_dropShadow_4660_48653"/>
<feOffset/>
<feComposite in2="hardAlpha" operator="out"/>
<feColorMatrix type="matrix" values="0 0 0 0 0.96193 0 0 0 0 0.96193 0 0 0 0 0.96193 0 0 0 1 0"/>
<feBlend mode="normal" in2="BackgroundImageFix" result="effect1_dropShadow_4660_48653"/>
<feBlend mode="normal" in="SourceGraphic" in2="effect1_dropShadow_4660_48653" result="shape"/>
</filter>
<filter id="filter9_d_4660_48653" x="12" y="160" width="24" height="24" filterUnits="userSpaceOnUse" color-interpolation-filters="sRGB">
<feFlood flood-opacity="0" result="BackgroundImageFix"/>
<feColorMatrix in="SourceAlpha" type="matrix" values="0 0 0 0 0 0 0 0 0 0 0 0 0 0 0 0 0 0 127 0" result="hardAlpha"/>
<feMorphology radius="2" operator="dilate" in="SourceAlpha" result="effect1_dropShadow_4660_48653"/>
<feOffset/>
<feComposite in2="hardAlpha" operator="out"/>
<feColorMatrix type="matrix" values="0 0 0 0 0.96193 0 0 0 0 0.96193 0 0 0 0 0.96193 0 0 0 1 0"/>
<feBlend mode="normal" in2="BackgroundImageFix" result="effect1_dropShadow_4660_48653"/>
<feBlend mode="normal" in="SourceGraphic" in2="effect1_dropShadow_4660_48653" result="shape"/>
</filter>
<clipPath id="clip0_4660_48653">
<rect width="9.33333" height="9.33333" fill="white" transform="translate(222.333 7.33331)"/>
</clipPath>
</defs>
</svg>
