<svg width="122" height="116" viewBox="0 0 122 116" fill="none" xmlns="http://www.w3.org/2000/svg">
<g clip-path="url(#clip0_4683_35090)">
<path d="M60.9987 110.631C31.8741 110.631 8.26346 87.0199 8.26346 57.8959C8.26346 28.7706 31.8741 5.16058 60.9987 5.16058C90.1234 5.16058 113.733 28.7706 113.733 57.8959C113.733 87.0199 90.1234 110.631 60.9987 110.631ZM114.361 40.5566C112.456 34.6919 113.235 27.4052 109.682 22.5239C106.095 17.5939 98.8994 16.0992 93.9694 12.5112C89.0874 8.95857 85.4627 2.55725 79.5974 0.653252C73.9394 -1.18475 67.2694 1.80325 60.9987 1.80325C54.7274 1.80325 48.0581 -1.18475 42.3994 0.65258C36.5347 2.55658 32.9094 8.95857 28.0281 12.5112C23.0979 16.0986 15.9028 17.5932 12.3145 22.5232C8.76193 27.4046 9.54079 34.6912 7.63639 40.5566C5.79913 46.2146 0.825195 51.6246 0.825195 57.8959C0.825195 64.1666 5.79913 69.5753 7.63639 75.2346C9.54079 81.0986 8.7614 88.3853 12.3143 93.2666C15.9025 98.1973 23.0971 99.6919 28.0275 103.28C32.9087 106.832 36.5341 113.235 42.3987 115.138C48.0574 116.976 54.7267 113.988 60.9987 113.988C67.2694 113.988 73.9387 116.976 79.5974 115.138C85.4621 113.235 89.0874 106.832 93.9687 103.281C98.8994 99.6919 106.094 98.1979 109.682 93.2674C113.235 88.3859 112.456 81.0993 114.36 75.2353C116.197 69.5759 121.171 64.1666 121.171 57.8959C121.171 51.6246 116.197 46.2152 114.361 40.5566Z" fill="#738091"/>
<path d="M109.692 57.8958C109.692 84.7878 87.891 106.588 60.999 106.588C34.1063 106.588 12.3057 84.7878 12.3057 57.8958C12.3057 31.0032 34.1063 9.20251 60.999 9.20251C87.891 9.20251 109.692 31.0032 109.692 57.8958Z" stroke="#738091" stroke-width="2" stroke-miterlimit="10"/>
<path d="M60.999 28.4876C44.7837 28.4876 31.5917 41.6803 31.5917 57.8956C31.5917 74.1102 44.7837 87.3023 60.999 87.3023C77.2137 87.3023 90.4057 74.1102 90.4057 57.8956C90.4057 41.6803 77.2137 28.4876 60.999 28.4876ZM60.999 89.209C43.7317 89.209 29.6846 75.1622 29.6846 57.8956C29.6846 40.6283 43.7317 26.5809 60.999 26.5809C78.2657 26.5809 92.313 40.6283 92.313 57.8956C92.313 75.1622 78.2657 89.209 60.999 89.209Z" fill="#738091"/>
<path d="M60.9985 32.3462C46.9098 32.3462 35.4478 43.8075 35.4478 57.8962C35.4478 71.9842 46.9098 83.4462 60.9985 83.4462C75.0865 83.4462 86.5478 71.9842 86.5478 57.8962C86.5478 43.8075 75.0865 32.3462 60.9985 32.3462ZM60.9985 84.0815C46.5592 84.0815 34.8125 72.3349 34.8125 57.8962C34.8125 43.4569 46.5592 31.7095 60.9985 31.7095C75.4372 31.7095 87.1838 43.4569 87.1838 57.8962C87.1838 72.3349 75.4372 84.0815 60.9985 84.0815Z" fill="#738091"/>
<path d="M60.9889 34.1469L61.8129 35.8169L63.6549 36.0843L62.3216 37.3836L62.6369 39.2183L60.9889 38.3516L59.3409 39.2183L59.6556 37.3836L58.3223 36.0843L60.1649 35.8169L60.9889 34.1469Z" fill="#738091"/>
<path d="M67.6469 36.9902L68.1116 37.9328L69.1523 38.0842L68.3996 38.8182L68.5769 39.8535L67.6469 39.3648L66.7163 39.8535L66.8943 38.8182L66.1416 38.0842L67.1816 37.9328L67.6469 36.9902Z" fill="#738091"/>
<path d="M54.3305 36.9902L54.7952 37.9328L55.8359 38.0842L55.0825 38.8182L55.2605 39.8535L54.3305 39.3648L53.3999 39.8535L53.5779 38.8182L52.8252 38.0842L53.8652 37.9328L54.3305 36.9902Z" fill="#738091"/>
<path d="M60.9889 75.6992L61.8129 77.3685L63.6549 77.6358L62.3216 78.9358L62.6369 80.7705L60.9889 79.9038L59.3409 80.7705L59.6556 78.9358L58.3223 77.6358L60.1649 77.3685L60.9889 75.6992Z" fill="#738091"/>
<path d="M67.6469 75.3647L68.1116 76.3074L69.1523 76.4587L68.3996 77.192L68.5769 78.228L67.6469 77.7387L66.7163 78.228L66.8943 77.192L66.1416 76.4587L67.1816 76.3074L67.6469 75.3647Z" fill="#738091"/>
<path d="M54.3305 75.3647L54.7952 76.3074L55.8359 76.4587L55.0825 77.192L55.2605 78.228L54.3305 77.7387L53.3999 78.228L53.5779 77.192L52.8252 76.4587L53.8652 76.3074L54.3305 75.3647Z" fill="#738091"/>
<path d="M42.3661 52.4701H45.0343V63.9995H42.3661V52.4701ZM50.1587 54.6442H46.4693V52.4701H56.5164V54.6442H52.8269V63.9995H50.1587V54.6442ZM64.9659 61.5289H59.6129L58.5918 63.9995H55.8577L60.9965 52.4701H63.6318L68.7871 63.9995H65.9871L64.9659 61.5289ZM64.1259 59.503L62.2977 55.0889L60.4694 59.503H64.1259ZM77.3291 63.9995L75.1056 60.7878H74.9738H72.6515V63.9995H69.9832V52.4701H74.9738C75.995 52.4701 76.8789 52.6403 77.6256 52.9807C78.3832 53.3211 78.9652 53.8042 79.3714 54.4301C79.7777 55.056 79.9809 55.7972 79.9809 56.6536C79.9809 57.5101 79.7722 58.2513 79.355 58.8772C78.9487 59.4921 78.3667 59.9642 77.6091 60.2936L80.195 63.9995H77.3291ZM77.2797 56.6536C77.2797 56.0058 77.0711 55.5117 76.6538 55.1713C76.2366 54.8199 75.6271 54.6442 74.8256 54.6442H72.6515V58.663H74.8256C75.6271 58.663 76.2366 58.4874 76.6538 58.136C77.0711 57.7846 77.2797 57.2905 77.2797 56.6536Z" fill="#738091"/>
<path d="M61.2251 95.9953L61.5041 96.0117C61.6502 96.0203 61.7741 96.0676 61.8757 96.1535C61.9817 96.2397 62.0713 96.3405 62.1445 96.4559C62.218 96.5669 62.2504 96.6954 62.2418 96.8416L62.236 96.9412C62.2274 97.0873 62.1801 97.2112 62.0942 97.3128C62.008 97.4188 61.9072 97.5084 61.7918 97.5816C61.6808 97.6551 61.5523 97.6875 61.4061 97.679L61.1271 97.6626C60.981 97.654 60.8571 97.6067 60.7556 97.5207C60.6495 97.4345 60.5599 97.3337 60.4867 97.2183C60.4132 97.1074 60.3808 96.9788 60.3894 96.8327L60.3953 96.7331C60.4038 96.5869 60.4511 96.4631 60.5371 96.3615C60.6233 96.2554 60.7241 96.1658 60.8395 96.0926C60.9504 96.0192 61.079 95.9867 61.2251 95.9953Z" fill="#738091"/>
<path d="M54.3521 94.5621L55.0395 94.6871L54.3278 98.602L53.6404 98.477L54.3521 94.5621Z" fill="#738091"/>
<path d="M49.1766 94.5309L48.3863 97.1002L47.7185 96.8949L48.8883 93.0917L49.5942 93.3088L50.164 96.2547L50.9425 93.7235L51.6103 93.9288L50.4406 97.7321L49.7219 97.511L49.1766 94.5309Z" fill="#738091"/>
<path d="M45.8252 96.1439L43.2152 94.988L43.4847 94.3796L44.4703 94.8161L45.8121 91.7863L46.451 92.0693L45.1091 95.099L46.0947 95.5356L45.8252 96.1439Z" fill="#738091"/>
<path d="M39.1084 92.646L39.4479 92.0737L40.9987 92.9938L41.5114 92.1297L40.0693 91.2741L40.4088 90.7019L41.8509 91.5575L42.35 90.7163L40.7992 89.7962L41.1387 89.2239L43.2904 90.5005L41.26 93.9226L39.1084 92.646Z" fill="#738091"/>
<path d="M37.3359 86.3992L37.959 86.8769L37.5898 88.5725L38.1918 89.034L39.1472 87.7878L39.7017 88.2128L37.2809 91.3707L35.7336 90.1846C35.6069 90.0874 35.523 89.9672 35.4819 89.824C35.4435 89.6772 35.4238 89.5279 35.4227 89.3762C35.4252 89.2271 35.475 89.0893 35.5721 88.9625L35.9769 88.4344C36.0741 88.3077 36.1943 88.2238 36.3376 88.1827C36.4844 88.1443 36.6337 88.1246 36.7854 88.1235C36.8581 88.1234 36.9228 88.1339 36.9794 88.1549L37.3359 86.3992ZM36.2123 89.7132L37.1312 90.4176L37.787 89.5621L36.8681 88.8577C36.8329 88.8307 36.7687 88.8234 36.6754 88.8357C36.5821 88.8481 36.522 88.8718 36.495 88.907L36.163 89.34C36.1361 89.3752 36.1287 89.4395 36.141 89.5328C36.1534 89.6261 36.1771 89.6862 36.2123 89.7132Z" fill="#738091"/>
<path d="M33.8607 84.8627L31.9844 86.7877L31.484 86.3001L34.2614 83.4507L34.7903 83.9662L33.952 86.8472L35.8004 84.9508L36.3007 85.4384L33.5234 88.2879L32.985 87.763L33.8607 84.8627Z" fill="#738091"/>
<path d="M31.2125 79.7617L31.6809 80.3413L31.1993 81.0898L32.1653 82.2853L32.9983 81.9715L33.4667 82.5512L29.5103 83.986L28.975 83.3236L31.2125 79.7617ZM29.8689 83.1487L31.5098 82.5328L30.8197 81.6788L29.8689 83.1487Z" fill="#738091"/>
<path d="M27.1955 80.8681L25.6765 78.4513L26.2399 78.0972L26.8135 79.0098L29.619 77.2466L29.9908 77.8381L27.1853 79.6014L27.7589 80.514L27.1955 80.8681Z" fill="#738091"/>
<path d="M27.6404 73.4909L27.9396 74.1222L24.3439 75.8262L24.0447 75.1949L27.6404 73.4909Z" fill="#738091"/>
<path d="M26.1073 69.4499L26.4293 70.4086C26.49 70.5894 26.4897 70.7557 26.4283 70.9073C26.3669 71.059 26.3055 71.1895 26.244 71.2991C26.1392 71.4887 25.9901 71.616 25.7967 71.681L23.8665 72.3292C23.6857 72.3899 23.5195 72.3896 23.3679 72.3282C23.2162 72.2668 23.0856 72.2054 22.9761 72.1439C22.7865 72.0392 22.6592 71.8901 22.5942 71.6966L22.2722 70.7379C22.2115 70.557 22.2118 70.3908 22.2732 70.2392C22.3346 70.0875 22.396 69.9569 22.4575 69.8474C22.5622 69.6578 22.7114 69.5305 22.9048 69.4655L24.8349 68.8173C25.0158 68.7566 25.182 68.7569 25.3336 68.8183C25.4853 68.8796 25.6159 68.9411 25.7254 69.0025C25.915 69.1073 26.0423 69.2564 26.1073 69.4499ZM23.6252 71.6732L25.5932 71.0123C25.6184 71.0038 25.6604 70.9406 25.719 70.8226C25.7777 70.7047 25.8027 70.6331 25.7943 70.6079L25.4807 69.6743C25.4723 69.6491 25.409 69.6071 25.2911 69.5485C25.1731 69.4898 25.1015 69.4648 25.0763 69.4732L23.1083 70.1342C23.0831 70.1427 23.0411 70.2059 22.9825 70.3238C22.9238 70.4418 22.8987 70.5134 22.9072 70.5386L23.2207 71.4722C23.2292 71.4974 23.2924 71.5393 23.4104 71.598C23.5284 71.6566 23.6 71.6817 23.6252 71.6732Z" fill="#738091"/>
<path d="M23.5763 64.8274L20.9446 65.3759L20.8021 64.6919L24.6974 63.8801L24.8481 64.6031L22.5434 66.5244L25.1359 65.9841L25.2784 66.6681L21.3831 67.4799L21.2297 66.7438L23.5763 64.8274Z" fill="#738091"/>
<path d="M24.2282 59.1172L24.2929 59.8596L23.4753 60.2113L23.6087 61.7426L24.4748 61.9476L24.5395 62.6901L20.4565 61.6699L20.3826 60.8214L24.2282 59.1172ZM21.2216 61.1758L22.9268 61.5816L22.8315 60.4878L21.2216 61.1758Z" fill="#738091"/>
<path d="M20.3112 56.783L23.6232 56.8878L23.679 55.1254L24.344 55.1465L24.2661 57.6072L20.2891 57.4813L20.3112 56.783Z" fill="#738091"/>
<path d="M21.4842 48.1096L22.2422 45.3576L22.8837 45.5343L22.5975 46.5735L25.7922 47.4533L25.6066 48.1269L22.412 47.2471L22.1257 48.2863L21.4842 48.1096Z" fill="#738091"/>
<path d="M27.757 42.1576L27.4605 42.8846L25.7275 42.9754L25.4411 43.6778L26.8951 44.2708L26.6312 44.9178L22.9469 43.4149L23.6832 41.6098C23.7435 41.4619 23.8374 41.3493 23.9647 41.2719C24.0962 41.1962 24.235 41.1378 24.3811 41.0968C24.5255 41.0599 24.6716 41.0716 24.8195 41.1319L25.4356 41.3832C25.5835 41.4435 25.6961 41.5373 25.7735 41.6647C25.8492 41.7962 25.9076 41.935 25.9486 42.0811C25.9679 42.1512 25.9749 42.2163 25.9695 42.2764L27.757 42.1576ZM24.2641 41.9473L23.8269 43.0193L24.8249 43.4265L25.2622 42.3544C25.279 42.3134 25.2691 42.2494 25.2326 42.1627C25.1961 42.076 25.1574 42.0242 25.1163 42.0075L24.6111 41.8014C24.57 41.7846 24.5061 41.7945 24.4194 41.831C24.3326 41.8675 24.2809 41.9062 24.2641 41.9473Z" fill="#738091"/>
<path d="M29.9702 38.0928L29.6091 38.7447L28.7345 38.5797L27.9897 39.9243L28.5935 40.5782L28.2324 41.2301L25.4159 38.1031L25.8285 37.358L29.9702 38.0928ZM26.3265 38.1207L27.514 39.4098L28.046 38.4494L26.3265 38.1207Z" fill="#738091"/>
<path d="M29.0451 32.5532L29.5849 32.9422L28.5346 34.3998L29.3498 34.9872L30.33 33.6268L30.8699 34.0158L29.8896 35.3762L31.223 36.337L30.8146 36.9038L27.5863 34.5776L29.0451 32.5532Z" fill="#738091"/>
<path d="M32.2833 28.8906L32.7734 29.3407L31.5581 30.6639L32.298 31.3435L33.4323 30.1086L33.9224 30.5587L32.7881 31.7936L33.9985 32.9054L33.5259 33.4199L30.5954 30.7283L32.2833 28.8906Z" fill="#738091"/>
<path d="M37.6536 29.4023L37.1234 29.8573L34.5319 26.838L35.062 26.3829L37.6536 29.4023Z" fill="#738091"/>
<path d="M41.5205 26.6081L40.7689 27.1121C40.6105 27.2184 40.4501 27.2619 40.2876 27.2426C40.1252 27.2234 39.983 27.1985 39.8611 27.1681C39.6506 27.117 39.4885 27.0067 39.3749 26.8373L38.2408 25.1463C38.1345 24.9878 38.091 24.8274 38.1103 24.665C38.1295 24.5025 38.1543 24.3603 38.1848 24.2384C38.2359 24.0279 38.3461 23.8658 38.5156 23.7522L39.2672 23.2481C39.4845 23.1024 39.7761 23.0831 40.1418 23.1904C40.3055 23.2355 40.4379 23.2935 40.539 23.3646L40.0699 23.8955C39.9701 23.8503 39.8765 23.8223 39.7891 23.8114C39.6993 23.7969 39.6433 23.7971 39.6212 23.8119L38.8973 24.2974C38.8752 24.3122 38.8514 24.3843 38.8259 24.5135C38.8004 24.6428 38.7951 24.7184 38.8099 24.7405L39.9662 26.4647C39.981 26.4868 40.0531 26.5106 40.1823 26.5361C40.3116 26.5616 40.3873 26.5669 40.4094 26.5521L41.1278 26.0703C41.1536 26.053 41.1762 26.0031 41.1957 25.9206C41.2163 25.832 41.2265 25.7317 41.2262 25.6197L41.8955 25.3872C41.9229 25.5077 41.9263 25.6522 41.9059 25.8209C41.8663 26.1999 41.7379 26.4623 41.5205 26.6081Z" fill="#738091"/>
<path d="M49.1065 22.8815L48.4511 23.1234L47.073 19.3906L47.7285 19.1487L49.1065 22.8815Z" fill="#738091"/>
<path d="M53.5797 20.2765L52.9535 17.6623L53.633 17.4995L54.5598 21.3691L53.8416 21.5411L51.8529 19.2943L52.4697 21.8697L51.7903 22.0325L50.8634 18.1629L51.5946 17.9877L53.5797 20.2765Z" fill="#738091"/>
<path d="M63.7271 20.759L62.9819 20.7576L62.7041 19.912L61.1671 19.9089L60.8859 20.7534L60.1407 20.7519L61.5194 16.7756L62.371 16.7773L63.7271 20.759ZM61.9436 17.5816L61.388 19.2439L62.4859 19.2461L61.9436 17.5816Z" fill="#738091"/>
<path d="M67.9101 21.2562L67.1306 21.1618L66.5863 19.514L65.8332 19.4228L65.6444 20.9817L64.9508 20.8977L65.4293 16.9475L67.3647 17.182C67.5233 17.2012 67.6567 17.262 67.7649 17.3645C67.8726 17.4714 67.9655 17.5899 68.0436 17.72C68.1172 17.8496 68.1445 17.9936 68.1253 18.1522L68.0452 18.8127C68.026 18.9713 67.9652 19.1046 67.8627 19.2129C67.7558 19.3206 67.6373 19.4135 67.5072 19.4915C67.4446 19.5286 67.3837 19.5525 67.3243 19.5632L67.9101 21.2562ZM67.1922 17.8314L66.0429 17.6921L65.9132 18.7622L67.0626 18.9015C67.1066 18.9068 67.1657 18.8804 67.2398 18.8224C67.3138 18.7643 67.3535 18.7133 67.3588 18.6692L67.4245 18.1276C67.4298 18.0835 67.4034 18.0245 67.3454 17.9504C67.2873 17.8764 67.2363 17.8367 67.1922 17.8314Z" fill="#738091"/>
<path d="M71.2045 20.0656L72.6012 18.2693L73.4157 18.4679L72.4734 22.3337L71.7946 22.1682L72.4501 19.4789L71.2858 20.9963L70.704 20.8545L70.3685 18.9715L69.713 21.6608L69.0342 21.4953L69.9766 17.6295L70.7911 17.8281L71.2045 20.0656Z" fill="#738091"/>
<path d="M74.9723 23.3L73.9127 22.904C73.6676 22.8124 73.4819 22.5867 73.3559 22.2271C73.2971 22.0678 73.267 21.9263 73.2659 21.8028L73.9707 21.8744C73.9963 21.9834 74.0273 22.0779 74.0637 22.1578C74.1059 22.2351 74.1415 22.2792 74.1706 22.29L75.1928 22.6721C75.2177 22.6814 75.2901 22.6587 75.41 22.6041C75.5298 22.5494 75.5944 22.5096 75.6037 22.4847L75.7412 22.117C75.7645 22.0546 75.7527 22.01 75.706 21.983L74.2578 20.9162C74.1196 20.8172 74.0309 20.6869 73.9918 20.5255C73.9569 20.3657 73.9681 20.2088 74.0256 20.0551L74.142 19.7435C74.2088 19.5648 74.3138 19.4359 74.457 19.3568C74.6002 19.2778 74.7302 19.2151 74.847 19.1687C75.0478 19.0875 75.2438 19.0826 75.4349 19.154L76.3449 19.4941C76.5901 19.5858 76.7757 19.8114 76.9017 20.1711C76.9606 20.3304 76.9906 20.4718 76.9918 20.5954L76.2869 20.5237C76.2655 20.4163 76.2337 20.3239 76.1916 20.2466C76.151 20.1651 76.1182 20.1197 76.0933 20.1104L75.2145 19.782C75.1895 19.7727 75.1171 19.7953 74.9973 19.85C74.8774 19.9046 74.8128 19.9444 74.8035 19.9694L74.694 20.2623C74.6707 20.3246 74.6804 20.3685 74.723 20.3939L76.1727 21.4755C76.3094 21.5787 76.3952 21.7102 76.4301 21.8701C76.4692 22.0315 76.4609 22.187 76.4049 22.3366L76.2652 22.7106C76.1984 22.8893 76.0934 23.0181 75.9502 23.0972C75.807 23.1763 75.677 23.239 75.5603 23.2853C75.3594 23.3665 75.1634 23.3714 74.9723 23.3Z" fill="#738091"/>
<path d="M83.985 28.2276L83.3347 27.7877L83.6028 26.0732L82.9745 25.6482L82.0946 26.9488L81.5159 26.5574L83.7454 23.2616L85.3602 24.354C85.4925 24.4434 85.5834 24.5585 85.6329 24.6991C85.6799 24.8433 85.7084 24.9912 85.7185 25.1426C85.7249 25.2915 85.6833 25.4321 85.5938 25.5643L85.221 26.1155C85.1315 26.2477 85.0165 26.3386 84.8759 26.3881C84.7316 26.4351 84.5838 26.4637 84.4324 26.4737C84.3598 26.4781 84.2946 26.4716 84.2369 26.4539L83.985 28.2276ZM84.9103 24.8529L83.9513 24.2042L83.3473 25.097L84.3063 25.7457C84.343 25.7706 84.4076 25.7741 84.5 25.7563C84.5924 25.7384 84.651 25.7112 84.6759 25.6744L84.9816 25.2225C85.0064 25.1857 85.0099 25.1212 84.9921 25.0288C84.9743 24.9364 84.947 24.8778 84.9103 24.8529Z" fill="#738091"/>
<path d="M89.7117 27.8753L89.2763 28.3785L87.9127 27.1986L87.2553 27.9584L88.5233 29.0556L88.0879 29.5587L86.8199 28.4615L86.1799 29.2012L87.5435 30.3811L87.1081 30.8843L85.2161 29.2472L87.8198 26.2383L89.7117 27.8753Z" fill="#738091"/>
<path d="M90.6768 33.3103L90.0734 34.0312L89.6118 33.5246L89.7074 33.3924C89.5018 33.3577 89.3616 33.2994 89.2869 33.2174L88.6327 32.4994C88.5042 32.3584 88.4375 32.2061 88.4325 32.0426C88.4276 31.8791 88.4311 31.7348 88.4432 31.6098C88.4627 31.394 88.5478 31.2174 88.6986 31.08L90.2037 29.7087C90.3447 29.5802 90.4969 29.5135 90.6605 29.5085C90.824 29.5036 90.9682 29.5071 91.0933 29.5192C91.309 29.5387 91.4856 29.6238 91.6231 29.7746L92.2729 30.4878C92.4491 30.6813 92.5112 30.9668 92.4591 31.3443C92.4387 31.5129 92.4009 31.6525 92.3455 31.7629L91.7511 31.3773C91.7811 31.272 91.795 31.1753 91.7928 31.0872C91.7939 30.9962 91.7855 30.9409 91.7676 30.9212L91.1402 30.2326C91.1223 30.213 91.0475 30.2001 90.9159 30.1939C90.7843 30.1878 90.7087 30.1937 90.689 30.2117L89.1544 31.6099C89.1348 31.6278 89.1219 31.7025 89.1158 31.8341C89.1096 31.9657 89.1155 32.0414 89.1335 32.061L89.7698 32.7595C89.7877 32.7791 89.8625 32.792 89.9941 32.7982C90.1257 32.8043 90.2013 32.7984 90.221 32.7804L90.7079 32.3368L90.1298 31.7023L90.6217 31.2542L91.6703 32.4051L90.6768 33.3103Z" fill="#738091"/>
<path d="M92.2453 36.9853L91.7579 36.3031C91.647 36.1479 91.5988 35.9889 91.6132 35.8259C91.6276 35.663 91.6482 35.5201 91.675 35.3974C91.7199 35.1854 91.8253 35.0202 91.9913 34.9015L94.4384 33.1531L94.8446 33.7215L92.3812 35.4816C92.3596 35.4971 92.3379 35.5698 92.3163 35.6997C92.2947 35.8297 92.2916 35.9055 92.307 35.9271L92.779 36.5876C92.7944 36.6093 92.8672 36.6309 92.9971 36.6526C93.1271 36.6742 93.2029 36.6773 93.2245 36.6618L95.6879 34.9018L96.094 35.4703L93.6469 37.2187C93.4917 37.3296 93.3327 37.3778 93.1697 37.3634C93.0067 37.349 92.8639 37.3284 92.7412 37.3016C92.5292 37.2568 92.3639 37.1513 92.2453 36.9853Z" fill="#738091"/>
<path d="M97.6296 38.1004L94.7246 39.6944L95.5728 41.2403L94.9894 41.5603L93.8051 39.402L97.2935 37.4879L97.6296 38.1004Z" fill="#738091"/>
<path d="M96.8665 46.0496L96.5878 45.3584L97.267 44.7832L96.6922 43.3577L95.8039 43.4145L95.5252 42.7233L99.7282 42.5066L100.047 43.2965L96.8665 46.0496ZM99.1407 43.2026L97.3914 43.3125L97.802 44.3307L99.1407 43.2026Z" fill="#738091"/>
<path d="M101.03 46.1644L101.777 48.9194L101.135 49.0935L100.853 48.0532L97.6547 48.9202L97.4719 48.2459L100.67 47.3788L100.388 46.3385L101.03 46.1644Z" fill="#738091"/>
<path d="M98.4518 53.0898L98.35 52.3986L102.287 51.8189L102.388 52.5102L98.4518 53.0898Z" fill="#738091"/>
<path d="M98.7375 57.4025L98.7095 56.3915C98.7043 56.2008 98.7531 56.0419 98.8561 55.9148C98.9591 55.7877 99.056 55.6807 99.1468 55.5939C99.3024 55.4432 99.4821 55.365 99.6861 55.3594L101.721 55.3031C101.912 55.2978 102.071 55.3467 102.198 55.4497C102.325 55.5527 102.432 55.6496 102.519 55.7403C102.67 55.8959 102.748 56.0757 102.754 56.2797L102.781 57.2907C102.787 57.4814 102.738 57.6402 102.635 57.7673C102.532 57.8944 102.435 58.0014 102.344 58.0882C102.189 58.239 102.009 58.3172 101.805 58.3228L99.7696 58.3791C99.5789 58.3843 99.42 58.3355 99.2929 58.2325C99.1658 58.1295 99.0589 58.0326 98.972 57.9418C98.8213 57.7862 98.7431 57.6064 98.7375 57.4025ZM101.761 56.0009L99.6855 56.0583C99.6589 56.059 99.6003 56.1072 99.5097 56.2029C99.4192 56.2986 99.3743 56.3598 99.375 56.3864L99.4022 57.3708C99.403 57.3974 99.4512 57.456 99.5469 57.5465C99.6426 57.6371 99.7037 57.682 99.7303 57.6812L101.806 57.6239C101.832 57.6231 101.891 57.5749 101.981 57.4792C102.072 57.3835 102.117 57.3224 102.116 57.2958L102.089 56.3114C102.088 56.2848 102.04 56.2262 101.944 56.1356C101.848 56.0451 101.787 56.0002 101.761 56.0009Z" fill="#738091"/>
<path d="M99.8079 62.5628L102.485 62.8069L102.421 63.5026L98.4589 63.1414L98.526 62.4058L101.291 61.2415L98.654 61.001L98.7175 60.3053L102.68 60.6665L102.612 61.4153L99.8079 62.5628Z" fill="#738091"/>
<path d="M97.8338 66.1826L98.069 65.0762C98.1234 64.8202 98.3192 64.6033 98.6563 64.4255C98.8052 64.3438 98.9406 64.2932 99.0627 64.2738L99.0959 64.9816C98.9918 65.0229 98.903 65.0675 98.8293 65.1154C98.7591 65.1685 98.7208 65.2102 98.7143 65.2406L98.4874 66.3079C98.4819 66.334 98.515 66.4022 98.5867 66.5127C98.6585 66.6232 98.7073 66.6812 98.7334 66.6868L99.1174 66.7684C99.1825 66.7822 99.2249 66.764 99.2446 66.7138L100.086 65.124C100.164 64.9727 100.279 64.8658 100.433 64.8032C100.586 64.7451 100.743 64.733 100.903 64.7672L101.229 64.8363C101.415 64.876 101.558 64.9608 101.658 65.0908C101.757 65.2207 101.838 65.34 101.901 65.4487C102.011 65.6353 102.045 65.8284 102.003 66.028L101.801 66.9783C101.746 67.2343 101.55 67.4512 101.213 67.6289C101.064 67.7106 100.929 67.7612 100.807 67.7806L100.774 67.0729C100.877 67.0359 100.963 66.9908 101.034 66.9377C101.108 66.8855 101.148 66.8464 101.154 66.8204L101.349 65.9027C101.355 65.8767 101.321 65.8084 101.25 65.6979C101.178 65.5874 101.129 65.5294 101.103 65.5239L100.797 65.4588C100.732 65.445 100.69 65.461 100.671 65.5069L99.8155 67.1005C99.7336 67.2509 99.6162 67.3552 99.4633 67.4133C99.3094 67.4759 99.1543 67.4905 98.9981 67.4573L98.6076 67.3743C98.421 67.3346 98.2781 67.2498 98.1787 67.1199C98.0794 66.9899 97.9982 66.8706 97.9351 66.762C97.8251 66.5753 97.7913 66.3822 97.8338 66.1826Z" fill="#738091"/>
<path d="M94.7121 74.8671L95.1029 74.0509C95.1853 73.8789 95.3013 73.7598 95.4509 73.6938C95.6006 73.6277 95.7356 73.5768 95.8561 73.541C96.0633 73.478 96.259 73.4905 96.443 73.5786L98.2794 74.4579C98.4515 74.5403 98.5705 74.6563 98.6366 74.806C98.7026 74.9557 98.7535 75.0907 98.7893 75.2111C98.8524 75.4184 98.8398 75.614 98.7517 75.7981L98.3609 76.6143C98.2479 76.8503 98.0066 77.0151 97.6372 77.1087C97.4733 77.1532 97.3297 77.1705 97.2066 77.1607L97.3405 76.465C97.4494 76.4532 97.5443 76.4298 97.625 76.3947C97.7098 76.3615 97.7579 76.3329 97.7694 76.3089L98.1458 75.5227C98.1573 75.4987 98.1412 75.4246 98.0974 75.3003C98.0536 75.1761 98.0197 75.1082 97.9957 75.0967L96.1233 74.2001C96.0993 74.1886 96.0251 74.2048 95.9009 74.2486C95.7766 74.2924 95.7088 74.3263 95.6973 74.3503L95.3237 75.1304C95.3103 75.1584 95.3162 75.2129 95.3414 75.2938C95.3686 75.3807 95.4109 75.4722 95.4681 75.5684L95.0101 76.109C94.9252 76.0192 94.8487 75.8965 94.7806 75.7409C94.6219 75.3944 94.599 75.1031 94.7121 74.8671Z" fill="#738091"/>
<path d="M92.7262 78.295L93.2678 77.4409C93.37 77.2798 93.4993 77.1753 93.6557 77.1274C93.8121 77.0795 93.9522 77.0449 94.076 77.0236C94.2893 76.9855 94.4821 77.0211 94.6544 77.1304L96.3739 78.2208C96.535 78.3229 96.6395 78.4522 96.6874 78.6086C96.7353 78.765 96.7699 78.9052 96.7912 79.029C96.8293 79.2422 96.7937 79.435 96.6844 79.6073L96.1428 80.4615C96.0407 80.6226 95.9114 80.7271 95.7549 80.7749C95.5985 80.8228 95.4584 80.8574 95.3346 80.8787C95.1213 80.9168 94.9285 80.8812 94.7562 80.772L93.0367 79.6816C92.8756 79.5794 92.7711 79.4502 92.7232 79.2937C92.6754 79.1373 92.6408 78.9972 92.6195 78.8734C92.5814 78.6601 92.6169 78.4673 92.7262 78.295ZM96.0167 78.8215L94.2634 77.7097C94.2409 77.6955 94.1654 77.7028 94.0369 77.7315C93.9083 77.7603 93.8369 77.786 93.8226 77.8084L93.2953 78.6401C93.281 78.6626 93.2883 78.7381 93.3171 78.8667C93.3459 78.9952 93.3715 79.0666 93.394 79.0809L95.1472 80.1926C95.1697 80.2069 95.2452 80.1996 95.3738 80.1708C95.5023 80.142 95.5737 80.1164 95.588 80.0939L96.1154 79.2622C96.1296 79.2398 96.1223 79.1643 96.0936 79.0357C96.0648 78.9071 96.0391 78.8357 96.0167 78.8215Z" fill="#738091"/>
<path d="M91.612 83.0616L92.633 85.0951L92.1035 85.745L89.0187 83.2317L89.46 82.6901L91.6059 84.4385L90.7368 82.7347L91.115 82.2705L92.9592 82.7774L90.8133 81.029L91.2546 80.4874L94.3394 83.0007L93.8098 83.6507L91.612 83.0616Z" fill="#738091"/>
<path d="M88.6335 88.5123C88.4864 88.4879 88.3574 88.4182 88.2464 88.3034L87.7839 87.8251C87.6729 87.7103 87.6076 87.579 87.5882 87.4312C87.5719 87.2804 87.5744 87.1298 87.5958 86.9796C87.6202 86.8326 87.6898 86.7036 87.8046 86.5926L88.7039 85.723L87.6124 84.5941L88.1146 84.1085L90.8805 86.969L89.4789 88.3242C89.3641 88.4352 89.2329 88.5004 89.0851 88.5199C88.9342 88.5362 88.7837 88.5336 88.6335 88.5123ZM88.3278 87.3825L88.707 87.7747C88.7379 87.8066 88.8003 87.8234 88.8944 87.825C88.9885 87.8265 89.0515 87.8119 89.0834 87.7811L89.9157 86.9763L89.1664 86.2014L88.3341 87.0062C88.3022 87.037 88.2855 87.0994 88.2839 87.1935C88.2823 87.2876 88.2969 87.3506 88.3278 87.3825Z" fill="#738091"/>
<path d="M86.5403 90.7766L84.5349 88.1387L83.1312 89.2058L82.7285 88.6761L84.6884 87.1862L87.0965 90.3537L86.5403 90.7766Z" fill="#738091"/>
<path d="M79.956 90.3786L80.5583 90.0246L82.5749 93.4547L81.9726 93.8088L79.956 90.3786Z" fill="#738091"/>
<path d="M74.5215 92.979L75.2041 92.6799L75.7992 93.3418L77.2071 92.725L77.1239 91.8388L77.8065 91.5398L78.1478 95.7344L77.3677 96.0762L74.5215 92.979ZM77.4346 95.1678L77.2729 93.4226L76.2673 93.8631L77.4346 95.1678Z" fill="#738091"/>
<path d="M71.6874 95.1967L72.4673 97.7692L71.7987 97.9719L70.6442 94.164L71.351 93.9497L73.4693 96.0748L72.701 93.5405L73.3696 93.3378L74.5241 97.1456L73.8045 97.3638L71.6874 95.1967Z" fill="#738091"/>
<path d="M69.8084 98.4077L66.9979 98.907L66.8815 98.2519L67.9428 98.0633L67.3632 94.8008L68.0511 94.6786L68.6307 97.9411L69.692 97.7526L69.8084 98.4077Z" fill="#738091"/>
</g>
<defs>
<clipPath id="clip0_4683_35090">
<rect width="121" height="116" fill="white" transform="translate(0.5)"/>
</clipPath>
</defs>
</svg>
