<svg
      xmlns="http://www.w3.org/2000/svg"
      width="116"
      height="32"
      view-box="0 0 116 32"
      fill="none"
    >
      <path
        d="M45.6783 10.1785V7.10679C45.6783 6.37376 45.4672 5.60585 45.0452 4.97753C44.7287 4.52376 43.6383 3.40677 43.1458 3.05771C42.4424 2.56904 41.4927 2.28979 40.6485 2.28979H30.7649V23.1634H34.4581V14.9257H38.503L42.4072 23.1634H46.417L42.2314 14.6464C42.5479 14.5417 42.8644 14.3672 43.1458 14.1578C43.6383 13.8087 44.7287 12.7615 45.0452 12.3078C45.4672 11.6795 45.6783 10.9464 45.6783 10.1785ZM41.9851 10.1436C41.9851 10.2134 41.95 10.2832 41.95 10.2832C41.6685 10.7719 40.9651 11.4351 40.6485 11.4351H34.4581V5.78036H40.8244C41.1762 5.81527 41.7389 6.51339 41.95 6.89735C41.9851 6.96718 41.9851 7.14169 41.9851 7.14169V10.1436Z"
        fill="white"
      />
      <path
        d="M63.7061 18.7654V12.4823C63.7061 11.7842 63.6006 11.0162 63.1083 10.353C62.8268 9.93414 61.9475 9.0615 61.4199 8.67754C60.7165 8.18886 59.7317 7.90961 58.8523 7.90961H55.546C54.6667 7.90961 53.717 8.18886 53.0136 8.67754C52.4859 9.0615 51.5714 9.93414 51.29 10.353C50.7977 11.0162 50.6921 11.7842 50.6921 12.4823V18.7654C50.6921 19.4634 50.7977 20.2314 51.29 20.8946C51.5714 21.3135 52.4859 22.221 53.0136 22.605C53.717 23.0936 54.6667 23.338 55.546 23.338H58.8523C59.7317 23.338 60.7165 23.0936 61.4199 22.605C61.9475 22.221 62.8268 21.3135 63.1083 20.8946C63.6006 20.2314 63.7061 19.4634 63.7061 18.7654ZM54.2094 12.587C54.2094 12.587 54.2094 12.4474 54.2446 12.3776C54.4908 11.9587 54.9832 11.5049 55.4053 11.2606C55.4757 11.2257 55.5108 11.2257 55.5812 11.2257H58.8171C58.8874 11.2257 58.9226 11.2257 58.993 11.2606C59.4151 11.5049 59.9426 12.0285 60.1537 12.3776C60.1888 12.4823 60.1888 12.5521 60.1888 12.587V18.9399C60.1537 19.2191 59.3447 19.7776 59.0281 19.9521C58.9578 19.9871 58.8874 20.022 58.8171 20.022H55.5812C55.4405 20.022 55.3701 19.9871 55.3701 19.9871C54.948 19.7427 54.2094 19.2191 54.2094 18.9399V12.587Z"
        fill="white"
      />
      <path
        d="M71.6745 23.1636L71.2172 20.0918V2.28986H67.7V20.4758C67.7 20.4758 68.0165 22.4654 68.122 23.1636H71.6745Z"
        fill="white"
      />
      <path
        d="M79.643 23.1636L79.1858 20.0918V2.28986H75.6685V20.4758C75.6685 20.4758 75.985 22.4654 76.0906 23.1636H79.643Z"
        fill="white"
      />
      <path
        d="M97.6509 23.1634L97.3343 20.0569V8.08417H93.817V18.5908C93.3597 19.0795 92.0936 19.987 91.7418 19.987H89.2445C89.139 19.987 89.1038 19.987 89.0335 19.9521C88.6465 19.7078 88.0838 19.2889 87.8728 18.905C87.8376 18.8352 87.8376 18.6955 87.8376 18.6606V8.08417H84.3203V18.7304C84.3203 19.4285 84.461 20.1965 84.9534 20.8597C85.2348 21.2786 86.1141 22.1861 86.6417 22.5701C87.3451 23.0588 88.33 23.3031 89.2094 23.3031H91.8474C92.6563 23.3031 93.4302 22.7446 94.0632 22.2908L94.204 23.1634H97.6509Z"
        fill="white"
      />
      <path
        d="M115.765 18.7305V12.5521C115.765 11.7842 115.588 11.0512 115.132 10.388C114.849 9.96912 113.971 9.06155 113.443 8.6776C112.775 8.18892 111.79 7.90967 110.911 7.90967H108.343C107.499 7.90967 106.69 8.36345 106.057 8.85212L105.916 8.0842H102.434L102.75 11.1908V28.8532H106.268V22.5352C106.866 22.9541 107.604 23.338 108.343 23.338H110.911C111.79 23.338 112.739 23.0937 113.443 22.605C114.006 22.221 114.849 21.2786 115.132 20.8946C115.588 20.2663 115.765 19.4985 115.765 18.7305ZM112.247 18.6606C112.247 18.7654 112.212 18.8352 112.212 18.8352C111.966 19.2541 111.473 19.7427 111.086 19.9871C111.016 20.022 110.981 20.022 110.875 20.022H108.448C108.026 20.022 106.725 19.0097 106.268 18.4861V12.7965C106.725 12.2729 108.061 11.2257 108.448 11.2257H110.875C110.946 11.2257 111.016 11.2606 111.086 11.2955C111.473 11.5399 111.966 11.9937 112.212 12.4125C112.212 12.4125 112.247 12.4823 112.247 12.622V18.6606Z"
        fill="white"
      />
      <path
        fill-rule="evenodd"
        clip-rule="evenodd"
        d="M22 19.3829C22 19.1716 21.8113 19 21.5792 19H0.420888C0.188685 19 0 19.1716 0 19.3829V22.6171C0 22.8284 0.188685 23 0.420888 23H21.5792C21.8113 23 22 22.8284 22 22.6171V19.3829Z"
        fill="#0E5A8A"
      />
      <path
        fill-rule="evenodd"
        clip-rule="evenodd"
        d="M22 13.4568C22 13.2046 21.8109 13 21.5784 13H0.42156C0.188987 13 0 13.2046 0 13.4568V17.5433C0 17.7954 0.188987 18 0.42156 18H21.5784C21.8109 18 22 17.7954 22 17.5433V13.4568Z"
        fill="#137CBD"
      />
      <path
        fill-rule="evenodd"
        clip-rule="evenodd"
        d="M22 2.39118C22 2.17523 21.8107 2 21.5779 2H0.422025C0.189196 2 0 2.17523 0 2.39118V11.6088C0 11.8248 0.189196 12 0.422025 12H21.5779C21.8107 12 22 11.8248 22 11.6088V2.39118Z"
        fill="#48AFF0"
      />
    </svg>