<svg width="102" height="23" viewBox="0 0 102 23" fill="none" xmlns="http://www.w3.org/2000/svg">
<path d="M39.6764 7.00497V4.37402C39.6764 3.74617 39.497 3.08845 39.1383 2.55029C38.8692 2.16163 37.9424 1.20492 37.5238 0.905939C36.9259 0.487392 36.1186 0.248215 35.4011 0.248215H27V18.1267H30.1392V11.071H33.5774L36.896 18.1267H40.3043L36.7465 10.8318C37.0156 10.7421 37.2846 10.5926 37.5238 10.4133C37.9424 10.1143 38.8692 9.21737 39.1383 8.8287C39.497 8.29056 39.6764 7.66271 39.6764 7.00497ZM36.5372 6.97508C36.5372 7.03487 36.5073 7.09467 36.5073 7.09467C36.2681 7.51322 35.6702 8.08128 35.4011 8.08128H30.1392V3.23792H35.5506C35.8496 3.26782 36.3279 3.86577 36.5073 4.19463C36.5372 4.25444 36.5372 4.40391 36.5372 4.40391V6.97508V6.97508Z" fill="white"/>
<path d="M55.8502 14.3597V8.97818C55.8502 8.38023 55.7605 7.72249 55.342 7.15445C55.1028 6.79567 54.3554 6.04825 53.9069 5.71938C53.309 5.30082 52.4719 5.06164 51.7244 5.06164H48.9141C48.1667 5.06164 47.3594 5.30082 46.7615 5.71938C46.313 6.04825 45.5357 6.79567 45.2965 7.15445C44.878 7.72249 44.7883 8.38023 44.7883 8.97818V14.3597C44.7883 14.9576 44.878 15.6154 45.2965 16.1834C45.5357 16.5422 46.313 17.3195 46.7615 17.6484C47.3594 18.0669 48.1667 18.2762 48.9141 18.2762H51.7244C52.4719 18.2762 53.309 18.0669 53.9069 17.6484C54.3554 17.3195 55.1028 16.5422 55.342 16.1834C55.7605 15.6154 55.8502 14.9576 55.8502 14.3597ZM47.778 9.06787C47.778 9.06787 47.778 8.94829 47.8079 8.88848C48.0172 8.52972 48.4357 8.14105 48.7945 7.93177C48.8543 7.90188 48.8842 7.90188 48.944 7.90188H51.6945C51.7543 7.90188 51.7842 7.90188 51.844 7.93177C52.2028 8.14105 52.6512 8.58951 52.8306 8.88848C52.8605 8.97818 52.8605 9.03797 52.8605 9.06787V14.5092C52.8306 14.7483 52.143 15.2267 51.8739 15.3762C51.8141 15.4061 51.7543 15.436 51.6945 15.436H48.944C48.8244 15.436 48.7646 15.4061 48.7646 15.4061C48.4058 15.1968 47.778 14.7483 47.778 14.5092V9.06787V9.06787Z" fill="white"/>
<path d="M63.4733 18.1268L63.0846 15.4958V0.248252H60.0949V15.8247C60.0949 15.8247 60.364 17.5288 60.4536 18.1268H63.4733V18.1268Z" fill="white"/>
<path d="M71.0965 18.1268L70.7078 15.4958V0.248252H67.7181V15.8247C67.7181 15.8247 67.9872 17.5288 68.0769 18.1268H71.0965V18.1268Z" fill="white"/>
<path d="M86.4033 18.1267L86.1342 15.4659V5.21116H83.1445V14.2102C82.7558 14.6288 81.6796 15.4061 81.3806 15.4061H79.2579C79.1682 15.4061 79.1383 15.4061 79.0785 15.3762C78.7496 15.1669 78.2713 14.8081 78.0919 14.4793C78.062 14.4195 78.062 14.2999 78.062 14.27V5.21116H75.0723V14.3298C75.0723 14.9277 75.1919 15.5855 75.6104 16.1535C75.8496 16.5123 76.597 17.2896 77.0455 17.6185C77.6434 18.0371 78.4805 18.2463 79.228 18.2463H81.4703C82.1579 18.2463 82.8157 17.768 83.3538 17.3793L83.4734 18.1267H86.4033Z" fill="white"/>
<path d="M101.8 14.3298V9.03801C101.8 8.38027 101.65 7.75242 101.262 7.18438C101.022 6.82562 100.275 6.04828 99.8265 5.71942C99.2585 5.30086 98.4213 5.06168 97.6739 5.06168H95.4914C94.7739 5.06168 94.0862 5.45035 93.5481 5.8689L93.4285 5.21117H90.4687L90.7377 7.87202V23H93.7275V17.5886C94.2357 17.9474 94.8636 18.2762 95.4914 18.2762H97.6739C98.4213 18.2762 99.2285 18.067 99.8265 17.6484C100.305 17.3195 101.022 16.5123 101.262 16.1834C101.65 15.6453 101.8 14.9876 101.8 14.3298V14.3298ZM98.81 14.27C98.81 14.3597 98.7801 14.4195 98.7801 14.4195C98.5708 14.7783 98.1523 15.1968 97.8234 15.4061C97.7636 15.436 97.7337 15.436 97.644 15.436H95.5811C95.2223 15.436 94.1161 14.569 93.7275 14.1205V9.24729C94.1161 8.79883 95.2522 7.90191 95.5811 7.90191H97.644C97.7038 7.90191 97.7636 7.93181 97.8234 7.9617C98.1523 8.17099 98.5708 8.55966 98.7801 8.91841C98.7801 8.91841 98.81 8.97822 98.81 9.0978V14.27V14.27Z" fill="white"/>
<path fill-rule="evenodd" clip-rule="evenodd" d="M17 14.3442C17 14.1647 16.8543 14.019 16.675 14.019H0.334724C0.155397 14.019 0.00967789 14.1647 0.00967789 14.3442V17.0907C0.00967789 17.2702 0.155397 17.4159 0.334724 17.4159H16.675C16.8543 17.4159 17 17.2702 17 17.0907V14.3442Z" fill="#0E5A8A"/>
<path fill-rule="evenodd" clip-rule="evenodd" d="M16.9632 9.76502C16.9632 9.58551 16.8174 9.43986 16.6381 9.43986H0.325046C0.145719 9.43986 0 9.58551 0 9.76502V12.6737C0 12.8532 0.145719 12.9988 0.325046 12.9988H16.6381C16.8174 12.9988 16.9632 12.8532 16.9632 12.6737V9.76502Z" fill="#137CBD"/>
<path fill-rule="evenodd" clip-rule="evenodd" d="M16.9538 0.32516C16.9538 0.145655 16.808 0 16.6287 0H0.334331C0.155005 0 0.00928497 0.145655 0.00928497 0.32516V7.9872C0.00928497 8.1667 0.155005 8.31236 0.334331 8.31236H16.6287C16.808 8.31236 16.9538 8.1667 16.9538 7.9872V0.32516Z" fill="#48AFF0"/>
</svg>
