<svg width="224" height="56" viewBox="0 0 224 56" fill="none" xmlns="http://www.w3.org/2000/svg">
<path d="M215 33.5L217.25 29.6029L221.75 29.6029L224 33.5L221.75 37.3971L217.25 37.3971L215 33.5Z" fill="#666666"/>
<path d="M196.576 34.6266C195.103 32.9556 194.366 30.757 194.366 28.0306C194.366 25.3042 195.103 23.1165 196.576 21.4675C198.049 19.7965 199.841 18.961 201.952 18.961C203.315 18.961 204.601 19.4337 205.81 20.3792C206.316 20.7969 206.734 21.2586 207.064 21.7643H207.393V11.5193H212.5V36.6054H207.393V34.2968H207.064C206.756 34.8245 206.338 35.2972 205.81 35.715C204.623 36.6384 203.337 37.1002 201.952 37.1002C199.841 37.1002 198.049 36.2756 196.576 34.6266ZM201.127 24.8645C200.468 25.612 200.138 26.6674 200.138 28.0306C200.138 29.3938 200.468 30.4491 201.127 31.1967C201.787 31.9442 202.666 32.318 203.766 32.318C204.865 32.318 205.744 31.9442 206.404 31.1967C207.064 30.4491 207.393 29.3938 207.393 28.0306C207.393 26.6674 207.064 25.612 206.404 24.8645C205.744 24.1169 204.865 23.7432 203.766 23.7432C202.666 23.7432 201.787 24.1169 201.127 24.8645Z" fill="#666666"/>
<path d="M175.77 34.4677C173.923 32.6868 173 30.5541 173 28.0696C173 25.5851 173.923 23.4523 175.77 21.6714C177.617 19.8905 179.882 19 182.564 19C185.247 19 187.511 19.8905 189.358 21.6714C191.205 23.4523 192.129 25.5851 192.129 28.0696C192.129 30.5541 191.205 32.6868 189.358 34.4677C187.511 36.2487 185.247 37.1391 182.564 37.1391C179.882 37.1391 177.617 36.2487 175.77 34.4677ZM179.827 24.9694C179.123 25.739 178.772 26.7723 178.772 28.0696C178.772 29.3668 179.123 30.4112 179.827 31.2027C180.552 31.9722 181.465 32.357 182.564 32.357C183.664 32.357 184.565 31.9722 185.269 31.2027C185.994 30.4112 186.357 29.3668 186.357 28.0696C186.357 26.7723 185.994 25.739 185.269 24.9694C184.565 24.1779 183.664 23.7821 182.564 23.7821C181.465 23.7821 180.552 24.1779 179.827 24.9694Z" fill="#666666"/>
<path d="M154.423 34.4292C152.576 32.6482 151.652 30.5155 151.652 28.031C151.652 25.5465 152.576 23.4138 154.423 21.6328C156.27 19.8519 158.534 18.9614 161.217 18.9614C163.899 18.9614 166.164 19.8519 168.011 21.6328C169.857 23.4138 170.781 25.5465 170.781 28.031C170.781 30.5155 169.857 32.6482 168.011 34.4292C166.164 36.2101 163.899 37.1006 161.217 37.1006C158.534 37.1006 156.27 36.2101 154.423 34.4292ZM158.479 24.9308C157.776 25.7004 157.424 26.7338 157.424 28.031C157.424 29.3282 157.776 30.3726 158.479 31.1641C159.205 31.9337 160.117 32.3184 161.217 32.3184C162.316 32.3184 163.217 31.9337 163.921 31.1641C164.647 30.3726 165.009 29.3282 165.009 28.031C165.009 26.7338 164.647 25.7004 163.921 24.9308C163.217 24.1393 162.316 23.7436 161.217 23.7436C160.117 23.7436 159.205 24.1393 158.479 24.9308Z" fill="#666666"/>
<path d="M123 19.4558H128.772L130.75 30.6691H131.245L133.389 19.4558H139.985L142.129 30.6691H142.623L144.602 19.4558H150.374L146.911 36.6055H138.995L136.852 25.3923H136.522L134.378 36.6055H126.463L123 19.4558Z" fill="#666666"/>
<path d="M106.402 34.4289C104.577 32.648 103.665 30.5153 103.665 28.0307C103.665 25.5462 104.577 23.4135 106.402 21.6326C108.227 19.8516 110.448 18.9612 113.064 18.9612C115.725 18.9612 117.956 19.8516 119.759 21.6326C121.562 23.4135 122.464 25.5462 122.464 28.0307V29.0202H109.437C109.612 30.1855 110.008 31.0869 110.624 31.7245C111.261 32.3402 112.075 32.648 113.064 32.648C114.23 32.648 115.109 32.3512 115.703 31.7575C115.967 31.5157 116.187 31.2078 116.362 30.8341H122.299C121.903 32.0433 121.309 33.0877 120.518 33.9672C118.781 36.0559 116.296 37.1003 113.064 37.1003C110.448 37.1003 108.227 36.2098 106.402 34.4289ZM109.601 26.2168H116.527C116.329 25.4253 115.923 24.7657 115.307 24.238C114.691 23.6883 113.944 23.4135 113.064 23.4135C112.185 23.4135 111.437 23.6883 110.822 24.238C110.206 24.7657 109.799 25.4253 109.601 26.2168Z" fill="#666666"/>
<path d="M85.2531 34.0908C83.751 32.4582 83 30.3512 83 27.7699C83 25.1886 83.751 23.0816 85.2531 21.449C86.7552 19.8163 88.5823 19 90.7345 19C92.2814 19 93.6153 19.4413 94.7363 20.3238C95.2519 20.7209 95.6555 21.1621 95.9469 21.6475H96.2832V19.4964H102V42C102 43.6569 100.657 45 99 45H87.3933V40.5323H96.2832V34.0577H95.9469C95.633 34.5431 95.2295 34.9623 94.7363 35.3153C93.6378 36.1316 92.3038 36.5398 90.7345 36.5398C88.5823 36.5398 86.7552 35.7235 85.2531 34.0908ZM89.8938 24.8576C89.2212 25.5636 88.885 26.5344 88.885 27.7699C88.885 29.0054 89.2212 29.9762 89.8938 30.6822C90.5664 31.3882 91.4631 31.7412 92.5841 31.7412C93.705 31.7412 94.6018 31.3882 95.2743 30.6822C95.9469 29.9762 96.2832 29.0054 96.2832 27.7699C96.2832 26.5344 95.9469 25.5636 95.2743 24.8576C94.6018 24.1516 93.705 23.7986 92.5841 23.7986C91.4631 23.7986 90.5664 24.1516 89.8938 24.8576Z" fill="#666666"/>
<path d="M63.6211 36.6058V19.4561H69.2277V21.7647H69.5575C69.8653 21.2371 70.2611 20.7753 70.7448 20.3796C71.8662 19.4341 73.1744 18.9614 74.6695 18.9614C76.6923 18.9614 78.2643 19.5771 79.3856 20.8083C80.529 22.0176 81.1006 23.7655 81.1006 26.0522V36.6058H75.494V26.8767C75.494 25.8873 75.2301 25.1177 74.7025 24.5681C74.1748 24.0184 73.4492 23.7436 72.5258 23.7436C71.5803 23.7436 70.7888 24.0953 70.1512 24.7989C69.5355 25.4805 69.2277 26.393 69.2277 27.5363V36.6058H63.6211Z" fill="#666666"/>
<path d="M43.2531 34.5455C41.751 32.8873 41 30.7055 41 28C41 25.2945 41.751 23.1236 43.2531 21.4873C44.7552 19.8291 46.5823 19 48.7345 19C50.1245 19 51.436 19.4691 52.669 20.4073C53.1847 20.8218 53.6106 21.28 53.9469 21.7818H54.2832V19.4909H60V36.5091H54.2832V34.2182H53.9469C53.633 34.7418 53.2071 35.2109 52.669 35.6255C51.4584 36.5418 50.1469 37 48.7345 37C46.5823 37 44.7552 36.1818 43.2531 34.5455ZM47.8938 24.8582C47.2212 25.6 46.885 26.6473 46.885 28C46.885 29.3527 47.2212 30.4 47.8938 31.1418C48.5664 31.8836 49.4631 32.2545 50.5841 32.2545C51.705 32.2545 52.6018 31.8836 53.2743 31.1418C53.9469 30.4 54.2832 29.3527 54.2832 28C54.2832 26.6473 53.9469 25.6 53.2743 24.8582C52.6018 24.1164 51.705 23.7455 50.5841 23.7455C49.4631 23.7455 48.5664 24.1164 47.8938 24.8582Z" fill="#666666"/>
<path d="M28.5156 36.6057V19.456H33.9574V21.9295H34.2872C34.485 21.4019 34.7819 20.9401 35.1776 20.5444C36.0791 19.5989 37.1784 19.1262 38.4757 19.1262H40.2236V24.568H37.4203C36.4309 24.568 35.6284 24.8758 35.0127 25.4914C34.4191 26.085 34.1223 26.8766 34.1223 27.866V36.6057H28.5156Z" fill="#666666"/>
<path d="M3.62783 33.7034C1.20927 31.3068 0 28.4265 0 25.0625C0 21.6986 1.20927 18.8293 3.62783 16.4547C6.06836 14.0581 9.14652 12.8599 12.8623 12.8599C16.5781 12.8599 19.6452 14.0581 22.0638 16.4547C24.5043 18.8293 25.7246 21.6986 25.7246 25.0625C25.7246 28.4265 24.5043 31.3068 22.0638 33.7034C19.6452 36.0779 16.5781 37.2652 12.8623 37.2652C9.14652 37.2652 6.06836 36.0779 3.62783 33.7034ZM8.21208 20.2804C7.02479 21.4897 6.43114 23.0837 6.43114 25.0625C6.43114 27.0414 7.02479 28.6354 8.21208 29.8447C9.39937 31.054 10.9494 31.6586 12.8623 31.6586C14.7751 31.6586 16.3252 31.054 17.5125 29.8447C18.6998 28.6354 19.2934 27.0414 19.2934 25.0625C19.2934 23.0837 18.6998 21.4897 17.5125 20.2804C16.3252 19.0711 14.7751 18.4665 12.8623 18.4665C10.9494 18.4665 9.39937 19.0711 8.21208 20.2804Z" fill="#666666"/>
</svg>
