<svg width="122" height="116" viewBox="0 0 122 116" fill="none" xmlns="http://www.w3.org/2000/svg">
<g clip-path="url(#clip0_4683_37295)">
<path d="M61.5005 109.874C32.851 109.874 9.62675 86.6485 9.62675 58.0004C9.62675 29.3508 32.851 6.12649 61.5005 6.12649C90.1486 6.12649 113.374 29.3508 113.374 58.0004C113.374 86.6485 90.1486 109.874 61.5005 109.874ZM115.851 66.6112C116.304 63.7303 119.5 61.0079 119.5 58.0004C119.5 54.9914 116.304 52.2697 115.851 49.3881C115.387 46.4305 117.581 42.8586 116.676 40.0718C115.755 37.2365 111.873 35.6365 110.536 33.0176C109.185 30.3704 110.162 26.2912 108.427 23.906C106.683 21.5093 102.497 21.185 100.406 19.0944C98.3157 17.003 97.9908 12.8174 95.5941 11.0741C93.2096 9.33805 89.1297 10.315 86.4825 8.96394C83.8636 7.62663 82.2636 3.74493 79.4276 2.82372C76.6415 1.91914 73.0689 4.11328 70.1113 3.64796C67.2304 3.19568 64.508 0 61.5005 0C58.4916 0 55.7699 3.19568 52.889 3.64796C49.9314 4.11328 46.3588 1.91914 43.572 2.82372C40.7367 3.74493 39.1367 7.62663 36.5178 8.96394C33.8706 10.315 29.7914 9.33807 27.4061 11.0734C25.0095 12.8174 24.6853 17.003 22.5946 19.0944C20.5034 21.185 16.318 21.5092 14.5742 23.9053C12.8383 26.2904 13.8152 30.3704 12.4643 33.0168C11.127 35.6365 7.24521 37.2365 6.32421 40.0718C5.41943 42.8586 7.61326 46.4313 7.14882 49.3888C6.69595 52.2697 3.5 54.9914 3.5 58.0004C3.5 61.0079 6.69595 63.7303 7.14882 66.6112C7.61326 69.5687 5.41964 73.1414 6.32421 75.9282C7.24521 78.7635 11.127 80.3635 12.464 82.9824C13.8152 85.6289 12.8383 89.7088 14.5739 92.094C16.318 94.49 20.5031 94.815 22.5943 96.9056C24.685 98.9962 25.0093 103.182 27.4058 104.926C29.7907 106.662 33.8706 105.685 36.517 107.036C39.1367 108.373 40.7367 112.255 43.5727 113.176C46.3588 114.081 49.9314 111.887 52.889 112.351C55.7699 112.804 58.4916 116 61.5005 116C64.508 116 67.2304 112.804 70.1113 112.351C73.0689 111.887 76.6415 114.081 79.4283 113.176C82.2636 112.255 83.8636 108.373 86.4825 107.036C89.1297 105.685 93.2089 106.662 95.5941 104.927C97.9901 103.183 98.315 98.997 100.406 96.9063C102.496 94.815 106.682 94.4908 108.426 92.094C110.162 89.7096 109.185 85.6296 110.536 82.9832C111.873 80.3635 115.755 78.7635 116.676 75.9282C117.581 73.1414 115.387 69.5687 115.851 66.6112Z" fill="#738091"/>
<path d="M109.692 57.8958C109.692 84.7878 87.891 106.588 60.999 106.588C34.1063 106.588 12.3057 84.7878 12.3057 57.8958C12.3057 31.0032 34.1063 9.20251 60.999 9.20251C87.891 9.20251 109.692 31.0032 109.692 57.8958Z" stroke="#738091" stroke-width="2" stroke-miterlimit="10"/>
<path d="M61.0005 22.8753C41.6314 22.8753 25.8735 38.6321 25.8735 58.0009C25.8735 77.3688 41.6314 93.1266 61.0005 93.1266C80.3686 93.1266 96.1256 77.3688 96.1256 58.0009C96.1256 38.6321 80.3686 22.8753 61.0005 22.8753ZM61.0005 94C41.1493 94 25 77.8509 25 58.0009C25 38.15 41.1493 22 61.0005 22C80.8507 22 97 38.15 97 58.0009C97 77.8509 80.8507 94 61.0005 94Z" fill="#738091"/>
<path d="M47.8312 50.1295H43.7784L43.0053 52H40.9353L44.8259 43.271H46.8211L50.7242 52H48.6043L47.8312 50.1295ZM47.1952 48.5957L45.811 45.2537L44.4269 48.5957H47.1952ZM51.6298 43.271H53.65V52H51.6298V43.271ZM59.899 52.1496C59.0095 52.1496 58.2031 51.9584 57.4798 51.576C56.7649 51.1853 56.1996 50.6491 55.7839 49.9674C55.3766 49.2774 55.1729 48.5001 55.1729 47.6355C55.1729 46.7709 55.3766 45.9978 55.7839 45.3161C56.1996 44.6261 56.7649 44.0899 57.4798 43.7074C58.2031 43.3167 59.0136 43.1214 59.9115 43.1214C60.668 43.1214 61.3497 43.2544 61.9566 43.5204C62.5718 43.7864 63.0872 44.1688 63.5028 44.6676L62.206 45.8648C61.6157 45.1831 60.8841 44.8422 60.0112 44.8422C59.4709 44.8422 58.9887 44.9628 58.5647 45.2038C58.1407 45.4366 57.8082 45.765 57.5671 46.189C57.3344 46.613 57.218 47.0951 57.218 47.6355C57.218 48.1759 57.3344 48.658 57.5671 49.082C57.8082 49.506 58.1407 49.8385 58.5647 50.0796C58.9887 50.3124 59.4709 50.4288 60.0112 50.4288C60.8841 50.4288 61.6157 50.0838 62.206 49.3938L63.5028 50.5909C63.0872 51.098 62.5718 51.4846 61.9566 51.7506C61.3414 52.0166 60.6555 52.1496 59.899 52.1496ZM68.6455 43.271C69.4186 43.271 70.0878 43.3999 70.6531 43.6576C71.2267 43.9153 71.6674 44.2811 71.9749 44.7549C72.2825 45.2288 72.4363 45.7899 72.4363 46.4384C72.4363 47.0785 72.2825 47.6397 71.9749 48.1218C71.6674 48.5957 71.2267 48.9615 70.6531 49.2192C70.0878 49.4686 69.4186 49.5933 68.6455 49.5933H66.8872V52H64.867V43.271H68.6455ZM68.5332 47.9472C69.1401 47.9472 69.6015 47.8184 69.9174 47.5607C70.2333 47.2947 70.3913 46.9206 70.3913 46.4384C70.3913 45.9479 70.2333 45.5738 69.9174 45.3161C69.6015 45.0501 69.1401 44.917 68.5332 44.917H66.8872V47.9472H68.5332ZM79.1888 50.1295H75.1361L74.363 52H72.2929L76.1836 43.271H78.1788L82.0819 52H79.962L79.1888 50.1295ZM78.5529 48.5957L77.1687 45.2537L75.7845 48.5957H78.5529Z" fill="#738091"/>
<path d="M42.3049 70.692C41.4195 70.692 40.5609 70.5747 39.7289 70.34C38.9075 70.0947 38.2462 69.78 37.7449 69.396L38.6249 67.444C39.1049 67.796 39.6755 68.0787 40.3369 68.292C40.9982 68.5053 41.6595 68.612 42.3209 68.612C43.0569 68.612 43.6009 68.5053 43.9529 68.292C44.3049 68.068 44.4809 67.7747 44.4809 67.412C44.4809 67.1453 44.3742 66.9267 44.1609 66.756C43.9582 66.5747 43.6915 66.4307 43.3609 66.324C43.0409 66.2173 42.6035 66.1 42.0489 65.972C41.1955 65.7693 40.4969 65.5667 39.9529 65.364C39.4089 65.1613 38.9395 64.836 38.5449 64.388C38.1609 63.94 37.9689 63.3427 37.9689 62.596C37.9689 61.9453 38.1449 61.3587 38.4969 60.836C38.8489 60.3027 39.3769 59.8813 40.0809 59.572C40.7955 59.2627 41.6649 59.108 42.6889 59.108C43.4035 59.108 44.1022 59.1933 44.7849 59.364C45.4675 59.5347 46.0649 59.78 46.5769 60.1L45.7769 62.068C44.7422 61.4813 43.7075 61.188 42.6729 61.188C41.9475 61.188 41.4089 61.3053 41.0569 61.54C40.7155 61.7747 40.5449 62.084 40.5449 62.468C40.5449 62.852 40.7422 63.14 41.1369 63.332C41.5422 63.5133 42.1555 63.6947 42.9769 63.876C43.8302 64.0787 44.5289 64.2813 45.0729 64.484C45.6169 64.6867 46.0809 65.0067 46.4649 65.444C46.8595 65.8813 47.0569 66.4733 47.0569 67.22C47.0569 67.86 46.8755 68.4467 46.5129 68.98C46.1609 69.5027 45.6275 69.9187 44.9129 70.228C44.1982 70.5373 43.3289 70.692 42.3049 70.692ZM54.252 70.692C53.0893 70.692 52.0387 70.4413 51.1 69.94C50.172 69.4387 49.4413 68.7507 48.908 67.876C48.3853 66.9907 48.124 65.9987 48.124 64.9C48.124 63.8013 48.3853 62.8147 48.908 61.94C49.4413 61.0547 50.172 60.3613 51.1 59.86C52.0387 59.3587 53.0893 59.108 54.252 59.108C55.4147 59.108 56.46 59.3587 57.388 59.86C58.316 60.3613 59.0467 61.0547 59.58 61.94C60.1133 62.8147 60.38 63.8013 60.38 64.9C60.38 65.9987 60.1133 66.9907 59.58 67.876C59.0467 68.7507 58.316 69.4387 57.388 69.94C56.46 70.4413 55.4147 70.692 54.252 70.692ZM54.252 68.484C54.9133 68.484 55.5107 68.3347 56.044 68.036C56.5773 67.7267 56.9933 67.3 57.292 66.756C57.6013 66.212 57.756 65.5933 57.756 64.9C57.756 64.2067 57.6013 63.588 57.292 63.044C56.9933 62.5 56.5773 62.0787 56.044 61.78C55.5107 61.4707 54.9133 61.316 54.252 61.316C53.5907 61.316 52.9933 61.4707 52.46 61.78C51.9267 62.0787 51.5053 62.5 51.196 63.044C50.8973 63.588 50.748 64.2067 50.748 64.9C50.748 65.5933 50.8973 66.212 51.196 66.756C51.5053 67.3 51.9267 67.7267 52.46 68.036C52.9933 68.3347 53.5907 68.484 54.252 68.484ZM67.688 70.692C66.5467 70.692 65.512 70.4467 64.584 69.956C63.6667 69.4547 62.9413 68.7667 62.408 67.892C61.8853 67.0067 61.624 66.0093 61.624 64.9C61.624 63.7907 61.8853 62.7987 62.408 61.924C62.9413 61.0387 63.6667 60.3507 64.584 59.86C65.512 59.3587 66.552 59.108 67.704 59.108C68.6747 59.108 69.5493 59.2787 70.328 59.62C71.1173 59.9613 71.7787 60.452 72.312 61.092L70.648 62.628C69.8907 61.7533 68.952 61.316 67.832 61.316C67.1387 61.316 66.52 61.4707 65.976 61.78C65.432 62.0787 65.0053 62.5 64.696 63.044C64.3973 63.588 64.248 64.2067 64.248 64.9C64.248 65.5933 64.3973 66.212 64.696 66.756C65.0053 67.3 65.432 67.7267 65.976 68.036C66.52 68.3347 67.1387 68.484 67.832 68.484C68.952 68.484 69.8907 68.0413 70.648 67.156L72.312 68.692C71.7787 69.3427 71.1173 69.8387 70.328 70.18C69.5387 70.5213 68.6587 70.692 67.688 70.692ZM86.2576 68.388V70.5H77.7936V68.82L82.1136 64.74C82.5723 64.3027 82.8816 63.9293 83.0416 63.62C83.2016 63.3 83.2816 62.9853 83.2816 62.676C83.2816 62.228 83.127 61.8867 82.8176 61.652C82.519 61.4067 82.0763 61.284 81.4896 61.284C80.999 61.284 80.5563 61.38 80.1616 61.572C79.767 61.7533 79.4363 62.0307 79.1696 62.404L77.2816 61.188C77.719 60.5373 78.3216 60.0307 79.0896 59.668C79.8576 59.2947 80.7376 59.108 81.7296 59.108C82.5616 59.108 83.287 59.2467 83.9056 59.524C84.535 59.7907 85.0203 60.1747 85.3616 60.676C85.7136 61.1667 85.8896 61.748 85.8896 62.42C85.8896 63.028 85.7616 63.5987 85.5056 64.132C85.2496 64.6653 84.7536 65.2733 84.0176 65.956L81.4416 68.388H86.2576Z" fill="#738091"/>
<path d="M21.5173 62.8818L21.6289 63.5788L20.8805 63.9668L21.1107 65.4042L21.9429 65.539L22.0546 66.2359L18.128 65.5501L18.0004 64.7536L21.5173 62.8818ZM18.8171 65.0313L20.4556 65.2985L20.2911 64.2718L18.8171 65.0313Z" fill="#738091"/>
<path d="M21.4245 61.5234L21.4836 62.1824L17.7301 62.5193L17.6709 61.8602L21.4245 61.5234Z" fill="#738091"/>
<path d="M21.3265 58.5467L21.3441 59.4036C21.3478 59.5842 21.3004 59.7344 21.202 59.8541C21.1036 59.9737 21.0111 60.0744 20.9245 60.156C20.7762 60.2977 20.6054 60.3706 20.4121 60.3745L18.4841 60.414C18.3035 60.4177 18.1533 60.3703 18.0336 60.2719C17.914 60.1735 17.8133 60.081 17.7317 59.9945C17.59 59.8461 17.5171 59.6753 17.5132 59.482L17.4957 58.6251C17.4906 58.3773 17.6243 58.135 17.8968 57.8983C18.0165 57.7908 18.1305 57.715 18.2388 57.6707L18.4222 58.3162C18.3351 58.3726 18.2649 58.4329 18.2116 58.497C18.1541 58.5612 18.1256 58.6059 18.1261 58.6311L18.143 59.4565C18.1435 59.4817 18.1888 59.5376 18.2788 59.624C18.3688 59.7104 18.4264 59.7533 18.4516 59.7528L20.4175 59.7125C20.4427 59.712 20.4985 59.6668 20.5849 59.5767C20.6713 59.4867 20.7143 59.4291 20.7137 59.4039L20.697 58.5848C20.6964 58.5554 20.6682 58.5119 20.6123 58.4542C20.5523 58.3924 20.4775 58.333 20.3881 58.276L20.5449 57.6235C20.655 57.6633 20.772 57.7344 20.896 57.8369C21.1779 58.0623 21.3215 58.2989 21.3265 58.5467Z" fill="#738091"/>
<path d="M18.2029 53.4192C18.3221 53.3434 18.457 53.3109 18.6079 53.3216L19.2365 53.3662C19.3874 53.377 19.5164 53.4282 19.6236 53.5201C19.7305 53.6161 19.824 53.7239 19.9039 53.8433C19.9797 53.9624 20.0123 54.0974 20.0015 54.2482L19.9176 55.4301L21.4011 55.5355L21.3542 56.1955L17.595 55.9284L17.7259 54.0866C17.7366 53.9357 17.7879 53.8067 17.8798 53.6995C17.9758 53.5926 18.0835 53.4991 18.2029 53.4192ZM19.1331 54.0223L18.6176 53.9857C18.5757 53.9827 18.5211 54.0104 18.4537 54.0688C18.3864 54.1272 18.3513 54.1773 18.3483 54.2192L18.2706 55.313L19.2889 55.3854L19.3667 54.2916C19.3696 54.2497 19.3419 54.1951 19.2835 54.1277C19.2251 54.0604 19.175 54.0253 19.1331 54.0223Z" fill="#738091"/>
<path d="M22.1367 50.081L22.0207 50.7772L21.1877 50.9067L20.9483 52.3427L21.6943 52.7354L21.5782 53.4316L18.0743 51.5314L18.2069 50.7357L22.1367 50.081ZM18.8928 51.2589L20.3609 52.0339L20.5319 51.0082L18.8928 51.2589Z" fill="#738091"/>
<path d="M23.3238 45.9766L23.0043 46.9992C22.9304 47.2358 22.7266 47.4231 22.3931 47.5609C22.2454 47.6249 22.1132 47.6606 21.9964 47.6681L22.0276 46.9978C22.1293 46.9679 22.2171 46.9337 22.2907 46.8951C22.3617 46.8513 22.4015 46.8153 22.4103 46.7872L22.7185 45.8007C22.726 45.7766 22.7008 45.7093 22.6429 45.5988C22.585 45.4883 22.544 45.4293 22.52 45.4217L22.165 45.3109C22.1049 45.2921 22.0633 45.3055 22.0402 45.3511L21.1065 46.776C21.02 46.9119 20.9015 47.0025 20.7509 47.0479C20.6015 47.0893 20.4526 47.0868 20.3042 47.0404L20.0035 46.9464C19.831 46.8926 19.7037 46.8 19.6215 46.6687C19.5392 46.5373 19.4732 46.4177 19.4233 46.3096C19.3361 46.1239 19.3213 45.9388 19.3789 45.7544L19.6533 44.8761C19.7272 44.6395 19.9309 44.4523 20.2645 44.3144C20.4121 44.2505 20.5443 44.2147 20.6611 44.2072L20.63 44.8775C20.5295 44.9034 20.4438 44.9382 20.3729 44.9821C20.2979 45.0247 20.2567 45.058 20.2492 45.0821L19.9842 45.9303C19.9767 45.9543 20.0019 46.0216 20.0598 46.1321C20.1177 46.2427 20.1587 46.3017 20.1827 46.3092L20.4655 46.3975C20.5256 46.4163 20.5666 46.4049 20.5884 46.3633L21.536 44.9361C21.6265 44.8015 21.7464 44.7135 21.8958 44.6722C22.0464 44.6268 22.1939 44.6266 22.3383 44.6717L22.6992 44.7845C22.8717 44.8384 22.999 44.931 23.0812 45.0623C23.1634 45.1936 23.2295 45.3133 23.2794 45.4213C23.3666 45.607 23.3814 45.7921 23.3238 45.9766Z" fill="#738091"/>
<path d="M21.5726 40.0175L22.1543 40.2598L21.4976 41.8364L22.3761 42.2023L22.9867 40.7363L23.5685 40.9786L22.9578 42.4446L23.813 42.8008L24.4697 41.2243L25.0515 41.4666L24.1403 43.654L20.6614 42.2049L21.5726 40.0175Z" fill="#738091"/>
<path d="M26.6826 38.3811L26.3352 39.0387L24.6934 38.9626L24.3579 39.5979L25.673 40.2925L25.3639 40.8776L22.0316 39.1175L22.8939 37.4848C22.9646 37.351 23.0635 37.2536 23.1908 37.1926C23.3218 37.1335 23.4581 37.0914 23.5996 37.0664C23.7391 37.045 23.8758 37.0697 24.0095 37.1403L24.5668 37.4347C24.7005 37.5053 24.7979 37.6043 24.859 37.7315C24.9181 37.8625 24.9602 37.9988 24.9852 38.1403C24.9968 38.2082 24.9973 38.2703 24.9867 38.3264L26.6826 38.3811ZM23.41 37.8571L22.8979 38.8267L23.8006 39.3036L24.3128 38.3339C24.3324 38.2968 24.329 38.2356 24.3027 38.1505C24.2765 38.0653 24.2447 38.0129 24.2076 37.9933L23.7506 37.7519C23.7135 37.7323 23.6523 37.7357 23.5672 37.7619C23.482 37.7882 23.4296 37.82 23.41 37.8571Z" fill="#738091"/>
<path d="M27.4639 35.7491L25.4616 33.326L25.8397 32.7449L28.3352 35.8197L27.8781 36.5223L24.0593 35.4812L24.4477 34.8843L27.4639 35.7491Z" fill="#738091"/>
<path d="M29.6075 34.0973L29.2092 34.6257L26.1997 32.3573L26.598 31.8289L29.6075 34.0973Z" fill="#738091"/>
<path d="M31.5397 31.8246L30.9777 32.4717C30.8593 32.6081 30.7234 32.6877 30.5702 32.7104C30.4169 32.7331 30.2808 32.7457 30.1618 32.7481C29.9567 32.7536 29.7812 32.693 29.6353 32.5663L28.1792 31.3019C28.0428 31.1834 27.9632 31.0476 27.9405 30.8943C27.9178 30.741 27.9052 30.6049 27.9028 30.486C27.8973 30.2809 27.9579 30.1053 28.0846 29.9594L28.6466 29.3123C28.8091 29.1251 29.0708 29.0352 29.4317 29.0425C29.5926 29.0431 29.728 29.0633 29.838 29.1032L29.5409 29.7049C29.4385 29.6883 29.346 29.6859 29.2634 29.6977C29.1777 29.7067 29.1266 29.7207 29.11 29.7397L28.5687 30.3631C28.5522 30.3821 28.5483 30.4539 28.5571 30.5784C28.5659 30.7028 28.5798 30.7733 28.5988 30.7898L30.0834 32.0791C30.1025 32.0956 30.1742 32.0995 30.2987 32.0907C30.4231 32.0819 30.4936 32.068 30.5102 32.049L31.0473 31.4304C31.0666 31.4082 31.0749 31.357 31.0722 31.2767C31.0692 31.1906 31.0536 31.0964 31.0255 30.9941L31.5796 30.6156C31.6345 30.7189 31.6736 30.8502 31.6967 31.0094C31.7546 31.3657 31.7022 31.6374 31.5397 31.8246Z" fill="#738091"/>
<path d="M32.3144 25.6747L32.7505 26.1297L31.5176 27.3116L32.1762 27.9985L33.3226 26.8995L33.7587 27.3544L32.6123 28.4534L33.2534 29.1222L34.4863 27.9403L34.9224 28.3952L33.2118 30.0351L30.6038 27.3145L32.3144 25.6747Z" fill="#738091"/>
<path d="M38.3473 25.812L37.5677 26.3687C37.4207 26.4737 37.27 26.5193 37.1157 26.5056C36.9613 26.4919 36.826 26.4724 36.7098 26.4469C36.5091 26.4044 36.3526 26.3045 36.2403 26.1472L35.1196 24.5778C35.0146 24.4308 34.969 24.2801 34.9827 24.1258C34.9964 23.9714 35.016 23.8362 35.0414 23.7199C35.0839 23.5192 35.1838 23.3627 35.3411 23.2504L36.1207 22.6937C36.2677 22.5887 36.4184 22.5431 36.5727 22.5568C36.727 22.5705 36.8623 22.59 36.9786 22.6155C37.1793 22.658 37.3358 22.7579 37.4481 22.9152L38.5687 24.4846C38.6737 24.6316 38.7194 24.7823 38.7057 24.9366C38.692 25.091 38.6724 25.2262 38.647 25.3425C38.6045 25.5432 38.5046 25.6997 38.3473 25.812ZM35.6472 24.1779L36.7898 25.7781C36.8044 25.7986 36.8733 25.8191 36.9964 25.8397C37.1194 25.8602 37.1912 25.8631 37.2117 25.8485L37.9708 25.3065C37.9913 25.2918 38.0118 25.223 38.0324 25.0999C38.0529 24.9768 38.0559 24.905 38.0412 24.8845L36.8986 23.2843C36.8839 23.2638 36.8151 23.2433 36.692 23.2227C36.5689 23.2022 36.4971 23.1993 36.4766 23.2139L35.7176 23.7559C35.697 23.7706 35.6765 23.8394 35.656 23.9625C35.6355 24.0856 35.6325 24.1574 35.6472 24.1779Z" fill="#738091"/>
<path d="M42.71 23.0961L42.0657 23.4673L40.7171 22.5277L40.0946 22.8864L40.837 24.1751L40.2636 24.5054L38.3824 21.2399L39.9824 20.3181C40.1134 20.2426 40.2491 20.213 40.3893 20.2292C40.5317 20.249 40.6694 20.286 40.8024 20.3403C40.9319 20.3966 41.0344 20.4903 41.1099 20.6214L41.4244 21.1675C41.4999 21.2985 41.5296 21.4342 41.5134 21.5744C41.4936 21.7167 41.4566 21.8544 41.4023 21.9875C41.3759 22.0512 41.3433 22.1039 41.3044 22.1458L42.71 23.0961ZM40.2205 20.9083L39.2703 21.4556L39.78 22.3403L40.7302 21.7929C40.7666 21.7719 40.7963 21.7184 40.8195 21.6323C40.8426 21.5463 40.8437 21.485 40.8227 21.4486L40.5648 21.0008C40.5438 20.9644 40.4903 20.9347 40.4042 20.9115C40.3182 20.8884 40.2569 20.8873 40.2205 20.9083Z" fill="#738091"/>
<path d="M45.5595 20.8195L46.0317 21.5743L45.4401 21.8414L45.3492 21.7165C45.2576 21.8916 45.164 22.0007 45.0683 22.0439L44.2297 22.4225C44.065 22.4969 43.9083 22.5123 43.7596 22.4688C43.6109 22.4253 43.482 22.3798 43.373 22.3322C43.1844 22.2514 43.0503 22.123 42.9708 21.9468L42.1772 20.1892C42.1028 20.0246 42.0874 19.8679 42.1309 19.7192C42.1744 19.5705 42.2199 19.4416 42.2675 19.3325C42.3483 19.1439 42.4767 19.0099 42.6529 18.9303L43.4857 18.5543C43.7117 18.4523 43.987 18.4801 44.3117 18.6377C44.4576 18.7056 44.5721 18.7806 44.6554 18.8629L44.1338 19.2851C44.0477 19.2271 43.9647 19.1862 43.8848 19.1624C43.8031 19.1347 43.7508 19.1261 43.7278 19.1364L42.9237 19.4995C42.9007 19.5099 42.8672 19.5734 42.8231 19.6902C42.779 19.8069 42.7621 19.8767 42.7725 19.8997L43.5816 21.6918C43.592 21.7147 43.6556 21.7483 43.7723 21.7924C43.889 21.8365 43.9588 21.8533 43.9818 21.843L44.7974 21.4747C44.8204 21.4643 44.8539 21.4008 44.8981 21.2841C44.9422 21.1674 44.959 21.0975 44.9487 21.0745L44.6919 20.5059L43.951 20.8404L43.6916 20.2661L45.0357 19.6592L45.5595 20.8195Z" fill="#738091"/>
<path d="M50.109 20.1532L49.44 20.3783L48.9339 19.7042L47.5541 20.1685L47.5586 21.0114L46.8896 21.2366L46.918 17.2507L47.6826 16.9934L50.109 20.1532ZM47.5435 17.8448L47.5503 19.5048L48.5358 19.1732L47.5435 17.8448Z" fill="#738091"/>
<path d="M52.4048 18.3568L51.819 15.8791L52.463 15.7268L53.3301 19.3944L52.6494 19.5553L50.772 17.4218L51.3492 19.8627L50.7052 20.015L49.8381 16.3475L50.5311 16.1836L52.4048 18.3568Z" fill="#738091"/>
<path d="M55.1368 19.1033L54.4838 19.2105L53.8733 15.4916L54.5263 15.3844L55.1368 19.1033Z" fill="#738091"/>
<path d="M56.0419 15.1751L58.5132 14.9341L58.5664 15.4798L57.1619 18.2192L58.8178 18.0577L58.879 18.685L56.4076 18.9259L56.3557 18.3928L57.759 15.6408L56.1031 15.8023L56.0419 15.1751Z" fill="#738091"/>
<path d="M62.4739 18.6352L61.7681 18.6442L61.4932 17.8473L60.0375 17.866L59.7831 18.6697L59.0774 18.6788L60.3272 14.8938L61.1338 14.8834L62.4739 18.6352ZM60.7402 15.6511L60.2374 17.2332L61.2772 17.2198L60.7402 15.6511Z" fill="#738091"/>
<path d="M63.844 14.9701L66.5393 15.1821L66.4899 15.8104L65.4721 15.7303L65.226 18.8591L64.5663 18.8072L64.8124 15.6784L63.7946 15.5984L63.844 14.9701Z" fill="#738091"/>
<path d="M67.4173 19.1637L66.7631 19.0647L67.3269 15.3384L67.9811 15.4374L67.4173 19.1637Z" fill="#738091"/>
<path d="M70.2836 19.7713L69.3498 19.5576C69.1737 19.5173 69.0396 19.4349 68.9474 19.3104C68.8552 19.1858 68.7801 19.0717 68.7219 18.9678C68.6205 18.7895 68.5914 18.6061 68.6345 18.4177L69.0646 16.5378C69.1049 16.3617 69.1873 16.2276 69.3119 16.1354C69.4364 16.0432 69.5506 15.9681 69.6544 15.9099C69.8328 15.8085 70.0161 15.7794 70.2045 15.8225L71.1383 16.0361C71.3144 16.0764 71.4486 16.1589 71.5408 16.2834C71.6329 16.4079 71.7081 16.5221 71.7662 16.6259C71.8676 16.8043 71.8968 16.9877 71.8537 17.1761L71.4235 19.0559C71.3832 19.232 71.3008 19.3662 71.1763 19.4583C71.0517 19.5505 70.9376 19.6257 70.8338 19.6838C70.6554 19.7852 70.472 19.8144 70.2836 19.7713ZM69.7139 16.667L69.2753 18.5837C69.2697 18.6083 69.3 18.6734 69.3663 18.7791C69.4327 18.8848 69.4781 18.9405 69.5027 18.9461L70.4119 19.1541C70.4365 19.1598 70.5016 19.1294 70.6073 19.0631C70.713 18.9968 70.7686 18.9513 70.7743 18.9267L71.2129 17.01C71.2185 16.9854 71.1881 16.9203 71.1218 16.8146C71.0555 16.7089 71.01 16.6533 70.9855 16.6477L70.0762 16.4396C70.0517 16.434 69.9865 16.4643 69.8809 16.5307C69.7752 16.597 69.7195 16.6424 69.7139 16.667Z" fill="#738091"/>
<path d="M74.8167 19.8061L75.6206 17.3903L76.2485 17.5993L75.0586 21.1751L74.3948 20.9543L73.9191 18.1525L73.1271 20.5324L72.4993 20.3235L73.6892 16.7476L74.3649 16.9725L74.8167 19.8061Z" fill="#738091"/>
<path d="M79.2766 23.1154L78.5088 22.7345C78.3469 22.6543 78.2357 22.5428 78.1752 22.4002C78.1146 22.2576 78.0681 22.1291 78.0358 22.0145C77.9788 21.8174 77.9932 21.6323 78.0791 21.4592L78.936 19.7316C79.0163 19.5697 79.1277 19.4585 79.2703 19.3979C79.4129 19.3373 79.5415 19.2909 79.656 19.2586C79.8531 19.2016 80.0382 19.216 80.2114 19.3019L80.9792 19.6827C81.2013 19.7929 81.3542 20.0235 81.438 20.3746C81.478 20.5304 81.4925 20.6666 81.4816 20.7831L80.8245 20.6471C80.8147 20.5438 80.7938 20.4537 80.7616 20.3768C80.7313 20.2961 80.7048 20.2501 80.6822 20.2389L79.9426 19.8721C79.92 19.8609 79.8496 19.8752 79.7314 19.915C79.6131 19.9549 79.5484 19.9861 79.5372 20.0087L78.6635 21.7701C78.6523 21.7927 78.6666 21.8631 78.7065 21.9814C78.7463 22.0996 78.7775 22.1644 78.8001 22.1756L79.5341 22.5396C79.5604 22.5527 79.6121 22.5478 79.689 22.525C79.7716 22.5003 79.8589 22.4615 79.9508 22.4086L80.4567 22.8495C80.3705 22.9287 80.2533 22.9995 80.1051 23.062C79.7748 23.2077 79.4987 23.2255 79.2766 23.1154Z" fill="#738091"/>
<path d="M82.4096 24.9244L81.5973 24.4166C81.4441 24.3208 81.3443 24.199 81.298 24.0512C81.2517 23.9033 81.2181 23.7708 81.1972 23.6537C81.1598 23.452 81.1923 23.2691 81.2948 23.1053L82.3169 21.47C82.4127 21.3168 82.5345 21.2171 82.6824 21.1708C82.8302 21.1245 82.9627 21.0908 83.0799 21.0699C83.2816 21.0325 83.4644 21.0651 83.6283 21.1675L84.4406 21.6752C84.5938 21.771 84.6935 21.8928 84.7398 22.0407C84.7861 22.1885 84.8197 22.321 84.8407 22.4382C84.8781 22.6399 84.8455 22.8227 84.7431 22.9866L83.7209 24.6218C83.6251 24.775 83.5033 24.8748 83.3555 24.9211C83.2076 24.9674 83.0751 25.001 82.958 25.0219C82.7562 25.0593 82.5734 25.0268 82.4096 24.9244ZM82.8881 21.8047L81.8458 23.472C81.8325 23.4934 81.8398 23.5649 81.8679 23.6865C81.8959 23.8081 81.9206 23.8755 81.942 23.8889L82.7329 24.3833C82.7543 24.3967 82.8258 24.3893 82.9474 24.3613C83.0689 24.3332 83.1364 24.3085 83.1498 24.2871L84.192 22.6198C84.2054 22.5984 84.198 22.527 84.17 22.4054C84.1419 22.2838 84.1172 22.2163 84.0958 22.203L83.3049 21.7086C83.2836 21.6952 83.2121 21.7026 83.0905 21.7306C82.9689 21.7586 82.9014 21.7834 82.8881 21.8047Z" fill="#738091"/>
<path d="M86.6653 26.4204L88.2126 24.3984L88.7381 24.8005L86.4479 27.7935L85.8923 27.3684L86.3555 24.5645L84.8313 26.5565L84.3058 26.1543L86.596 23.1614L87.1615 23.5941L86.6653 26.4204Z" fill="#738091"/>
<path d="M90.1108 26.0052L92.0928 27.844L91.6642 28.306L90.9158 27.6116L88.7813 29.9125L88.2961 29.4624L90.4306 27.1616L89.6822 26.4672L90.1108 26.0052Z" fill="#738091"/>
<path d="M91.7464 33.0928L91.2498 32.5393L91.8898 31.0254L91.41 30.4906L90.3029 31.4838L89.861 30.9912L92.6663 28.4747L93.8994 29.8492C94.0004 29.9617 94.0575 30.0883 94.0707 30.2289C94.0807 30.3722 94.073 30.5146 94.0475 30.656C94.0192 30.7943 93.9487 30.914 93.8361 31.015L93.367 31.4358C93.2544 31.5368 93.1278 31.5939 92.9873 31.6071C92.8439 31.6172 92.7015 31.6095 92.5601 31.5839C92.4924 31.5713 92.434 31.5503 92.385 31.5209L91.7464 33.0928ZM93.3713 30.2043L92.6391 29.3881L91.8791 30.0698L92.6114 30.8861C92.6394 30.9173 92.698 30.9354 92.7869 30.9402C92.8759 30.945 92.9361 30.9334 92.9674 30.9054L93.352 30.5603C93.3833 30.5322 93.4013 30.4737 93.4062 30.3847C93.411 30.2957 93.3994 30.2356 93.3713 30.2043Z" fill="#738091"/>
<path d="M93.2774 35.1757L92.7092 34.4045C92.6021 34.259 92.5542 34.109 92.5656 33.9545C92.577 33.8 92.5945 33.6644 92.6182 33.5478C92.6577 33.3465 92.7553 33.1885 92.9109 33.0739L94.4634 31.93C94.6089 31.8228 94.7589 31.7749 94.9134 31.7863C95.0679 31.7977 95.2035 31.8153 95.3201 31.839C95.5214 31.8785 95.6794 31.9761 95.794 32.1316L96.3622 32.9028C96.4694 33.0483 96.5173 33.1983 96.5059 33.3528C96.4945 33.5073 96.4769 33.6429 96.4533 33.7595C96.4137 33.9608 96.3162 34.1188 96.1606 34.2334L94.608 35.3773C94.4626 35.4845 94.3126 35.5324 94.1581 35.521C94.0036 35.5096 93.868 35.492 93.7514 35.4684C93.5501 35.4288 93.3921 35.3313 93.2774 35.1757ZM94.8712 32.4515L93.2882 33.6178C93.2679 33.6328 93.2484 33.7019 93.2297 33.8253C93.211 33.9487 93.2091 34.0205 93.2241 34.0408L93.7773 34.7917C93.7923 34.812 93.8614 34.8315 93.9848 34.8502C94.1082 34.8689 94.18 34.8708 94.2003 34.8558L95.7833 33.6895C95.8036 33.6745 95.8231 33.6054 95.8418 33.482C95.8605 33.3586 95.8624 33.2868 95.8474 33.2665L95.2941 32.5156C95.2792 32.4953 95.21 32.4758 95.0867 32.4571C94.9633 32.4384 94.8915 32.4366 94.8712 32.4515Z" fill="#738091"/>
<path d="M98.0766 35.5148L95.3871 37.1323L96.2479 38.5635L95.7078 38.8883L94.506 36.8901L97.7356 34.9477L98.0766 35.5148Z" fill="#738091"/>
<path d="M98.1597 44.0541L97.8641 43.3717L98.9507 42.1385L98.6651 41.4793L97.3004 42.0706L97.0373 41.4634L100.495 39.9651L101.229 41.6595C101.29 41.7982 101.304 41.9364 101.272 42.0739C101.236 42.213 101.183 42.3456 101.114 42.4717C101.044 42.5939 100.939 42.6851 100.8 42.7452L100.222 42.9958C100.083 43.0559 99.9449 43.0699 99.8074 43.0379C99.6683 43.0021 99.5356 42.9497 99.4096 42.8806C99.3493 42.8472 99.3006 42.8088 99.2635 42.7654L98.1597 44.0541ZM100.616 41.829L100.18 40.8229L99.2433 41.2288L99.6793 42.2349C99.696 42.2735 99.7458 42.3092 99.8287 42.3419C99.9115 42.3747 99.9723 42.3827 100.011 42.366L100.485 42.1606C100.524 42.1439 100.559 42.0941 100.592 42.0112C100.625 41.9283 100.633 41.8676 100.616 41.829Z" fill="#738091"/>
<path d="M102.947 46.4965L102.348 46.6929L101.816 45.0701L100.911 45.3667L101.406 46.8757L100.807 47.0721L100.313 45.5631L99.4322 45.8518L99.9645 47.4746L99.3657 47.671L98.6272 45.4194L102.208 44.2449L102.947 46.4965Z" fill="#738091"/>
<path d="M103.477 50.6417C103.385 50.7489 103.265 50.8193 103.118 50.853L102.503 50.9932C102.356 51.0269 102.217 51.0154 102.088 50.9587C101.958 50.8979 101.837 50.8221 101.726 50.7311C101.619 50.6392 101.548 50.5196 101.515 50.3721L101.251 49.217L99.801 49.5481L99.6537 48.9029L103.328 48.0641L103.739 49.8643C103.773 50.0118 103.761 50.1502 103.704 50.2795C103.644 50.4097 103.568 50.5304 103.477 50.6417ZM102.411 50.3355L102.915 50.2205C102.956 50.2111 103 50.1687 103.048 50.0932C103.095 50.0178 103.114 49.9596 103.105 49.9186L102.861 48.8495L101.865 49.0768L102.109 50.1458C102.119 50.1868 102.161 50.231 102.237 50.2784C102.312 50.3258 102.37 50.3448 102.411 50.3355Z" fill="#738091"/>
<path d="M100.514 53.8807L100.396 52.9301C100.373 52.7509 100.405 52.5966 100.49 52.4674C100.576 52.3382 100.657 52.2285 100.735 52.1384C100.868 51.9821 101.03 51.8919 101.222 51.868L103.136 51.6292C103.315 51.6068 103.469 51.6384 103.598 51.7239C103.728 51.8094 103.837 51.891 103.927 51.9686C104.084 52.1015 104.174 52.2639 104.198 52.4557L104.316 53.4062C104.339 53.5855 104.307 53.7397 104.222 53.8689C104.136 53.9982 104.055 54.1078 103.977 54.198C103.844 54.3543 103.682 54.4444 103.49 54.4683L101.576 54.7071C101.397 54.7295 101.243 54.698 101.114 54.6125C100.984 54.527 100.875 54.4454 100.785 54.3677C100.628 54.2348 100.538 54.0725 100.514 53.8807ZM103.236 52.2835L101.285 52.527C101.26 52.5301 101.209 52.5809 101.133 52.6794C101.056 52.7778 101.019 52.8396 101.023 52.8646L101.138 53.7901C101.141 53.8152 101.192 53.866 101.29 53.9426C101.389 54.0192 101.451 54.056 101.476 54.0529L103.427 53.8094C103.452 53.8063 103.503 53.7555 103.579 53.657C103.656 53.5585 103.693 53.4968 103.689 53.4717L103.574 52.5462C103.571 52.5212 103.52 52.4704 103.422 52.3937C103.323 52.3171 103.261 52.2804 103.236 52.2835Z" fill="#738091"/>
<path d="M100.839 58.9341L100.818 58.1907L102.285 57.4497L102.265 56.7315L100.778 56.7733L100.76 56.1119L104.527 56.0059L104.579 57.8517C104.583 58.0029 104.545 58.1364 104.464 58.2521C104.379 58.368 104.281 58.4716 104.17 58.563C104.059 58.6502 103.928 58.6959 103.777 58.7002L103.147 58.7179C102.996 58.7221 102.862 58.6839 102.746 58.603C102.63 58.518 102.527 58.4201 102.435 58.3092C102.392 58.2558 102.361 58.202 102.343 58.1479L100.839 58.9341ZM103.946 57.7812L103.916 56.6851L102.895 56.7138L102.926 57.8099C102.927 57.8519 102.96 57.9035 103.025 57.9648C103.09 58.026 103.143 58.056 103.185 58.0548L103.701 58.0403C103.743 58.0391 103.795 58.0061 103.856 57.9414C103.918 57.8766 103.948 57.8232 103.946 57.7812Z" fill="#738091"/>
<path d="M104.542 60.3892L104.371 63.0874L103.742 63.0475L103.806 62.0286L100.674 61.8299L100.716 61.1696L103.848 61.3682L103.913 60.3493L104.542 60.3892Z" fill="#738091"/>
<path d="M100.197 65.2233L100.365 64.1652C100.404 63.9204 100.578 63.7056 100.889 63.521C101.025 63.4364 101.151 63.3819 101.265 63.3576L101.332 64.0253C101.235 64.0696 101.153 64.1161 101.086 64.165C101.022 64.2186 100.988 64.26 100.983 64.289L100.821 65.3098C100.817 65.3347 100.852 65.3976 100.925 65.4986C100.998 65.5996 101.047 65.652 101.072 65.656L101.44 65.7144C101.502 65.7243 101.541 65.705 101.557 65.6565L102.275 64.1115C102.341 63.9646 102.445 63.8578 102.588 63.7911C102.729 63.7286 102.877 63.7095 103.031 63.7339L103.342 63.7834C103.52 63.8118 103.66 63.885 103.76 64.003C103.86 64.1211 103.943 64.23 104.008 64.3296C104.121 64.5008 104.163 64.6818 104.132 64.8726L103.988 65.7813C103.949 66.0261 103.774 66.2409 103.464 66.4256C103.327 66.5102 103.202 66.5646 103.087 66.589L103.021 65.9212C103.117 65.8811 103.197 65.8342 103.26 65.7806C103.328 65.7276 103.364 65.6886 103.368 65.6637L103.508 64.7861C103.512 64.7612 103.477 64.6983 103.404 64.5973C103.331 64.4963 103.282 64.4438 103.257 64.4399L102.964 64.3934C102.902 64.3835 102.863 64.4007 102.847 64.445L102.116 65.9943C102.046 66.1405 101.94 66.2449 101.798 66.3075C101.656 66.3741 101.51 66.3956 101.361 66.3719L100.987 66.3125C100.809 66.2841 100.669 66.2109 100.569 66.0929C100.469 65.9748 100.386 65.8659 100.321 65.7663C100.208 65.5951 100.166 65.4141 100.197 65.2233Z" fill="#738091"/>
<path d="M28.8845 80.1175L28.2887 80.4725L27.33 78.8639L26.4304 79.4001L27.3252 80.9015L26.7294 81.2566L25.8346 79.7552L24.363 80.6322L23.9901 80.0066L27.5529 77.8832L28.8845 80.1175Z" fill="#738091"/>
<path d="M27.3028 85.0758L26.6753 84.2287C26.557 84.0689 26.5039 83.904 26.516 83.7339C26.5281 83.5638 26.547 83.4145 26.5728 83.2862C26.6157 83.0645 26.7226 82.8903 26.8935 82.7637L28.599 81.5005C28.7588 81.3821 28.9237 81.329 29.0938 81.3411C29.2639 81.3532 29.4131 81.3722 29.5415 81.3979C29.7632 81.4408 29.9373 81.5478 30.0639 81.7187L30.6914 82.5658C30.8098 82.7256 30.8629 82.8905 30.8508 83.0606C30.8387 83.2307 30.8197 83.38 30.794 83.5083C30.7511 83.73 30.6441 83.9042 30.4732 84.0308L28.7678 85.294C28.608 85.4124 28.4431 85.4655 28.273 85.4534C28.1029 85.4413 27.9536 85.4223 27.8253 85.3966C27.6036 85.3537 27.4294 85.2467 27.3028 85.0758ZM29.0492 82.0733L27.3103 83.3613C27.288 83.3778 27.2667 83.454 27.2465 83.5898C27.2263 83.7256 27.2244 83.8047 27.2409 83.827L27.8519 84.6518C27.8684 84.6741 27.9446 84.6954 28.0804 84.7156C28.2162 84.7359 28.2953 84.7377 28.3176 84.7212L30.0565 83.4332C30.0788 83.4167 30.1 83.3405 30.1203 83.2047C30.1405 83.0689 30.1424 82.9898 30.1258 82.9675L29.5149 82.1427C29.4983 82.1204 29.4222 82.0991 29.2864 82.0789C29.1505 82.0586 29.0715 82.0568 29.0492 82.0733Z" fill="#738091"/>
<path d="M30.917 89.2002L30.3624 88.5983L31.0446 86.923L30.5089 86.3415L29.305 87.4506L28.8116 86.915L31.8619 84.1047L33.2389 85.5993C33.3517 85.7217 33.4164 85.8601 33.433 86.0146C33.4461 86.1722 33.4397 86.329 33.4137 86.485C33.3845 86.6376 33.3088 86.7703 33.1863 86.8831L32.6762 87.3531C32.5538 87.4659 32.4154 87.5305 32.2609 87.5471C32.1033 87.5603 31.9465 87.5539 31.7905 87.5279C31.7157 87.515 31.6512 87.4927 31.5969 87.461L30.917 89.2002ZM32.663 85.9978L31.8453 85.1102L31.019 85.8716L31.8367 86.7591C31.868 86.7931 31.9327 86.8121 32.0307 86.8162C32.1287 86.8202 32.1947 86.8065 32.2287 86.7752L32.647 86.3898C32.681 86.3585 32.7 86.2938 32.704 86.1958C32.708 86.0978 32.6944 86.0318 32.663 85.9978Z" fill="#738091"/>
<path d="M35.0417 90.2652L37.1879 89.2555L37.851 89.8247L35.1497 92.972L34.597 92.4976L36.4763 90.3083L34.6777 91.1684L34.204 90.7618L34.7816 88.8537L32.9024 91.0431L32.3498 90.5687L35.0512 87.4215L35.7143 87.9907L35.0417 90.2652Z" fill="#738091"/>
<path d="M41.0603 91.994L40.6701 92.5674L39.1162 91.5098L38.5269 92.3757L39.9719 93.359L39.5816 93.9324L38.1367 92.949L37.5631 93.7919L39.1169 94.8494L38.7267 95.4228L36.5708 93.9556L38.9043 90.5267L41.0603 91.994Z" fill="#738091"/>
<path d="M42.4206 97.46L41.7002 97.0716L41.7993 95.2655L41.1033 94.8903L40.3266 96.3311L39.6855 95.9855L41.6538 92.3346L43.4426 93.299C43.5891 93.378 43.6954 93.4878 43.7614 93.6285C43.8252 93.7732 43.8702 93.9235 43.8964 94.0795C43.9186 94.2333 43.8902 94.3834 43.8112 94.53L43.482 95.1405C43.403 95.287 43.2932 95.3932 43.1526 95.4593C43.0079 95.5231 42.8575 95.5681 42.7015 95.5943C42.6267 95.6065 42.5584 95.6065 42.4967 95.5942L42.4206 97.46ZM43.028 93.8634L41.9657 93.2907L41.4325 94.2798L42.4948 94.8525C42.5355 94.8744 42.6028 94.8713 42.6968 94.8432C42.7907 94.815 42.8487 94.7806 42.8706 94.7399L43.1405 94.2393C43.1625 94.1986 43.1594 94.1313 43.1312 94.0373C43.1031 93.9433 43.0687 93.8854 43.028 93.8634Z" fill="#738091"/>
<path d="M46.106 94.5599L44.7626 97.742L46.4559 98.4568L46.1861 99.0958L43.8219 98.0977L45.4351 94.2767L46.106 94.5599Z" fill="#738091"/>
<path d="M49.7455 97.5971L51.1217 96.3434L51.8826 96.5828L49.8667 98.4133L49.3274 100.127L48.6328 99.9082L49.1721 98.1947L48.5812 95.5438L49.3421 95.7832L49.7455 97.5971Z" fill="#738091"/>
<path d="M55.364 101.471L54.1992 101.288C53.9297 101.245 53.693 101.054 53.4891 100.713C53.3957 100.562 53.3355 100.424 53.3085 100.298L54.0433 100.224C54.0922 100.33 54.1436 100.42 54.1975 100.494C54.2567 100.564 54.3022 100.602 54.3342 100.607L55.4579 100.783C55.4853 100.787 55.5545 100.749 55.6655 100.668C55.7765 100.587 55.8341 100.533 55.8384 100.506L55.9019 100.102C55.9127 100.033 55.8914 99.99 55.838 99.9723L54.1362 99.1855C53.9743 99.1132 53.8566 98.9988 53.7829 98.8421C53.7138 98.6862 53.6925 98.5237 53.719 98.3547L53.7728 98.0121C53.8037 97.8157 53.884 97.6621 54.0137 97.5514C54.1434 97.4408 54.263 97.3496 54.3726 97.2778C54.5607 97.1529 54.7598 97.107 54.9699 97.14L55.9703 97.2971C56.2398 97.3394 56.4765 97.531 56.6804 97.872C56.7738 98.0224 56.834 98.1605 56.861 98.2865L56.1262 98.3606C56.0819 98.2554 56.0301 98.1677 55.971 98.0975C55.9125 98.0228 55.8695 97.9833 55.8421 97.979L54.876 97.8273C54.8486 97.823 54.7794 97.8613 54.6684 97.9421C54.5574 98.023 54.4998 98.0771 54.4955 98.1045L54.4449 98.4266C54.4342 98.4951 54.4532 98.5379 54.502 98.5549L56.2085 99.3565C56.3697 99.4333 56.4848 99.5496 56.5539 99.7056C56.6276 99.8623 56.6515 100.023 56.6257 100.187L56.5611 100.598C56.5303 100.795 56.45 100.948 56.3203 101.059C56.1906 101.17 56.0709 101.261 55.9614 101.333C55.7732 101.458 55.5741 101.504 55.364 101.471Z" fill="#738091"/>
<path d="M61.0399 101.907L60.2642 101.866L60.0202 100.971L58.4203 100.886L58.0825 101.75L57.3068 101.708L58.9544 97.6428L59.8409 97.6901L61.0399 101.907ZM59.353 98.5045L58.6858 100.205L59.8286 100.266L59.353 98.5045Z" fill="#738091"/>
<path d="M64.0715 101.831L62.8937 101.885C62.6212 101.898 62.3509 101.758 62.0826 101.465C61.9609 101.336 61.8742 101.213 61.8224 101.095L62.5274 100.875C62.5965 100.969 62.665 101.047 62.7326 101.108C62.8047 101.165 62.8569 101.193 62.8892 101.191L64.0255 101.138C64.0532 101.137 64.1133 101.086 64.2058 100.984C64.2983 100.883 64.3439 100.818 64.3426 100.79L64.3236 100.382C64.3203 100.312 64.2908 100.274 64.235 100.268L62.4098 99.8388C62.2367 99.8006 62.0984 99.7121 61.9947 99.5734C61.8957 99.4345 61.8422 99.2796 61.8342 99.1087L61.8181 98.7623C61.8089 98.5637 61.8567 98.3972 61.9616 98.2627C62.0664 98.1282 62.1653 98.0148 62.2582 97.9226C62.4174 97.7624 62.6032 97.6774 62.8157 97.6675L63.8272 97.6205C64.0997 97.6078 64.3701 97.748 64.6383 98.041C64.76 98.1696 64.8467 98.2929 64.8985 98.4108L64.1936 98.6311C64.129 98.5369 64.0607 98.4614 63.9886 98.4045C63.9163 98.3431 63.8663 98.313 63.8386 98.3143L62.8617 98.3597C62.834 98.361 62.7739 98.4124 62.6814 98.5139C62.589 98.6154 62.5434 98.68 62.5446 98.7077L62.5598 99.0334C62.563 99.1026 62.5902 99.1407 62.6415 99.1476L64.4742 99.5901C64.6475 99.6329 64.7836 99.7238 64.8827 99.8627C64.9863 100.001 65.042 100.154 65.0498 100.32L65.0691 100.736C65.0783 100.934 65.0305 101.101 64.9257 101.235C64.8208 101.37 64.7219 101.483 64.629 101.576C64.4698 101.736 64.284 101.821 64.0715 101.831Z" fill="#738091"/>
<path d="M70.6872 97.2295L69.7798 101.059L68.9703 101.22L69.8952 97.5143L67.9565 97.8998L67.8212 97.2196L70.5763 96.6717L70.6872 97.2295Z" fill="#738091"/>
<path d="M74.2191 99.9692L73.2226 100.268C73.0631 100.316 72.9103 100.313 72.7642 100.261C72.6167 100.203 72.4786 100.129 72.3497 100.037C72.2253 99.9443 72.1392 99.818 72.0914 99.6586L71.4022 97.3599C71.3544 97.2004 71.3569 97.0476 71.4096 96.9015C71.4668 96.754 71.5412 96.6159 71.6329 96.487C71.726 96.3626 71.8522 96.2764 72.0116 96.2286L73.0082 95.9299C73.1676 95.8821 73.3204 95.8846 73.4666 95.9373C73.6141 95.9945 73.7522 96.0689 73.8811 96.1606C74.0055 96.2536 74.0916 96.3799 74.1394 96.5393L74.8286 98.838C74.8764 98.9975 74.8739 99.1503 74.8212 99.2964C74.764 99.4439 74.6896 99.582 74.5979 99.7109C74.5048 99.8353 74.3786 99.9214 74.2191 99.9692ZM72.1177 97.2105L72.771 99.3897C72.7843 99.434 72.8341 99.4794 72.9205 99.5259C73.0068 99.5724 73.0721 99.589 73.1164 99.5757L73.927 99.3328C73.9713 99.3195 74.0167 99.2697 74.0632 99.1833C74.1097 99.097 74.1263 99.0316 74.113 98.9873L73.4598 96.8082C73.4465 96.7639 73.3967 96.7185 73.3103 96.672C73.224 96.6255 73.1586 96.6089 73.1144 96.6221L72.3038 96.8651C72.2595 96.8784 72.2141 96.9282 72.1676 97.0146C72.1211 97.1009 72.1045 97.1663 72.1177 97.2105Z" fill="#738091"/>
<path d="M81.2968 97.0451L80.5567 97.3944L79.1618 96.2428L78.4468 96.5803L79.1454 98.0605L78.4869 98.3714L76.7165 94.6206L78.5543 93.7532C78.7048 93.6821 78.8563 93.6618 79.0086 93.6921C79.163 93.7266 79.3107 93.7796 79.4518 93.8511C79.5887 93.9245 79.6927 94.0365 79.7638 94.187L80.0598 94.8142C80.1309 94.9648 80.1512 95.1162 80.1209 95.2686C80.0863 95.4229 80.0334 95.5707 79.9619 95.7118C79.9273 95.7792 79.8867 95.8342 79.8403 95.8765L81.2968 97.0451ZM78.7625 94.4218L77.6711 94.9369L78.1507 95.9531L79.2421 95.4379C79.2839 95.4182 79.3214 95.3622 79.3545 95.2698C79.3876 95.1775 79.3943 95.1104 79.3746 95.0686L79.1318 94.5543C79.1121 94.5125 79.0561 94.475 78.9637 94.4419C78.8714 94.4088 78.8043 94.4021 78.7625 94.4218Z" fill="#738091"/>
<path d="M83.2059 91.1083L83.5656 91.7013L81.9585 92.676L82.5016 93.5715L83.996 92.6652L84.3557 93.2582L82.8612 94.1646L83.3899 95.0363L84.9971 94.0616L85.3567 94.6546L83.1269 96.007L80.9761 92.4607L83.2059 91.1083Z" fill="#738091"/>
<path d="M86.7391 89.0537C86.888 89.0978 87.0125 89.1864 87.1126 89.3194L87.5297 89.8735C87.6298 90.0065 87.6805 90.1507 87.6817 90.306C87.6792 90.4642 87.6572 90.6196 87.6159 90.7722C87.5717 90.9212 87.4832 91.0457 87.3502 91.1458L86.3084 91.93L87.2927 93.2378L86.7108 93.6757L84.2166 90.3619L85.8403 89.1398C85.9733 89.0397 86.1175 88.9891 86.2729 88.9879C86.431 88.9904 86.5864 89.0123 86.7391 89.0537ZM86.9103 90.2616L86.5683 89.8072C86.5405 89.7702 86.4781 89.7449 86.3809 89.7312C86.2838 89.7175 86.2168 89.7245 86.1798 89.7523L85.2156 90.4781L85.8913 91.3758L86.8555 90.6501C86.8925 90.6223 86.9178 90.5598 86.9315 90.4627C86.9452 90.3656 86.9381 90.2985 86.9103 90.2616Z" fill="#738091"/>
<path d="M91.5077 89.6844L90.7406 90.4076C90.5959 90.5439 90.4384 90.6161 90.2681 90.6242C90.0977 90.6322 89.9473 90.6311 89.8168 90.6207C89.5916 90.6042 89.406 90.5186 89.2601 90.3638L87.8044 88.8194C87.668 88.6747 87.5958 88.5172 87.5877 88.3469C87.5797 88.1766 87.5809 88.0261 87.5913 87.8956C87.6077 87.6704 87.6934 87.4848 87.8481 87.3389L88.6153 86.6158C88.76 86.4794 88.9175 86.4072 89.0878 86.3992C89.2581 86.3911 89.4086 86.3923 89.5391 86.4027C89.7643 86.4192 89.9499 86.5048 90.0957 86.6596L91.5515 88.204C91.6879 88.3487 91.7601 88.5062 91.7681 88.6765C91.7762 88.8468 91.775 88.9972 91.7646 89.1278C91.7481 89.353 91.6625 89.5385 91.5077 89.6844ZM88.3201 88.3047L89.8043 89.8794C89.8234 89.8996 89.9015 89.9117 90.0388 89.9158C90.176 89.9198 90.2548 89.9124 90.275 89.8933L91.0219 89.1892C91.0421 89.1702 91.0542 89.0921 91.0583 88.9548C91.0623 88.8175 91.0549 88.7388 91.0358 88.7186L89.5515 87.144C89.5325 87.1238 89.4544 87.1116 89.3171 87.1076C89.1798 87.1035 89.1011 87.111 89.0809 87.13L88.334 87.8341C88.3138 87.8532 88.3016 87.9313 88.2976 88.0686C88.2935 88.2058 88.301 88.2846 88.3201 88.3047Z" fill="#738091"/>
<path d="M95.188 85.5951L94.6549 86.2161L92.9115 85.7342L92.3965 86.3341L93.6385 87.4002L93.1642 87.9529L90.017 85.2515L91.3406 83.7094C91.449 83.5831 91.5789 83.5027 91.7304 83.4682C91.8854 83.4367 92.0419 83.4248 92.1999 83.4324C92.3548 83.4436 92.4955 83.5033 92.6218 83.6118L93.1481 84.0635C93.2744 84.1719 93.3548 84.3019 93.3893 84.4533C93.4208 84.6083 93.4327 84.7648 93.4251 84.9228C93.421 84.9985 93.4064 85.0652 93.3813 85.1229L95.188 85.5951ZM91.8036 84.2348L91.0176 85.1506L91.8702 85.8824L92.6562 84.9667C92.6863 84.9316 92.6977 84.8651 92.6902 84.7673C92.6827 84.6695 92.6615 84.6056 92.6264 84.5754L92.1948 84.205C92.1597 84.1749 92.0933 84.1636 91.9955 84.171C91.8977 84.1785 91.8337 84.1998 91.8036 84.2348Z" fill="#738091"/>
<path d="M92.8168 81.8296L94.509 79.3823L95.0795 79.7767L94.4405 80.7009L97.2815 82.6654L96.8673 83.2644L94.0263 81.2999L93.3873 82.2241L92.8168 81.8296Z" fill="#738091"/>
<path d="M99.3624 79.2456L98.7915 80.2773C98.6594 80.516 98.3983 80.6727 98.0081 80.7475C97.8348 80.7837 97.6844 80.7929 97.5568 80.7751L97.7389 80.0594C97.8552 80.0498 97.9573 80.0323 98.0453 80.007C98.1315 79.9755 98.1824 79.9455 98.1981 79.9172L98.7488 78.922C98.7623 78.8977 98.75 78.8196 98.7121 78.6876C98.6741 78.5556 98.643 78.4829 98.6187 78.4695L98.2607 78.2713C98.2 78.2377 98.1522 78.243 98.1172 78.2871L96.795 79.6163C96.6717 79.7436 96.5238 79.8151 96.3514 79.8306C96.1812 79.8421 96.0213 79.8065 95.8716 79.7236L95.5682 79.5557C95.3942 79.4594 95.2774 79.3314 95.2179 79.1716C95.1584 79.0118 95.1137 78.8682 95.0838 78.7407C95.0309 78.5212 95.0559 78.3184 95.1589 78.1323L95.6492 77.2463C95.7813 77.0076 96.0425 76.8508 96.4326 76.7761C96.6059 76.7399 96.7564 76.7307 96.8839 76.7484L96.7019 77.4641C96.5878 77.4697 96.4877 77.4883 96.4015 77.5199C96.3113 77.5492 96.2595 77.576 96.246 77.6003L95.7725 78.456C95.7591 78.4802 95.7713 78.5584 95.8093 78.6903C95.8472 78.8223 95.8783 78.895 95.9026 78.9084L96.1878 79.0663C96.2485 79.0999 96.2952 79.0967 96.3279 79.0566L97.6656 77.728C97.793 77.6029 97.9418 77.5346 98.1119 77.5231C98.2844 77.5076 98.4434 77.5401 98.5891 77.6207L98.9532 77.8222C99.1271 77.9185 99.2439 78.0465 99.3034 78.2063C99.363 78.3661 99.4077 78.5097 99.4375 78.6372C99.4904 78.8567 99.4654 79.0595 99.3624 79.2456Z" fill="#738091"/>
<circle cx="21.5" cy="72.5" r="1" fill="#738091"/>
<path d="M102 72C102 72.5523 101.552 73 101 73C100.448 73 100 72.5523 100 72C100 71.4477 100.448 71 101 71C101.552 71 102 71.4477 102 72Z" fill="#738091"/>
</g>
<defs>
<clipPath id="clip0_4683_37295">
<rect width="121" height="116" fill="white" transform="translate(0.5)"/>
</clipPath>
</defs>
</svg>
