<svg width="220" height="56" viewBox="0 0 220 56" fill="none" xmlns="http://www.w3.org/2000/svg">
<g clip-path="url(#clip0_4913_10006)">
<path fill-rule="evenodd" clip-rule="evenodd" d="M15.476 26.1025L10.8347 25.7502C9.45854 25.6524 8.78671 25.0719 8.78671 24.0772C8.78671 22.8868 9.76037 22.2736 12.7886 22.2736C15.5734 22.2736 16.6606 22.8215 17.1735 24.7522H23.1293C22.967 21.5333 21.8148 19.3808 19.7992 18.3502C17.7837 17.3197 15.8622 17 13.0125 17C5.54748 17 2.32132 19.3808 2.32132 24.1065C2.32132 28.3234 4.84968 30.6291 9.93888 31.0238L14.6127 31.3793C16.2355 31.5065 16.8554 32.087 16.8554 33.147C16.8554 34.5298 15.7324 35.2374 12.636 35.2374C9.84802 35.2374 8.31281 34.5624 7.92982 32.7621H2C2.15904 35.9451 3.29828 38.0684 5.26515 39.1315C7.28073 40.1589 9.29955 40.4817 12.2758 40.4817H12.3082C20.0232 40.4817 23.4797 37.9737 23.4797 32.9545C23.4797 28.6169 20.9514 26.5917 15.476 26.1025ZM45.8135 19.9319C44.3399 18.3013 42.1005 17.4891 39.0884 17.4891H26.6057V39.9924H33.0386V35.1364H39.0982C42.1102 35.1364 44.3497 34.3308 45.8232 32.6904C47.2968 31.0499 48.0628 28.9266 48.0628 26.2882C48.0628 23.6498 47.3162 21.5724 45.8135 19.9319ZM38.3874 29.4225H33.0386V23.1672H38.3874C40.5328 23.1672 41.6331 24.4032 41.6331 26.2882C41.6201 28.0298 40.7211 29.4225 38.3874 29.4225ZM83.6864 17.4891C89.7074 17.4891 92.6509 20.7701 92.6509 25.8839C92.6509 29.005 91.6125 31.2553 89.5221 32.7131L93.3 40.0153H86.8901L83.9429 34.2557H77.6369V39.9924H71.2036V17.4891H83.6864ZM77.6239 28.5549H82.9922C85.3937 28.5549 86.1725 27.4656 86.1725 25.8708C86.1725 24.2761 85.3937 23.1672 82.9922 23.1672H77.6239V28.5549ZM120.383 17.4891H112.664L102.178 30.8965V17.4891H95.839V40.0054H102.736L107.247 34.2492L111.759 40.0054H120.327L111.571 28.7473L120.383 17.4891ZM155.724 39.9924V17.4891H168.479L177.707 39.9924H170.985L169.865 37.2594H162.157V39.9924H155.724ZM162.157 23.1672V31.6075L167.557 31.5945L164.104 23.1672H162.157ZM173.465 23.1834H181.147V40.0054H187.583V23.1834H195.233V17.4891H173.465V23.1834ZM217.82 17.4891V23.1508H204.792V26.2719H217.438V31.2879H204.792V34.2166H217.82V40.0054H198.36V17.4891H217.82ZM137.649 31.5977H137.266L134.377 17.4891H122.346V40.0054H128.749V23.1834H129.214L132.855 40.0152H142.002L145.699 23.1834H146.166V40.0054H152.599V17.4891H140.544L137.649 31.5977ZM46.0829 39.9924L55.3068 17.4891H68.0659V39.9924H61.6326V37.2594H53.9246L52.8047 39.9924H46.0829ZM59.6985 23.1802L56.2451 31.6075H61.6456V23.1802H59.6985Z" fill="#666666"/>
</g>
<defs>
<clipPath id="clip0_4913_10006">
<rect width="216" height="24" fill="white" transform="translate(2 17)"/>
</clipPath>
</defs>
</svg>
