<svg width="200" height="56" viewBox="0 0 200 56" fill="none" xmlns="http://www.w3.org/2000/svg">
<path d="M176.928 39.232C176.928 37.952 176.928 36.72 176.928 35.536C176.928 34.352 176.928 33.0614 176.928 31.664V24.032C176.928 22.6133 176.928 21.312 176.928 20.128C176.928 18.9333 176.928 17.696 176.928 16.416H179.008C180.448 18.432 181.834 20.384 183.168 22.272C184.512 24.16 185.84 26.0214 187.152 27.856L192.432 35.264H192.624V24.032C192.624 22.6133 192.624 21.312 192.624 20.128C192.624 18.9333 192.624 17.696 192.624 16.416H194.784C194.784 17.696 194.784 18.9333 194.784 20.128C194.784 21.312 194.784 22.6133 194.784 24.032V31.664C194.784 33.0614 194.784 34.352 194.784 35.536C194.784 36.72 194.784 37.952 194.784 39.232H192.752C191.557 37.5467 190.293 35.7707 188.96 33.904C187.637 32.0374 186.176 29.984 184.576 27.744L179.28 20.288H179.088V31.664C179.088 33.0614 179.088 34.352 179.088 35.536C179.088 36.72 179.088 37.952 179.088 39.232H176.928Z" fill="#666666"/>
<path d="M158.819 39.5681C156.91 39.5681 155.235 39.2588 153.795 38.6401C152.366 38.0108 151.171 37.1521 150.211 36.0641C149.251 34.9761 148.531 33.7228 148.051 32.3041C147.571 30.8854 147.331 29.3814 147.331 27.7921C147.331 25.5841 147.779 23.5894 148.675 21.8081C149.582 20.0268 150.883 18.6188 152.579 17.5841C154.286 16.5388 156.334 16.0161 158.723 16.0161C160.547 16.0161 162.163 16.3201 163.571 16.9281C164.979 17.5254 166.163 18.3681 167.123 19.4561C168.094 20.5334 168.824 21.7814 169.315 23.2001C169.816 24.6188 170.067 26.1494 170.067 27.7921C170.067 30.0321 169.614 32.0428 168.707 33.8241C167.811 35.5948 166.52 36.9974 164.835 38.0321C163.16 39.0561 161.155 39.5681 158.819 39.5681ZM158.739 37.5521C160.307 37.5521 161.656 37.2854 162.787 36.7521C163.918 36.2188 164.846 35.4934 165.571 34.5761C166.307 33.6481 166.851 32.6028 167.203 31.4401C167.555 30.2774 167.731 29.0614 167.731 27.7921C167.731 26.4268 167.539 25.1521 167.155 23.9681C166.782 22.7841 166.216 21.7494 165.459 20.8641C164.712 19.9681 163.779 19.2694 162.659 18.7681C161.539 18.2668 160.232 18.0161 158.739 18.0161C157.203 18.0161 155.864 18.2828 154.723 18.8161C153.592 19.3388 152.654 20.0588 151.907 20.9761C151.16 21.8934 150.6 22.9388 150.227 24.1121C149.854 25.2748 149.667 26.5014 149.667 27.7921C149.667 29.0828 149.848 30.3148 150.211 31.4881C150.574 32.6614 151.123 33.7068 151.859 34.6241C152.595 35.5308 153.534 36.2454 154.675 36.7681C155.816 37.2908 157.171 37.5521 158.739 37.5521Z" fill="#666666"/>
<path d="M134.744 39.552C133.784 39.552 132.824 39.4667 131.864 39.296C130.915 39.1253 130.035 38.9067 129.224 38.64C128.424 38.3627 127.779 38.0853 127.288 37.808L127.544 35.648C128.259 36.032 128.995 36.368 129.752 36.656C130.509 36.944 131.293 37.168 132.104 37.328C132.915 37.488 133.757 37.568 134.632 37.568C135.635 37.568 136.547 37.424 137.368 37.136C138.189 36.848 138.84 36.3893 139.32 35.76C139.811 35.1307 140.056 34.288 140.056 33.232C140.056 32.368 139.816 31.6587 139.336 31.104C138.856 30.5387 138.157 30.0533 137.24 29.648C136.333 29.232 135.235 28.816 133.944 28.4C132.472 27.9413 131.219 27.4453 130.184 26.912C129.149 26.3787 128.36 25.728 127.816 24.96C127.272 24.192 127 23.2267 127 22.064C127 20.9227 127.277 19.8987 127.832 18.992C128.387 18.0747 129.208 17.3493 130.296 16.816C131.384 16.272 132.723 16 134.312 16C134.984 16 135.645 16.0533 136.296 16.16C136.947 16.256 137.565 16.3893 138.152 16.56C138.749 16.72 139.288 16.9067 139.768 17.12C140.248 17.3227 140.653 17.5307 140.984 17.744L140.728 19.952C140.088 19.504 139.405 19.1413 138.68 18.864C137.965 18.576 137.251 18.3627 136.536 18.224C135.821 18.0853 135.149 18.016 134.52 18.016C133.613 18.016 132.765 18.1547 131.976 18.432C131.197 18.7093 130.563 19.1413 130.072 19.728C129.592 20.3147 129.352 21.072 129.352 22C129.352 22.768 129.555 23.4133 129.96 23.936C130.365 24.448 130.995 24.9067 131.848 25.312C132.701 25.7173 133.805 26.1387 135.16 26.576C136.995 27.1627 138.435 27.7547 139.48 28.352C140.536 28.9387 141.283 29.6107 141.72 30.368C142.168 31.1253 142.392 32.048 142.392 33.136C142.392 34.3307 142.125 35.4133 141.592 36.384C141.059 37.3547 140.227 38.128 139.096 38.704C137.965 39.2693 136.515 39.552 134.744 39.552Z" fill="#666666"/>
<path d="M102.158 39.232C102.617 37.9947 103.097 36.704 103.598 35.36C104.1 34.0054 104.58 32.7147 105.038 31.488L107.934 23.664C108.457 22.2667 108.926 20.9973 109.342 19.856C109.769 18.7147 110.196 17.568 110.622 16.416H113.63C114.057 17.5893 114.478 18.7413 114.894 19.872C115.31 21.0027 115.774 22.272 116.286 23.68L119.166 31.536C119.625 32.7947 120.1 34.0907 120.59 35.424C121.081 36.7467 121.545 38.016 121.982 39.232H119.646C119.156 37.8667 118.649 36.464 118.126 35.024C117.614 33.5734 117.129 32.2027 116.67 30.912L112.238 18.528H111.982L107.518 30.8C107.038 32.1334 106.532 33.5307 105.998 34.992C105.476 36.4427 104.964 37.856 104.462 39.232H102.158ZM106.046 33.232L106.206 31.408H118.142L118.27 33.232H106.046Z" fill="#666666"/>
<path d="M89.6 39.5681C87.808 39.5681 86.192 39.2694 84.752 38.6721C83.3227 38.0748 82.1067 37.2481 81.104 36.1921C80.1013 35.1254 79.3333 33.8774 78.8 32.4481C78.2667 31.0081 78 29.4508 78 27.7761C78 25.4721 78.4747 23.4348 79.424 21.6641C80.3733 19.8934 81.6853 18.5121 83.36 17.5201C85.0453 16.5174 86.9813 16.0161 89.168 16.0161C89.9253 16.0161 90.6613 16.0694 91.376 16.1761C92.0907 16.2828 92.7627 16.4321 93.392 16.6241C94.032 16.8161 94.6187 17.0188 95.152 17.2321C95.6853 17.4454 96.144 17.6588 96.528 17.8721L96.304 20.0801C95.4827 19.6001 94.6773 19.2108 93.888 18.9121C93.0987 18.6134 92.32 18.3948 91.552 18.2561C90.7947 18.1174 90.048 18.0481 89.312 18.0481C87.5627 18.0481 86.0107 18.4481 84.656 19.2481C83.312 20.0374 82.256 21.1628 81.488 22.6241C80.72 24.0748 80.336 25.7974 80.336 27.7921C80.336 29.1361 80.5333 30.4001 80.928 31.5841C81.3227 32.7574 81.9147 33.7921 82.704 34.6881C83.504 35.5841 84.4907 36.2881 85.664 36.8001C86.848 37.3014 88.2133 37.5521 89.76 37.5521C90.3147 37.5521 90.864 37.5201 91.408 37.4561C91.9627 37.3814 92.512 37.2748 93.056 37.1361C93.6 36.9868 94.1333 36.7894 94.656 36.5441C95.1787 36.2988 95.68 36.0054 96.16 35.6641L96.384 37.8561C95.936 38.1441 95.44 38.4001 94.896 38.6241C94.3627 38.8374 93.8027 39.0134 93.216 39.1521C92.64 39.2908 92.0427 39.3921 91.424 39.4561C90.816 39.5308 90.208 39.5681 89.6 39.5681Z" fill="#666666"/>
<path d="M58 39.232C58 37.952 58 36.72 58 35.536C58 34.352 58 33.0614 58 31.664V24.032C58 22.6133 58 21.312 58 20.128C58 18.9333 58 17.696 58 16.416H71.904V18.384C70.816 18.384 69.648 18.384 68.4 18.384C67.152 18.384 65.6853 18.384 64 18.384H58.992L60.208 16.72C60.208 18 60.208 19.2373 60.208 20.432C60.208 21.6267 60.208 22.928 60.208 24.336V31.344C60.208 32.7307 60.208 34.016 60.208 35.2C60.208 36.384 60.208 37.616 60.208 38.896L59.088 37.264H64.192C65.632 37.264 66.9867 37.264 68.256 37.264C69.5253 37.264 70.7467 37.264 71.92 37.264V39.232H58ZM59.728 28.608V26.704H64.24C65.7333 26.704 67.0187 26.704 68.096 26.704C69.184 26.704 70.2293 26.704 71.232 26.704V28.608C70.176 28.608 69.104 28.608 68.016 28.608C66.9387 28.608 65.6693 28.608 64.208 28.608H59.728Z" fill="#666666"/>
<path d="M40.5503 39.568C38.4703 39.568 36.7743 39.2054 35.4623 38.48C34.161 37.744 33.201 36.72 32.5823 35.408C31.9636 34.096 31.6543 32.5707 31.6543 30.832C31.6543 30.3733 31.6543 29.7867 31.6543 29.072C31.6543 28.3574 31.6543 27.568 31.6543 26.704C31.6543 25.8293 31.6543 24.9387 31.6543 24.032C31.6543 22.6133 31.6543 21.312 31.6543 20.128C31.6543 18.9333 31.6543 17.696 31.6543 16.416H33.9103C33.9103 17.696 33.9103 18.9333 33.9103 20.128C33.9103 21.312 33.9103 22.6133 33.9103 24.032V30.544C33.9103 32.0054 34.1236 33.2587 34.5503 34.304C34.9876 35.3493 35.6916 36.1547 36.6623 36.72C37.633 37.2747 38.9236 37.552 40.5343 37.552C42.1663 37.552 43.4623 37.2747 44.4223 36.72C45.3823 36.1547 46.0756 35.3493 46.5023 34.304C46.929 33.2587 47.1423 31.9947 47.1423 30.512V24.032C47.1423 22.6133 47.1423 21.312 47.1423 20.128C47.1423 18.9333 47.1423 17.696 47.1423 16.416H49.3823C49.3823 17.696 49.3823 18.9333 49.3823 20.128C49.3823 21.312 49.3823 22.6133 49.3823 24.032C49.3823 24.9387 49.3823 25.8293 49.3823 26.704C49.3823 27.568 49.3823 28.3627 49.3823 29.088C49.3823 29.8027 49.3823 30.384 49.3823 30.832C49.3823 32.5707 49.073 34.096 48.4543 35.408C47.8356 36.72 46.8756 37.744 45.5743 38.48C44.273 39.2054 42.5983 39.568 40.5503 39.568Z" fill="#666666"/>
<path d="M14.464 39.232C14.048 38.0907 13.6 36.8747 13.12 35.584C12.64 34.2827 12.192 33.088 11.776 32L9.12 24.832C8.82133 24.0213 8.49067 23.1413 8.128 22.192C7.776 21.232 7.41867 20.2613 7.056 19.28C6.69333 18.288 6.34133 17.3333 6 16.416H8.48C9.088 18.1014 9.73867 19.904 10.432 21.824C11.136 23.7334 11.792 25.5307 12.4 27.216L15.888 36.864H16.144L19.632 27.152C20.2507 25.4454 20.8907 23.6694 21.552 21.824C22.224 19.968 22.8747 18.1653 23.504 16.416H25.92C25.5787 17.3227 25.2267 18.2667 24.864 19.248C24.512 20.2293 24.16 21.2 23.808 22.16C23.4667 23.1094 23.1413 23.9947 22.832 24.816L20.192 32.032C19.7867 33.1307 19.3493 34.3147 18.88 35.584C18.4213 36.8534 17.9787 38.0694 17.552 39.232H14.464Z" fill="#666666"/>
</svg>
