<svg
      xmlns="http://www.w3.org/2000/svg"
      width="34"
      height="36"
      view-box="0 0 34 36"
      fill="none"
    >
      <g clip-path="url(#clip0_6745_33081)">
        <path
          d="M16.9892 34.3951L23.1037 14.5312H10.8748L16.9892 34.3951Z"
          fill="#E24329"
        />
        <path
          d="M16.9894 34.3951L10.8749 14.5312H2.30566L16.9894 34.3951Z"
          fill="#FC6D26"
        />
        <path
          d="M2.30562 14.5312L0.44755 20.5677C0.278073 21.1182 0.463691 21.7214 0.907401 22.0616L16.9894 34.3951L2.30562 14.5312Z"
          fill="#FCA326"
        />
        <path
          d="M2.30518 14.5319H10.8744L7.19168 2.56815C7.00227 1.95246 6.17719 1.95263 5.98778 2.56815L2.30518 14.5319Z"
          fill="#E24329"
        />
        <path
          d="M16.9888 34.3951L23.1032 14.5312H31.6725L16.9888 34.3951Z"
          fill="#FC6D26"
        />
        <path
          d="M31.6725 14.5312L33.5306 20.5677C33.7001 21.1182 33.5144 21.7214 33.0707 22.0616L16.9888 34.3951L31.6725 14.5312Z"
          fill="#FCA326"
        />
        <path
          d="M31.673 14.5319H23.1038L26.7865 2.56815C26.9759 1.95246 27.801 1.95263 27.9904 2.56815L31.673 14.5319Z"
          fill="#E24329"
        />
      </g>
      <defs>
        <clipPath id="clip0_6745_33081">
          <rect
            width="33.2308"
            height="35.0771"
            fill="white"
            transform="translate(0.384521 0.461914)"
          />
        </clipPath>
      </defs>
    </svg>