<svg xmlns="http://www.w3.org/2000/svg" width="40" height="40" viewBox="0 0 40 40" fill="none">
  <mask id="mask0_4592_16450" style="mask-type:luminance" maskUnits="userSpaceOnUse" x="2" y="7" width="36" height="26">
    <path d="M37.1474 7H2.65332V33H37.1474V7Z" fill="white"/>
  </mask>
  <g mask="url(#mask0_4592_16450)">
    <path d="M5.0052 33H10.4929V19.6061L2.65332 13.697V30.6364C2.65332 31.9443 3.70775 33 5.0052 33Z" fill="#4285F4"/>
    <path d="M29.3076 33H34.7953C36.0968 33 37.1472 31.9403 37.1472 30.6364V13.697L29.3076 19.6061" fill="#34A853"/>
    <path d="M29.3076 9.36351V19.6059L37.1472 13.6968V10.5453C37.1472 7.62229 33.8272 5.95593 31.5027 7.70896" fill="#FBBC04"/>
    <path d="M10.4932 19.6062V9.36377L19.9007 16.4547L29.3081 9.36377V19.6062L19.9007 26.6971" fill="#EA4335"/>
    <path d="M2.65332 10.5453V13.6968L10.4929 19.6059V9.36351L8.29783 7.70896C5.96947 5.95593 2.65332 7.62229 2.65332 10.5453Z" fill="#C5221F"/>
  </g>
</svg>