<svg xmlns="http://www.w3.org/2000/svg" width="34" height="34" viewBox="0 0 34 34" fill="none">
  <g clip-path="url(#clip0_8706_4158)">
    <path d="M17.3311 14.0454V20.3386H26.255C25.8631 22.3625 24.6872 24.0762 22.9235 25.2285L28.305 29.3206C31.4405 26.4843 33.2494 22.3183 33.2494 17.3695C33.2494 16.2172 33.1439 15.1091 32.9479 14.0456L17.3311 14.0454Z" fill="#4285F4"/>
    <path d="M8.0383 20.093L6.82457 21.0035L2.52832 24.283C5.25676 29.5864 10.8489 33.2501 17.3308 33.2501C21.8078 33.2501 25.5612 31.8024 28.3048 29.3206L22.9233 25.2285C21.446 26.2035 19.5617 26.7945 17.3308 26.7945C13.0196 26.7945 9.35664 23.9434 8.04508 20.1024L8.0383 20.093Z" fill="#34A853"/>
    <path d="M2.52864 9.71704C1.39813 11.9033 0.75 14.3704 0.75 16.9999C0.75 19.6295 1.39813 22.0966 2.52864 24.2828C2.52864 24.2975 8.04592 20.0874 8.04592 20.0874C7.71429 19.1124 7.51827 18.0783 7.51827 16.9998C7.51827 15.9212 7.71429 14.8872 8.04592 13.9122L2.52864 9.71704Z" fill="#FBBC05"/>
    <path d="M17.3311 7.22049C19.7732 7.22049 21.9439 8.04774 23.6774 9.64323L28.4258 4.98985C25.5466 2.36034 21.8083 0.75 17.3311 0.75C10.8493 0.75 5.25676 4.39888 2.52832 9.71711L8.04544 13.9126C9.35682 10.0716 13.0199 7.22049 17.3311 7.22049Z" fill="#EA4335"/>
  </g>
  <defs>
    <clipPath id="clip0_8706_4158">
      <rect width="32.5" height="32.5" fill="white" transform="translate(0.75 0.75)"/>
    </clipPath>
  </defs>
</svg>