<svg xmlns="http://www.w3.org/2000/svg" width="40" height="40" viewBox="0 0 40 40" fill="none">
  <path d="M34.6436 4H19C19 7.91957 22.1649 11.1099 26.0532 11.1099H28.9468V13.8901C28.9468 17.8097 32.1117 21 36 21V5.36729C36 4.59249 35.367 4 34.6436 4Z" fill="#0082FF"/>
  <path d="M26.6436 12H11C11 15.9091 14.1649 19.0909 18.0532 19.0909H20.9468V21.9091C20.9468 25.8182 24.1117 29 28 29V13.4091C28 12.6364 27.367 12 26.6436 12Z" fill="url(#paint0_linear_6745_32916)"/>
  <path d="M18.6832 20H3C3 23.9196 6.17291 27.1099 10.071 27.1099H12.9267V29.8901C12.9267 33.8097 16.0996 37 19.9977 37V21.3217C20.043 20.6381 19.4085 20 18.6832 20Z" fill="url(#paint1_linear_6745_32916)"/>
  <defs>
    <linearGradient id="paint0_linear_6745_32916" x1="27.653" y1="12.0331" x2="20.9657" y2="18.8929" gradientUnits="userSpaceOnUse">
      <stop offset="0.18" stop-color="#0050D3"/>
      <stop offset="1" stop-color="#0082FF"/>
    </linearGradient>
    <linearGradient id="paint1_linear_6745_32916" x1="20.1325" y1="20.09" x2="12.3812" y2="27.5904" gradientUnits="userSpaceOnUse">
      <stop offset="0.18" stop-color="#0050D3"/>
      <stop offset="1" stop-color="#0082FF"/>
    </linearGradient>
  </defs>
</svg>