<svg width="34" height="36" viewBox="0 0 34 36" fill="none" xmlns="http://www.w3.org/2000/svg">
<g clip-path="url(#clip0_8706_4147)">
<path d="M13.8184 1.31592L13.6358 1.42403C13.3455 1.59601 13.0719 1.78829 12.8166 1.99839L13.3432 1.63577H17.8125L18.625 7.65897L14.5625 11.6362L10.5 14.4008V17.5885C10.5 19.815 11.6886 21.8796 13.6341 23.0326L17.9109 25.567L8.875 30.7273H7.13227L3.88411 28.8025C1.93857 27.6495 0.75 25.5849 0.75 23.3585V12.639C0.75 10.4118 1.93933 8.34664 3.88586 7.19395L13.6358 1.42011C13.6963 1.38433 13.7571 1.34961 13.8184 1.31592Z" fill="url(#paint0_radial_8706_4147)"/>
<path d="M13.8184 1.31592L13.6358 1.42403C13.3455 1.59601 13.0719 1.78829 12.8166 1.99839L13.3432 1.63577H17.8125L18.625 7.65897L14.5625 11.6362L10.5 14.4008V17.5885C10.5 19.815 11.6886 21.8796 13.6341 23.0326L17.9109 25.567L8.875 30.7273H7.13227L3.88411 28.8025C1.93857 27.6495 0.75 25.5849 0.75 23.3585V12.639C0.75 10.4118 1.93933 8.34664 3.88586 7.19395L13.6358 1.42011C13.6963 1.38433 13.7571 1.34961 13.8184 1.31592Z" fill="url(#paint1_linear_8706_4147)"/>
<path d="M23.5003 14.0227V17.5866C23.5003 19.8131 22.3116 21.8777 20.3661 23.0306L10.6161 28.8085C8.62159 29.9904 6.13998 30.0331 4.11035 28.9364L13.6343 34.5804C15.7034 35.8066 18.2969 35.8066 20.3661 34.5804L30.1161 28.8025C32.0617 27.6496 33.2502 25.585 33.2502 23.3585V20.7841L32.4377 19.5909L23.5003 14.0227Z" fill="url(#paint2_radial_8706_4147)"/>
<path d="M23.5003 14.0227V17.5866C23.5003 19.8131 22.3116 21.8777 20.3661 23.0306L10.6161 28.8085C8.62159 29.9904 6.13998 30.0331 4.11035 28.9364L13.6343 34.5804C15.7034 35.8066 18.2969 35.8066 20.3661 34.5804L30.1161 28.8025C32.0617 27.6496 33.2502 25.585 33.2502 23.3585V20.7841L32.4377 19.5909L23.5003 14.0227Z" fill="url(#paint3_linear_8706_4147)"/>
<path d="M30.1142 7.1939L20.3642 1.42008C18.36 0.233203 15.8642 0.196437 13.8295 1.30977L13.6358 1.42448C11.6893 2.57719 10.5 4.6423 10.5 6.86951V14.4135L13.6358 12.5565C15.7041 11.3317 18.2959 11.3317 20.3642 12.5565L30.1142 18.3303C31.9998 19.447 33.1749 21.4199 33.2465 23.5669C33.2489 23.4975 33.25 23.4281 33.25 23.3584V12.6389C33.25 10.4118 32.0607 8.34659 30.1142 7.1939Z" fill="url(#paint4_radial_8706_4147)"/>
<path d="M30.1142 7.1939L20.3642 1.42008C18.36 0.233203 15.8642 0.196437 13.8295 1.30977L13.6358 1.42448C11.6893 2.57719 10.5 4.6423 10.5 6.86951V14.4135L13.6358 12.5565C15.7041 11.3317 18.2959 11.3317 20.3642 12.5565L30.1142 18.3303C31.9998 19.447 33.1749 21.4199 33.2465 23.5669C33.2489 23.4975 33.25 23.4281 33.25 23.3584V12.6389C33.25 10.4118 32.0607 8.34659 30.1142 7.1939Z" fill="url(#paint5_linear_8706_4147)"/>
</g>
<defs>
<radialGradient id="paint0_radial_8706_4147" cx="0" cy="0" r="1" gradientUnits="userSpaceOnUse" gradientTransform="translate(11.6526 7.37125) rotate(110.93) scale(26.6115 47.1593)">
<stop offset="0.06441" stop-color="#AE7FE2"/>
<stop offset="1" stop-color="#0078D4"/>
</radialGradient>
<linearGradient id="paint1_linear_8706_4147" x1="11.7284" y1="29.0316" x2="7.98205" y2="22.4132" gradientUnits="userSpaceOnUse">
<stop stop-color="#114A8B"/>
<stop offset="1" stop-color="#0078D4" stop-opacity="0"/>
</linearGradient>
<radialGradient id="paint2_radial_8706_4147" cx="0" cy="0" r="1" gradientUnits="userSpaceOnUse" gradientTransform="translate(5.97455 27.8247) rotate(-8.19404) scale(25.2173 16.3226)">
<stop offset="0.133928" stop-color="#D59DFF"/>
<stop offset="1" stop-color="#5E438F"/>
</radialGradient>
<linearGradient id="paint3_linear_8706_4147" x1="30.29" y1="19.0952" x2="26.2625" y2="24.9939" gradientUnits="userSpaceOnUse">
<stop stop-color="#493474"/>
<stop offset="1" stop-color="#8C66BA" stop-opacity="0"/>
</linearGradient>
<radialGradient id="paint4_radial_8706_4147" cx="0" cy="0" r="1" gradientUnits="userSpaceOnUse" gradientTransform="translate(30.8574 19.9917) rotate(-166.059) scale(20.2244 33.4154)">
<stop offset="0.0584996" stop-color="#50E6FF"/>
<stop offset="1" stop-color="#436DCD"/>
</radialGradient>
<linearGradient id="paint5_linear_8706_4147" x1="11.2928" y1="1.34035" x2="17.3955" y2="1.34035" gradientUnits="userSpaceOnUse">
<stop stop-color="#2D3F80"/>
<stop offset="1" stop-color="#436DCD" stop-opacity="0"/>
</linearGradient>
<clipPath id="clip0_8706_4147">
<rect width="32.5" height="35" fill="white" transform="translate(0.75 0.5)"/>
</clipPath>
</defs>
</svg>
