<svg xmlns="http://www.w3.org/2000/svg" width="40" height="40" viewBox="0 0 40 40" fill="none">
  <path d="M26.8511 15H36.3714C37.2709 15 38 15.7163 38 16.6V25.1196C38 28.3673 35.3202 31 32.0146 31H31.9863C28.6806 31.0005 26.0005 28.3681 26 25.1204C26 25.1201 26 25.1199 26 25.1196V15.8362C26 15.3744 26.3811 15 26.8511 15Z" fill="#5059C9"/>
  <path d="M33.5 14C35.433 14 37 12.2091 37 10C37 7.79086 35.433 6 33.5 6C31.567 6 30 7.79086 30 10C30 12.2091 31.567 14 33.5 14Z" fill="#5059C9"/>
  <path d="M21.5 14C24.5376 14 27 11.5376 27 8.5C27 5.46243 24.5376 3 21.5 3C18.4624 3 16 5.46243 16 8.5C16 11.5376 18.4624 14 21.5 14Z" fill="#7B83EB"/>
  <path d="M28.4981 15H13.5018C12.6538 15.0216 11.9829 15.7443 12.0025 16.6153V26.3081C11.8841 31.5348 15.9107 35.8721 21 36C26.0893 35.8721 30.1159 31.5348 29.9975 26.3081V16.6153C30.0171 15.7443 29.3462 15.0216 28.4981 15Z" fill="#7B83EB"/>
  <path opacity="0.1" d="M22 15V28.475C21.9959 29.0929 21.6214 29.6481 21.05 29.8833C20.8681 29.9603 20.6726 30 20.4751 30H12.7337C12.6254 29.725 12.5254 29.45 12.4421 29.1667C12.1504 28.2105 12.0016 27.2164 12.0004 26.2167V16.6C11.9804 15.7373 12.6627 15.0214 13.5254 15H22Z" fill="black"/>
  <path opacity="0.2" d="M21 15V29.4589C21 29.6586 20.961 29.8562 20.8855 30.04C20.6545 30.6174 20.1095 30.9958 19.5028 31H13.1049C12.9658 30.7221 12.8349 30.4442 12.7204 30.1579C12.6059 29.8716 12.5159 29.6021 12.434 29.3158C12.1477 28.3495 12.0015 27.345 12.0004 26.3347V16.6168C11.9808 15.7451 12.6507 15.0216 13.4976 15H21Z" fill="black"/>
  <path opacity="0.2" d="M21 15V27.4929C20.9938 28.3227 20.3271 28.9937 19.5028 29H12.434C12.1477 28.055 12.0015 27.0727 12.0004 26.0847V16.5812C11.9808 15.7286 12.6507 15.0211 13.4976 15H21Z" fill="black"/>
  <path opacity="0.2" d="M20 15V27.4929C19.9939 28.3227 19.342 28.9937 18.5361 29H12.4244C12.1444 28.055 12.0015 27.0727 12.0004 26.0847V16.5812C11.9812 15.7286 12.6362 15.0211 13.4643 15H20Z" fill="black"/>
  <path opacity="0.1" d="M22 11.464V13.984C21.8504 13.992 21.7097 14 21.5601 14C21.4105 14 21.2698 13.992 21.1202 13.984C20.8233 13.9661 20.5288 13.9232 20.2405 13.856C18.4589 13.4724 16.9871 12.3362 16.2815 10.8C16.1601 10.542 16.0659 10.2741 16 10H20.39C21.2778 10.0031 21.9966 10.6567 22 11.464Z" fill="black"/>
  <path opacity="0.2" d="M21 11.8392V14C20.7545 13.9775 20.511 13.9237 20.2727 13.8392C18.8 13.3572 17.5833 11.9299 17 10H19.6691C20.403 10.0038 20.9972 10.825 21 11.8392Z" fill="black"/>
  <path opacity="0.2" d="M21 11.8392V14C20.7545 13.9775 20.511 13.9237 20.2727 13.8392C18.8 13.3572 17.5833 11.9299 17 10H19.6691C20.403 10.0038 20.9972 10.825 21 11.8392Z" fill="black"/>
  <path opacity="0.2" d="M20 11.9162V14C18.65 13.4978 17.5347 12.0108 17 10H18.78C19.4527 10.004 19.9974 10.8596 20 11.9162Z" fill="black"/>
  <path d="M3.49972 10H18.5003C19.3286 10 20 10.7088 20 11.583V27.417C20 28.2913 19.3285 29 18.5003 29H3.49972C2.67144 29 2 28.2912 2 27.417V11.583C2 10.7088 2.67146 10 3.49972 10Z" fill="url(#paint0_linear_4592_16434)"/>
  <path d="M15 16.4622H11.961V24H10.0249V16.4622H7V15H15V16.4622Z" fill="white"/>
  <defs>
    <linearGradient id="paint0_linear_4592_16434" x1="5.12697" y1="8.76304" x2="17.8511" y2="29.6409" gradientUnits="userSpaceOnUse">
      <stop stop-color="#5A62C3"/>
      <stop offset="0.5" stop-color="#4D55BD"/>
      <stop offset="1" stop-color="#3940AB"/>
    </linearGradient>
  </defs>
</svg>