<svg xmlns="http://www.w3.org/2000/svg" width="36" height="36" viewBox="0 0 36 36" fill="none">
  <g clip-path="url(#clip0_8706_3835)">
    <path d="M2.60595 2.00972L21.9725 0.579273C24.3514 0.375223 24.9625 0.512773 26.4584 1.60022L32.6405 5.95527C33.6601 6.70427 33.9995 6.90832 33.9995 7.72382V31.6089C33.9995 33.1058 33.456 33.9913 31.553 34.1264L9.06345 35.4886C7.63545 35.5562 6.9554 35.3521 6.20745 34.3991L1.655 28.4792C0.83845 27.3896 0.5 26.5741 0.5 25.6207V4.38972C0.5 3.16577 1.04355 2.14517 2.60595 2.00972Z" fill="white"/>
    <path fill-rule="evenodd" clip-rule="evenodd" d="M21.9725 0.579623L2.60595 2.01007C1.04355 2.14517 0.5 3.16612 0.5 4.38972V25.6207C0.5 26.5738 0.83845 27.3893 1.655 28.4792L6.20745 34.3987C6.9554 35.3518 7.63545 35.5562 9.06345 35.4883L31.5534 34.1268C33.455 33.9913 33.9999 33.1058 33.9999 31.6092V7.72417C33.9999 6.95067 33.6944 6.72772 32.7949 6.06762L26.4585 1.60022C24.9629 0.512773 24.3515 0.375223 21.9725 0.579273V0.579623ZM9.572 7.33322C7.73555 7.45677 7.31905 7.48477 6.27605 6.63672L3.62445 4.52762C3.35495 4.25462 3.4904 3.91407 4.1694 3.84617L22.787 2.48572C24.3504 2.34922 25.1645 2.89417 25.776 3.37017L28.969 5.68367C29.1055 5.75262 29.445 6.15967 29.0366 6.15967L9.81 7.31712L9.572 7.33322ZM7.43105 31.4052V11.1286C7.43105 10.2431 7.703 9.83467 8.5171 9.76607L30.6 8.47317C31.349 8.40562 31.6875 8.88162 31.6875 9.76572V29.9072C31.6875 30.7927 31.551 31.5417 30.3284 31.6092L9.19645 32.8342C7.9739 32.9018 7.4314 32.4947 7.4314 31.4052H7.43105ZM28.2911 12.2157C28.4265 12.8282 28.2911 13.4407 27.6786 13.5107L26.6601 13.7127V28.6832C25.7756 29.1592 24.9615 29.4312 24.2811 29.4312C23.1937 29.4312 22.9221 29.0906 22.1076 28.0707L15.4471 17.5917V27.7302L17.5541 28.2072C17.5541 28.2072 17.5541 29.4322 15.8542 29.4322L11.1677 29.7042C11.0312 29.4312 11.1677 28.7511 11.6426 28.6157L12.8666 28.2762V14.8712L11.168 14.7336C11.0315 14.1211 11.371 13.2367 12.323 13.1681L17.3515 12.8296L24.2815 23.4441V14.0536L22.515 13.8506C22.3785 13.1005 22.9221 12.5556 23.6011 12.4891L28.2911 12.2157Z" fill="black"/>
  </g>
  <defs>
    <clipPath id="clip0_8706_3835">
      <rect width="35" height="35" fill="white" transform="translate(0.5 0.5)"/>
    </clipPath>
  </defs>
</svg>