<svg xmlns="http://www.w3.org/2000/svg" width="40" height="40" viewBox="0 0 40 40" fill="none">
  <path d="M8.84277 5.12073C17.4812 5.11833 26.1204 5.12073 34.7596 5.11993C34.7588 13.7703 34.7604 22.4215 34.7588 31.0719C33.53 31.0727 32.3004 31.0719 31.0716 31.0727C23.6636 31.0743 16.2556 31.0711 8.84757 31.0687C8.84197 23.6607 8.84357 16.2527 8.84277 8.84393C8.84277 7.60313 8.84277 6.36233 8.84277 5.12073ZM11.878 16.1975C11.8148 16.6087 11.842 17.0247 11.8396 17.4391C11.8388 20.1599 11.8412 22.8799 11.8388 25.6007C11.8404 25.9887 11.8156 26.3791 11.8716 26.7655C11.9444 26.5439 11.918 26.3079 11.922 26.0791C11.9196 23.0399 11.9204 20.0007 11.9212 16.9615C11.9148 16.7063 11.962 16.4447 11.878 16.1975ZM11.9492 16.2599C11.9836 16.7311 11.982 17.2047 11.9692 17.6767C11.994 19.6511 11.9692 21.6255 11.9812 23.5999C11.9676 24.6479 11.9964 25.6967 11.9564 26.7431C12.6492 26.7423 13.3412 26.7399 14.0332 26.7439C14.0492 26.7007 14.082 26.6135 14.098 26.5703C14.0924 25.1783 14.1124 23.7871 14.0916 22.3959C14.0332 21.6535 14.042 20.9047 14.0524 20.1607C14.3804 20.7199 14.614 21.3295 14.8972 21.9127C15.1996 22.5879 15.5284 23.2519 15.8252 23.9311C16.1596 24.6703 16.4908 25.4119 16.8204 26.1535C16.8948 26.3303 16.9684 26.5079 17.0356 26.6879C17.3284 26.7047 17.6228 26.6903 17.914 26.7319C18.3804 26.7463 18.8476 26.7423 19.3148 26.7479C19.3252 23.2527 19.3132 19.7575 19.3212 16.2623C18.6196 16.2551 17.918 16.2607 17.2164 16.2591C17.2364 17.2127 17.1292 18.1679 17.2084 19.1199C17.1292 19.6255 17.2364 20.1327 17.218 20.6399C17.2092 21.3703 17.238 22.1015 17.2084 22.8311C17.074 22.6495 16.9804 22.4423 16.8988 22.2327C16.5948 21.5687 16.2844 20.9087 15.982 20.2447C15.3732 18.9271 14.7876 17.5991 14.1972 16.2735C13.4476 16.2735 12.698 16.2527 11.9492 16.2599ZM20.3012 16.2655C20.8572 17.3959 21.3988 18.5343 21.9372 19.6735C22.1884 20.2455 22.4908 20.7927 22.7524 21.3591C22.738 21.4143 22.71 21.5255 22.6956 21.5807C22.0924 22.9575 21.4196 24.3023 20.7812 25.6631C20.6292 26.0047 20.4684 26.3423 20.3188 26.6855C20.3772 26.6983 20.4932 26.7255 20.5508 26.7391C21.302 26.7295 22.0532 26.7503 22.8044 26.7391C22.9724 26.7495 22.9988 26.5375 23.0572 26.4215C23.3356 25.6647 23.6364 24.9167 23.9404 24.1695C24.0236 23.9607 24.1068 23.7511 24.1828 23.5391C24.2156 23.5431 24.2804 23.5511 24.3132 23.5559C24.5092 24.0583 24.7476 24.5431 24.9436 25.0463C25.182 25.6103 25.3836 26.1903 25.6428 26.7463C26.5076 26.7367 27.3724 26.7455 28.238 26.7415C28.1484 26.5135 28.0444 26.2919 27.9372 26.0719C27.2284 24.6151 26.5716 23.1319 25.8172 21.6967C25.7332 21.5623 25.8116 21.4143 25.8524 21.2815C26.2348 20.3967 26.6476 19.5263 27.0556 18.6535C27.4276 17.8583 27.8148 17.0703 28.158 16.2623C27.298 16.2575 26.4372 16.2567 25.5772 16.2623C25.4196 16.6799 25.2636 17.0975 25.0956 17.5111C25.0316 17.6759 24.9644 17.8399 24.898 18.0047C24.6996 18.4615 24.4892 18.9127 24.2524 19.3511C24.226 19.3431 24.1716 19.3271 24.1444 19.3191C24.0788 19.1431 24.0108 18.9671 23.942 18.7919C23.8876 18.6591 23.8348 18.5263 23.7836 18.3927C23.5324 17.7799 23.2956 17.1615 23.0468 16.5471C23.018 16.4559 22.9908 16.3647 22.9652 16.2735C22.078 16.2471 21.1892 16.2599 20.3012 16.2655Z" fill="#91140B"/>
  <path d="M5.12024 8.84302C6.36104 8.84382 7.60184 8.84222 8.84264 8.84382C8.84344 16.2526 8.84184 23.6606 8.84744 31.0686C16.2554 31.071 23.6634 31.0742 31.0714 31.0726C31.0722 32.3014 31.0714 33.5302 31.0722 34.759C22.421 34.7598 13.7706 34.7598 5.11944 34.7598C5.12024 26.1206 5.11784 17.4822 5.12024 8.84302Z" fill="#009999"/>
  <path opacity="0.89" d="M11.8783 16.1975C11.9623 16.4447 11.9151 16.7063 11.9215 16.9615C11.9207 20.0007 11.9199 23.0399 11.9223 26.0791C11.9183 26.3079 11.9447 26.5439 11.8719 26.7655C11.8159 26.3791 11.8407 25.9887 11.8391 25.6007C11.8415 22.8799 11.8391 20.1599 11.8399 17.4391C11.8423 17.0247 11.8151 16.6087 11.8783 16.1975Z" fill="#871D16"/>
  <path d="M11.9492 16.2601C12.698 16.2529 13.4476 16.2737 14.1972 16.2737C14.7876 17.5993 15.3732 18.9273 15.982 20.2449C16.2844 20.9089 16.5948 21.5689 16.8988 22.2329C16.9804 22.4425 17.074 22.6497 17.2084 22.8313C17.238 22.1017 17.2092 21.3705 17.218 20.6401C17.2364 20.1329 17.1292 19.6257 17.2084 19.1201C17.1292 18.1681 17.2364 17.2129 17.2164 16.2593C17.918 16.2609 18.6196 16.2553 19.3212 16.2625C19.3132 19.7577 19.3252 23.2529 19.3148 26.7481C18.8476 26.7425 18.3804 26.7465 17.914 26.7321C17.6228 26.6905 17.3284 26.7049 17.0356 26.6881C16.9684 26.5081 16.8948 26.3305 16.8204 26.1537C16.4908 25.4121 16.1596 24.6705 15.8252 23.9313C15.5284 23.2521 15.1996 22.5881 14.8972 21.9129C14.614 21.3297 14.3804 20.7201 14.0524 20.1609C14.042 20.9049 14.0332 21.6537 14.0916 22.3961C14.1124 23.7873 14.0924 25.1785 14.098 26.5705C14.082 26.6137 14.0492 26.7009 14.0332 26.7441C13.3412 26.7401 12.6492 26.7425 11.9564 26.7433C11.9964 25.6969 11.9676 24.6481 11.9812 23.6001C11.9692 21.6257 11.994 19.6513 11.9692 17.6769C11.982 17.2049 11.9836 16.7313 11.9492 16.2601Z" fill="white"/>
  <path d="M20.3008 16.2656C21.1888 16.26 22.0776 16.2472 22.9648 16.2736C22.9904 16.3648 23.0176 16.456 23.0464 16.5472C23.2952 17.1616 23.532 17.78 23.7832 18.3928C23.8344 18.5264 23.8872 18.6592 23.9416 18.792C24.0104 18.9672 24.0784 19.1432 24.144 19.3192C24.1712 19.3272 24.2256 19.3432 24.252 19.3512C24.4888 18.9128 24.6992 18.4616 24.8976 18.0048C24.964 17.84 25.0312 17.676 25.0952 17.5112C25.2632 17.0976 25.4192 16.68 25.5768 16.2624C26.4368 16.2568 27.2976 16.2576 28.1576 16.2624C27.8144 17.0704 27.4272 17.8584 27.0552 18.6536C26.6472 19.5264 26.2344 20.3968 25.852 21.2816C25.8112 21.4144 25.7328 21.5624 25.8168 21.6968C26.5712 23.132 27.228 24.6152 27.9368 26.072C28.044 26.292 28.148 26.5136 28.2376 26.7416C27.372 26.7456 26.5072 26.7368 25.6424 26.7464C25.3832 26.1904 25.1816 25.6104 24.9432 25.0464C24.7472 24.5432 24.5088 24.0584 24.3128 23.556C24.28 23.5512 24.2152 23.5432 24.1824 23.5392C24.1064 23.7512 24.0232 23.9608 23.94 24.1696C23.636 24.9168 23.3352 25.6648 23.0568 26.4216C22.9984 26.5376 22.972 26.7496 22.804 26.7392C22.0528 26.7504 21.3016 26.7296 20.5504 26.7392C20.4928 26.7256 20.3768 26.6984 20.3184 26.6856C20.468 26.3424 20.6288 26.0048 20.7808 25.6632C21.4192 24.3024 22.092 22.9576 22.6952 21.5808C22.7096 21.5256 22.7376 21.4144 22.752 21.3592C22.4904 20.7928 22.188 20.2456 21.9368 19.6736C21.3984 18.5344 20.8568 17.396 20.3008 16.2656Z" fill="white"/>
</svg>