<svg xmlns="http://www.w3.org/2000/svg" width="34" height="36" viewBox="0 0 34 36" fill="none">
  <g clip-path="url(#clip0_8706_1906)">
    <path d="M9.32294 17.5036L12.0686 18.9663V15.6491L19.5492 11.5745L16.8596 10.0073L9.35096 14.1342V17.5036H9.32294ZM21.1462 12.4625L18.4005 13.9252L21.5665 15.6491L21.5104 23.5111L24.2561 22.0484V14.1342L21.1462 12.4625ZM19.9415 24.4514V21.6043L16.7755 23.3282L9.29492 19.2536V22.1006L16.8035 26.1752L19.9415 24.4514Z" fill="black"/>
    <path d="M16.8319 0.526855L23.0517 3.89626L6.68966 12.9336V20.7171L0.75 17.4783V9.27686L16.8319 0.526855ZM33.0539 26.6463L26.8341 30.094V12.8291L19.3254 8.70222L25.6293 5.3067L33.0539 9.32909V26.6463ZM0.75 26.7507V20.3515L16.8319 28.9186L24.2284 24.7918L24.2845 31.4261L17 35.4485L0.75 26.7507Z" fill="#64BC4F"/>
  </g>
  <defs>
    <clipPath id="clip0_8706_1906">
      <rect width="32.5" height="35" fill="white" transform="translate(0.75 0.5)"/>
    </clipPath>
  </defs>
</svg>