<svg xmlns="http://www.w3.org/2000/svg" width="32" height="32" viewBox="0 0 32 32" fill="none">
  <g clip-path="url(#clip0_8706_10067)">
    <path d="M6.85314 20.1575C6.85314 21.9969 5.36653 23.4835 3.52716 23.4835C1.68779 23.4835 0.201172 21.9969 0.201172 20.1575C0.201172 18.3182 1.68779 16.8315 3.52716 16.8315H6.85314V20.1575ZM8.51613 20.1575C8.51613 18.3182 10.0027 16.8315 11.8421 16.8315C13.6815 16.8315 15.1681 18.3182 15.1681 20.1575V28.4725C15.1681 30.3119 13.6815 31.7985 11.8421 31.7985C10.0027 31.7985 8.51613 30.3119 8.51613 28.4725V20.1575Z" fill="#E01E5A"/>
    <path d="M11.8429 6.80309C10.0035 6.80309 8.51692 5.31648 8.51692 3.47711C8.51692 1.63774 10.0035 0.151123 11.8429 0.151123C13.6823 0.151123 15.1689 1.63774 15.1689 3.47711V6.80309H11.8429ZM11.8429 8.49128C13.6823 8.49128 15.1689 9.9779 15.1689 11.8173C15.1689 13.6566 13.6823 15.1432 11.8429 15.1432H3.50274C1.66337 15.1432 0.176758 13.6566 0.176758 11.8173C0.176758 9.9779 1.66337 8.49128 3.50274 8.49128H11.8429Z" fill="#36C5F0"/>
    <path d="M25.1714 11.8173C25.1714 9.9779 26.658 8.49128 28.4974 8.49128C30.3368 8.49128 31.8234 9.9779 31.8234 11.8173C31.8234 13.6566 30.3368 15.1432 28.4974 15.1432H25.1714V11.8173ZM23.5084 11.8173C23.5084 13.6566 22.0218 15.1432 20.1824 15.1432C18.3431 15.1432 16.8564 13.6566 16.8564 11.8173V3.47711C16.8564 1.63774 18.3431 0.151123 20.1824 0.151123C22.0218 0.151123 23.5084 1.63774 23.5084 3.47711V11.8173Z" fill="#2EB67D"/>
    <path d="M20.1824 25.1465C22.0218 25.1465 23.5084 26.6331 23.5084 28.4725C23.5084 30.3119 22.0218 31.7985 20.1824 31.7985C18.3431 31.7985 16.8564 30.3119 16.8564 28.4725V25.1465H20.1824ZM20.1824 23.4835C18.3431 23.4835 16.8564 21.9969 16.8564 20.1575C16.8564 18.3182 18.3431 16.8315 20.1824 16.8315H28.5226C30.362 16.8315 31.8486 18.3182 31.8486 20.1575C31.8486 21.9969 30.362 23.4835 28.5226 23.4835H20.1824Z" fill="#ECB22E"/>
  </g>
  <defs>
    <clipPath id="clip0_8706_10067">
      <rect width="32" height="32" fill="white"/>
    </clipPath>
  </defs>
</svg>